<svg xmlns="http://www.w3.org/2000/svg" xmlns:xlink="http://www.w3.org/1999/xlink" width="60" zoomAndPan="magnify" viewBox="0 0 45 44.999999" height="60" preserveAspectRatio="xMidYMid meet" version="1.0"><defs><clipPath id="070f34a46f"><path d="M 20 0 L 22 0 L 22 45 L 20 45 Z M 20 0 " clip-rule="nonzero"/></clipPath><clipPath id="a37628d348"><path d="M -0.171875 16.335938 L 20.929688 0.722656 L 41.894531 29.058594 L 20.792969 44.671875 Z M -0.171875 16.335938 " clip-rule="nonzero"/></clipPath><clipPath id="c70f3798c8"><path d="M -0.171875 16.335938 L 20.929688 0.722656 L 41.894531 29.058594 L 20.792969 44.671875 Z M -0.171875 16.335938 " clip-rule="nonzero"/></clipPath><clipPath id="c53432d695"><path d="M 20 0 L 22 0 L 22 9 L 20 9 Z M 20 0 " clip-rule="nonzero"/></clipPath><clipPath id="e0150615b7"><path d="M -0.171875 16.335938 L 20.929688 0.722656 L 41.894531 29.058594 L 20.792969 44.671875 Z M -0.171875 16.335938 " clip-rule="nonzero"/></clipPath><clipPath id="ec6374cac4"><path d="M -0.171875 16.335938 L 20.929688 0.722656 L 41.894531 29.058594 L 20.792969 44.671875 Z M -0.171875 16.335938 " clip-rule="nonzero"/></clipPath><clipPath id="40126535b2"><path d="M 20 0 L 21 0 L 21 40 L 20 40 Z M 20 0 " clip-rule="nonzero"/></clipPath><clipPath id="cb65dafe88"><path d="M -0.171875 16.335938 L 20.929688 0.722656 L 41.894531 29.058594 L 20.792969 44.671875 Z M -0.171875 16.335938 " clip-rule="nonzero"/></clipPath><clipPath id="513504b467"><path d="M -0.171875 16.335938 L 20.929688 0.722656 L 41.894531 29.058594 L 20.792969 44.671875 Z M -0.171875 16.335938 " clip-rule="nonzero"/></clipPath><clipPath id="b1a66ced8b"><path d="M 15 2 L 22 2 L 22 44 L 15 44 Z M 15 2 " clip-rule="nonzero"/></clipPath><clipPath id="efc24f4a85"><path d="M -1.648438 20.265625 L 15.851562 2.765625 L 39.1875 26.101562 L 21.6875 43.601562 Z M -1.648438 20.265625 " clip-rule="nonzero"/></clipPath><clipPath id="58c4e86b68"><path d="M -1.648438 20.265625 L 15.851562 2.765625 L 39.1875 26.101562 L 21.6875 43.601562 Z M -1.648438 20.265625 " clip-rule="nonzero"/></clipPath><clipPath id="a8c25d3c09"><path d="M 16 2 L 18 2 L 18 10 L 16 10 Z M 16 2 " clip-rule="nonzero"/></clipPath><clipPath id="a9c6d852d5"><path d="M -1.648438 20.265625 L 15.851562 2.765625 L 39.1875 26.101562 L 21.6875 43.601562 Z M -1.648438 20.265625 " clip-rule="nonzero"/></clipPath><clipPath id="c9dfe91333"><path d="M -1.648438 20.265625 L 15.851562 2.765625 L 39.1875 26.101562 L 21.6875 43.601562 Z M -1.648438 20.265625 " clip-rule="nonzero"/></clipPath><clipPath id="dc5e819764"><path d="M 15 2 L 22 2 L 22 40 L 15 40 Z M 15 2 " clip-rule="nonzero"/></clipPath><clipPath id="9de192b60a"><path d="M -1.648438 20.265625 L 15.851562 2.765625 L 39.1875 26.101562 L 21.6875 43.601562 Z M -1.648438 20.265625 " clip-rule="nonzero"/></clipPath><clipPath id="4f3f414144"><path d="M -1.648438 20.265625 L 15.851562 2.765625 L 39.1875 26.101562 L 21.6875 43.601562 Z M -1.648438 20.265625 " clip-rule="nonzero"/></clipPath><clipPath id="240390ebe2"><path d="M 21 1 L 26 1 L 26 44 L 21 44 Z M 21 1 " clip-rule="nonzero"/></clipPath><clipPath id="8db7800e4c"><path d="M 3.699219 15.570312 L 25.097656 1.699219 L 43.453125 30.023438 L 22.054688 43.890625 Z M 3.699219 15.570312 " clip-rule="nonzero"/></clipPath><clipPath id="49e40c65b3"><path d="M 3.699219 15.570312 L 25.097656 1.699219 L 43.453125 30.023438 L 22.054688 43.890625 Z M 3.699219 15.570312 " clip-rule="nonzero"/></clipPath><clipPath id="e816f04bb9"><path d="M 24 1 L 26 1 L 26 9 L 24 9 Z M 24 1 " clip-rule="nonzero"/></clipPath><clipPath id="132515f3c7"><path d="M 3.699219 15.570312 L 25.097656 1.699219 L 43.453125 30.023438 L 22.054688 43.890625 Z M 3.699219 15.570312 " clip-rule="nonzero"/></clipPath><clipPath id="fb41c9862e"><path d="M 3.699219 15.570312 L 25.097656 1.699219 L 43.453125 30.023438 L 22.054688 43.890625 Z M 3.699219 15.570312 " clip-rule="nonzero"/></clipPath><clipPath id="598e2516dc"><path d="M 22 1 L 25 1 L 25 39 L 22 39 Z M 22 1 " clip-rule="nonzero"/></clipPath><clipPath id="c61c25a3b0"><path d="M 3.699219 15.570312 L 25.097656 1.699219 L 43.453125 30.023438 L 22.054688 43.890625 Z M 3.699219 15.570312 " clip-rule="nonzero"/></clipPath><clipPath id="dfe9eb9dd5"><path d="M 3.699219 15.570312 L 25.097656 1.699219 L 43.453125 30.023438 L 22.054688 43.890625 Z M 3.699219 15.570312 " clip-rule="nonzero"/></clipPath><clipPath id="25d9d2c282"><path d="M 11 5 L 36 5 L 36 40 L 11 40 Z M 11 5 " clip-rule="nonzero"/></clipPath><clipPath id="cbeced3f6a"><path d="M 10.550781 6.207031 L 35.292969 5.714844 L 35.949219 38.707031 L 11.203125 39.199219 Z M 10.550781 6.207031 " clip-rule="nonzero"/></clipPath><clipPath id="5e00445e61"><path d="M 10.550781 6.207031 L 35.292969 5.714844 L 35.949219 38.707031 L 11.203125 39.199219 Z M 10.550781 6.207031 " clip-rule="nonzero"/></clipPath><clipPath id="af6ace68e5"><path d="M 31 5 L 36 5 L 36 12 L 31 12 Z M 31 5 " clip-rule="nonzero"/></clipPath><clipPath id="b9be1f497e"><path d="M 10.550781 6.207031 L 35.292969 5.714844 L 35.949219 38.707031 L 11.203125 39.199219 Z M 10.550781 6.207031 " clip-rule="nonzero"/></clipPath><clipPath id="95e9e17cd7"><path d="M 10.550781 6.207031 L 35.292969 5.714844 L 35.949219 38.707031 L 11.203125 39.199219 Z M 10.550781 6.207031 " clip-rule="nonzero"/></clipPath><clipPath id="19607170f0"><path d="M 13 5 L 36 5 L 36 36 L 13 36 Z M 13 5 " clip-rule="nonzero"/></clipPath><clipPath id="d617612c72"><path d="M 10.550781 6.207031 L 35.292969 5.714844 L 35.949219 38.707031 L 11.203125 39.199219 Z M 10.550781 6.207031 " clip-rule="nonzero"/></clipPath><clipPath id="c8770e7e0d"><path d="M 10.550781 6.207031 L 35.292969 5.714844 L 35.949219 38.707031 L 11.203125 39.199219 Z M 10.550781 6.207031 " clip-rule="nonzero"/></clipPath></defs><g clip-path="url(#070f34a46f)"><g clip-path="url(#a37628d348)"><g clip-path="url(#c70f3798c8)"><path fill="#ff914d" d="M 20.5625 44.339844 L 20.46875 43.671875 L 20.402344 42.941406 L 20.371094 41.617188 L 20.351562 40.496094 L 20.324219 39.058594 L 20.355469 36.339844 L 20.359375 34.273438 L 20.417969 29.71875 L 20.453125 27.238281 L 20.519531 21.917969 L 20.601562 14.464844 L 20.644531 9.808594 L 20.621094 9.125 L 20.632812 8.113281 L 20.601562 6.992188 L 20.558594 6.0625 L 20.492188 4.554688 L 20.472656 3.359375 L 20.484375 2.445312 L 20.546875 1.609375 L 20.644531 1.085938 L 20.726562 0.886719 L 20.910156 0.792969 L 21.050781 0.75 L 21.1875 0.847656 L 21.347656 0.992188 L 21.453125 1.207031 L 21.53125 1.578125 L 21.578125 2.121094 L 21.609375 3.019531 L 21.613281 4.101562 L 21.585938 5.242188 L 21.5625 6.34375 L 21.515625 7.320312 L 21.453125 8.070312 L 21.449219 8.546875 L 21.457031 10.027344 L 21.398438 14.289062 L 21.34375 19.933594 L 21.273438 23.945312 L 21.242188 28.609375 L 21.167969 33.15625 L 21.09375 37.410156 L 20.972656 41.113281 L 20.875 42.742188 L 20.820312 43.378906 L 20.746094 43.894531 L 20.667969 44.203125 L 20.664062 44.289062 L 20.636719 44.347656 Z M 20.890625 6.53125 L 20.949219 6.558594 L 21.0625 6.53125 L 21.1875 6.542969 L 21.203125 6.199219 L 21.203125 5.09375 L 21.21875 3.738281 L 21.191406 2.582031 L 21.1875 2.085938 L 21.160156 1.949219 L 21.03125 1.898438 L 20.882812 1.894531 L 20.800781 1.925781 L 20.78125 2.140625 L 20.804688 2.265625 L 20.800781 2.617188 L 20.78125 3.183594 L 20.769531 3.796875 L 20.78125 4.386719 L 20.808594 5.070312 L 20.820312 5.625 L 20.855469 6.339844 Z M 20.890625 6.53125 " fill-opacity="1" fill-rule="nonzero"/></g></g></g><g clip-path="url(#c53432d695)"><g clip-path="url(#e0150615b7)"><g clip-path="url(#ec6374cac4)"><path fill="#ff914d" d="M 20.988281 0.8125 L 20.957031 1.40625 L 20.96875 1.597656 L 21.027344 1.597656 L 21.125 1.5 L 21.128906 1.511719 L 21.242188 2.269531 L 21.285156 3.882812 L 21.300781 4.863281 L 21.296875 6.285156 L 21.234375 6.671875 L 21.15625 6.617188 L 21.074219 6.5625 L 21.015625 6.570312 L 20.96875 6.867188 L 20.957031 7.710938 L 21.019531 8.015625 L 21.066406 7.972656 L 21.171875 7.667969 L 21.246094 7.191406 L 21.300781 6.816406 L 21.316406 6.53125 L 21.367188 5.917969 L 21.363281 5.289062 L 21.386719 4.609375 L 21.371094 3.816406 L 21.371094 3.132812 L 21.332031 2.542969 L 21.304688 2.078125 L 21.304688 1.519531 L 21.3125 1.152344 L 21.304688 0.972656 L 21.089844 0.785156 L 21.046875 0.738281 Z M 20.988281 0.8125 " fill-opacity="1" fill-rule="nonzero"/></g></g></g><g clip-path="url(#40126535b2)"><g clip-path="url(#cb65dafe88)"><g clip-path="url(#513504b467)"><path fill="#ff914d" d="M 20.960938 0.832031 L 20.730469 0.929688 L 20.703125 1.210938 L 20.648438 1.75 L 20.628906 2.769531 L 20.609375 3.796875 L 20.621094 4.445312 L 20.667969 5.28125 L 20.6875 6.015625 L 20.726562 6.605469 L 20.792969 6.945312 L 20.820312 7.191406 L 20.875 7.425781 L 20.894531 7.746094 L 20.847656 7.910156 L 20.886719 8.210938 L 20.921875 8.695312 L 20.9375 9.613281 L 20.945312 10.386719 L 20.949219 11.601562 L 20.945312 12.171875 L 20.980469 12.523438 L 20.972656 13.574219 L 20.972656 14.554688 L 20.957031 15.523438 L 20.964844 17.292969 L 20.914062 19.730469 L 20.84375 22.660156 L 20.8125 24.589844 L 20.785156 27.054688 L 20.765625 28.894531 L 20.707031 31.371094 L 20.671875 32.964844 L 20.664062 34.339844 L 20.640625 35.746094 L 20.640625 37.375 L 20.59375 38.546875 L 20.582031 39.253906 L 20.539062 39.441406 L 20.527344 38.535156 L 20.535156 37.703125 L 20.542969 37.007812 L 20.542969 36.195312 L 20.527344 35.375 L 20.53125 34.535156 L 20.566406 33.757812 L 20.550781 32.765625 L 20.542969 31.808594 L 20.554688 30.796875 L 20.570312 29.636719 L 20.582031 27.847656 L 20.59375 26.640625 L 20.59375 25.375 L 20.605469 24.074219 L 20.640625 21.664062 L 20.667969 19.785156 L 20.734375 14.148438 L 20.742188 12.445312 L 20.757812 9.777344 L 20.730469 8.730469 L 20.683594 7.800781 L 20.632812 7.078125 L 20.582031 6.480469 L 20.5625 5.746094 L 20.527344 5.101562 L 20.5 4.175781 L 20.507812 3.289062 L 20.5 2.683594 L 20.515625 1.886719 L 20.550781 1.484375 L 20.671875 1.039062 L 20.722656 0.875 L 20.863281 0.796875 Z M 20.960938 0.832031 " fill-opacity="1" fill-rule="nonzero"/></g></g></g><g clip-path="url(#b1a66ced8b)"><g clip-path="url(#efc24f4a85)"><g clip-path="url(#58c4e86b68)"><path fill="#ff914d" d="M 21.71875 43.617188 L 21.535156 43 L 21.371094 42.328125 L 21.15625 41.089844 L 20.980469 40.039062 L 20.753906 38.699219 L 20.402344 36.144531 L 20.117188 34.207031 L 19.535156 29.929688 L 19.21875 27.597656 L 18.535156 22.601562 L 17.566406 15.601562 L 16.957031 11.230469 L 16.839844 10.589844 L 16.707031 9.640625 L 16.523438 8.597656 L 16.351562 7.730469 L 16.078125 6.324219 L 15.890625 5.210938 L 15.773438 4.351562 L 15.714844 3.554688 L 15.734375 3.050781 L 15.78125 2.851562 L 15.941406 2.738281 L 16.070312 2.683594 L 16.207031 2.753906 L 16.382812 2.867188 L 16.511719 3.054688 L 16.632812 3.390625 L 16.753906 3.894531 L 16.910156 4.730469 L 17.0625 5.742188 L 17.199219 6.816406 L 17.332031 7.851562 L 17.421875 8.777344 L 17.472656 9.488281 L 17.535156 9.933594 L 17.746094 11.320312 L 18.289062 15.324219 L 19.03125 20.625 L 19.527344 24.394531 L 20.152344 28.773438 L 20.71875 33.046875 L 21.246094 37.046875 L 21.648438 40.535156 L 21.789062 42.074219 L 21.828125 42.679688 L 21.828125 43.171875 L 21.796875 43.472656 L 21.804688 43.554688 L 21.789062 43.613281 Z M 16.730469 8.125 L 16.789062 8.140625 L 16.886719 8.097656 L 17.007812 8.09375 L 16.976562 7.765625 L 16.820312 6.730469 L 16.644531 5.457031 L 16.453125 4.378906 L 16.382812 3.914062 L 16.335938 3.789062 L 16.210938 3.761719 L 16.070312 3.777344 L 15.996094 3.820312 L 16.011719 4.019531 L 16.050781 4.136719 L 16.097656 4.464844 L 16.15625 5 L 16.230469 5.578125 L 16.324219 6.128906 L 16.445312 6.765625 L 16.535156 7.28125 L 16.667969 7.949219 Z M 16.730469 8.125 " fill-opacity="1" fill-rule="nonzero"/></g></g></g><g clip-path="url(#a8c25d3c09)"><g clip-path="url(#a9c6d852d5)"><g clip-path="url(#c9dfe91333)"><path fill="#ff914d" d="M 16.019531 2.746094 L 16.070312 3.308594 L 16.109375 3.484375 L 16.164062 3.476562 L 16.242188 3.375 L 16.25 3.382812 L 16.460938 4.078125 L 16.726562 5.585938 L 16.878906 6.5 L 17.074219 7.835938 L 17.070312 8.207031 L 16.988281 8.167969 L 16.902344 8.125 L 16.851562 8.144531 L 16.847656 8.429688 L 16.953125 9.21875 L 17.058594 9.496094 L 17.09375 9.449219 L 17.148438 9.148438 L 17.152344 8.691406 L 17.152344 8.332031 L 17.128906 8.0625 L 17.089844 7.480469 L 16.996094 6.890625 L 16.925781 6.25 L 16.796875 5.507812 L 16.703125 4.871094 L 16.582031 4.320312 L 16.492188 3.890625 L 16.410156 3.367188 L 16.367188 3.019531 L 16.335938 2.851562 L 16.109375 2.707031 L 16.0625 2.671875 Z M 16.019531 2.746094 " fill-opacity="1" fill-rule="nonzero"/></g></g></g><g clip-path="url(#dc5e819764)"><g clip-path="url(#9de192b60a)"><g clip-path="url(#4f3f414144)"><path fill="#ff914d" d="M 15.996094 2.769531 L 15.792969 2.894531 L 15.804688 3.160156 L 15.832031 3.675781 L 15.953125 4.632812 L 16.082031 5.597656 L 16.183594 6.207031 L 16.34375 6.980469 L 16.464844 7.667969 L 16.582031 8.21875 L 16.691406 8.527344 L 16.753906 8.75 L 16.835938 8.964844 L 16.902344 9.261719 L 16.878906 9.421875 L 16.960938 9.699219 L 17.0625 10.148438 L 17.203125 11.007812 L 17.320312 11.730469 L 17.496094 12.867188 L 17.570312 13.40625 L 17.652344 13.730469 L 17.789062 14.714844 L 17.929688 15.636719 L 18.050781 16.542969 L 18.304688 18.203125 L 18.597656 20.492188 L 18.941406 23.25 L 19.183594 25.066406 L 19.503906 27.378906 L 19.746094 29.109375 L 20.039062 31.4375 L 20.226562 32.9375 L 20.410156 34.226562 L 20.589844 35.546875 L 20.816406 37.074219 L 20.9375 38.179688 L 21.023438 38.847656 L 21.011719 39.027344 L 20.875 38.175781 L 20.761719 37.398438 L 20.671875 36.746094 L 20.558594 35.984375 L 20.429688 35.214844 L 20.3125 34.429688 L 20.238281 33.695312 L 20.085938 32.769531 L 19.945312 31.871094 L 19.8125 30.921875 L 19.664062 29.832031 L 19.425781 28.152344 L 19.265625 27.019531 L 19.089844 25.832031 L 18.917969 24.609375 L 18.617188 22.347656 L 17.648438 15.285156 L 17.417969 13.6875 L 17.054688 11.1875 L 16.886719 10.207031 L 16.714844 9.339844 L 16.5625 8.671875 L 16.429688 8.117188 L 16.308594 7.433594 L 16.1875 6.832031 L 16.03125 5.972656 L 15.914062 5.136719 L 15.820312 4.570312 L 15.726562 3.820312 L 15.699219 3.441406 L 15.753906 3.003906 L 15.777344 2.84375 L 15.898438 2.75 Z M 15.996094 2.769531 " fill-opacity="1" fill-rule="nonzero"/></g></g></g><g clip-path="url(#240390ebe2)"><g clip-path="url(#8db7800e4c)"><g clip-path="url(#49e40c65b3)"><path fill="#ff914d" d="M 21.859375 43.566406 L 21.808594 42.921875 L 21.789062 42.222656 L 21.835938 40.953125 L 21.886719 39.878906 L 21.945312 38.503906 L 22.132812 35.90625 L 22.261719 33.933594 L 22.589844 29.582031 L 22.769531 27.214844 L 23.144531 22.132812 L 23.667969 15.011719 L 23.988281 10.566406 L 24.003906 9.910156 L 24.074219 8.941406 L 24.113281 7.871094 L 24.125 6.980469 L 24.152344 5.535156 L 24.203125 4.390625 L 24.265625 3.519531 L 24.378906 2.722656 L 24.5 2.226562 L 24.59375 2.039062 L 24.773438 1.960938 L 24.910156 1.933594 L 25.035156 2.03125 L 25.183594 2.179688 L 25.269531 2.394531 L 25.320312 2.753906 L 25.332031 3.273438 L 25.308594 4.136719 L 25.25 5.167969 L 25.15625 6.253906 L 25.070312 7.308594 L 24.964844 8.238281 L 24.863281 8.953125 L 24.832031 9.40625 L 24.75 10.824219 L 24.4375 14.894531 L 24.050781 20.285156 L 23.75 24.113281 L 23.441406 28.570312 L 23.101562 32.914062 L 22.777344 36.976562 L 22.441406 40.507812 L 22.253906 42.058594 L 22.164062 42.664062 L 22.0625 43.152344 L 21.96875 43.441406 L 21.957031 43.523438 L 21.929688 43.582031 Z M 24.417969 7.449219 L 24.46875 7.476562 L 24.578125 7.457031 L 24.699219 7.476562 L 24.734375 7.148438 L 24.800781 6.089844 L 24.894531 4.796875 L 24.933594 3.691406 L 24.960938 3.214844 L 24.945312 3.082031 L 24.824219 3.027344 L 24.683594 3.015625 L 24.601562 3.039062 L 24.570312 3.242188 L 24.585938 3.363281 L 24.5625 3.703125 L 24.511719 4.242188 L 24.460938 4.824219 L 24.4375 5.390625 L 24.421875 6.046875 L 24.402344 6.574219 L 24.394531 7.261719 Z M 24.417969 7.449219 " fill-opacity="1" fill-rule="nonzero"/></g></g></g><g clip-path="url(#e816f04bb9)"><g clip-path="url(#132515f3c7)"><g clip-path="url(#fb41c9862e)"><path fill="#ff914d" d="M 24.847656 1.984375 L 24.78125 2.550781 L 24.78125 2.734375 L 24.839844 2.738281 L 24.9375 2.652344 L 24.941406 2.664062 L 25.003906 3.394531 L 24.949219 4.9375 L 24.90625 5.875 L 24.816406 7.234375 L 24.738281 7.601562 L 24.660156 7.542969 L 24.585938 7.488281 L 24.53125 7.492188 L 24.46875 7.773438 L 24.40625 8.578125 L 24.453125 8.875 L 24.496094 8.835938 L 24.613281 8.550781 L 24.714844 8.097656 L 24.792969 7.746094 L 24.824219 7.472656 L 24.90625 6.890625 L 24.941406 6.285156 L 25.003906 5.640625 L 25.035156 4.878906 L 25.078125 4.230469 L 25.074219 3.660156 L 25.074219 3.214844 L 25.105469 2.679688 L 25.136719 2.332031 L 25.140625 2.160156 L 24.945312 1.96875 L 24.910156 1.921875 Z M 24.847656 1.984375 " fill-opacity="1" fill-rule="nonzero"/></g></g></g><g clip-path="url(#598e2516dc)"><g clip-path="url(#c61c25a3b0)"><g clip-path="url(#dfe9eb9dd5)"><path fill="#ff914d" d="M 24.820312 2.003906 L 24.59375 2.085938 L 24.550781 2.351562 L 24.46875 2.863281 L 24.386719 3.835938 L 24.308594 4.816406 L 24.28125 5.4375 L 24.277344 6.238281 L 24.25 6.941406 L 24.253906 7.511719 L 24.296875 7.839844 L 24.308594 8.074219 L 24.34375 8.300781 L 24.347656 8.609375 L 24.292969 8.761719 L 24.3125 9.050781 L 24.316406 9.519531 L 24.277344 10.394531 L 24.242188 11.136719 L 24.171875 12.296875 L 24.132812 12.84375 L 24.144531 13.183594 L 24.074219 14.183594 L 24.019531 15.121094 L 23.945312 16.046875 L 23.847656 17.738281 L 23.65625 20.0625 L 23.414062 22.859375 L 23.269531 24.703125 L 23.097656 27.058594 L 22.972656 28.816406 L 22.769531 31.179688 L 22.636719 32.699219 L 22.546875 34.015625 L 22.445312 35.355469 L 22.347656 36.914062 L 22.234375 38.03125 L 22.175781 38.707031 L 22.128906 38.882812 L 22.171875 38.015625 L 22.226562 37.222656 L 22.273438 36.558594 L 22.324219 35.78125 L 22.359375 34.996094 L 22.410156 34.195312 L 22.492188 33.453125 L 22.53125 32.503906 L 22.585938 31.589844 L 22.65625 30.621094 L 22.738281 29.515625 L 22.855469 27.804688 L 22.9375 26.652344 L 23.015625 25.441406 L 23.101562 24.195312 L 23.28125 21.898438 L 23.417969 20.101562 L 23.816406 14.71875 L 23.925781 13.089844 L 24.09375 10.542969 L 24.128906 9.539062 L 24.144531 8.648438 L 24.136719 7.953125 L 24.121094 7.378906 L 24.148438 6.675781 L 24.152344 6.058594 L 24.179688 5.175781 L 24.238281 4.324219 L 24.269531 3.746094 L 24.332031 2.984375 L 24.386719 2.605469 L 24.535156 2.183594 L 24.589844 2.03125 L 24.730469 1.964844 Z M 24.820312 2.003906 " fill-opacity="1" fill-rule="nonzero"/></g></g></g><g clip-path="url(#25d9d2c282)"><g clip-path="url(#cbeced3f6a)"><g clip-path="url(#5e00445e61)"><path fill="#ff914d" d="M 11.214844 39.230469 L 11.511719 38.664062 L 11.859375 38.0625 L 12.5625 37.019531 L 13.164062 36.144531 L 13.929688 35.019531 L 15.445312 32.933594 L 16.582031 31.335938 L 19.128906 27.847656 L 20.515625 25.949219 L 23.484375 21.875 L 27.636719 16.15625 L 30.226562 12.582031 L 30.582031 12.039062 L 31.144531 11.261719 L 31.734375 10.382812 L 32.214844 9.636719 L 32.988281 8.4375 L 33.628906 7.5 L 34.136719 6.800781 L 34.648438 6.1875 L 35.007812 5.835938 L 35.183594 5.726562 L 35.375 5.753906 L 35.507812 5.800781 L 35.558594 5.949219 L 35.605469 6.152344 L 35.570312 6.375 L 35.425781 6.707031 L 35.160156 7.148438 L 34.695312 7.863281 L 34.101562 8.699219 L 33.460938 9.566406 L 32.835938 10.40625 L 32.261719 11.132812 L 31.804688 11.683594 L 31.539062 12.046875 L 30.730469 13.195312 L 28.347656 16.457031 L 25.210938 20.792969 L 22.957031 23.855469 L 20.375 27.445312 L 17.820312 30.917969 L 15.429688 34.167969 L 13.304688 36.960938 L 12.335938 38.167969 L 11.945312 38.632812 L 11.605469 38.988281 L 11.375 39.183594 L 11.324219 39.25 L 11.269531 39.277344 L 11.21875 39.230469 Z M 32.214844 10.183594 L 32.242188 10.238281 L 32.34375 10.273438 L 32.4375 10.355469 L 32.636719 10.097656 L 33.246094 9.242188 L 34 8.203125 L 34.609375 7.292969 L 34.878906 6.90625 L 34.933594 6.789062 L 34.863281 6.679688 L 34.75 6.59375 L 34.667969 6.570312 L 34.539062 6.726562 L 34.488281 6.835938 L 34.292969 7.109375 L 33.964844 7.535156 L 33.617188 8 L 33.304688 8.464844 L 32.949219 9.007812 L 32.65625 9.441406 L 32.292969 10.015625 Z M 32.214844 10.183594 " fill-opacity="1" fill-rule="nonzero"/></g></g></g><g clip-path="url(#af6ace68e5)"><g clip-path="url(#b9be1f497e)"><g clip-path="url(#95e9e17cd7)"><path fill="#ff914d" d="M 35.425781 5.8125 L 35.074219 6.257812 L 34.980469 6.410156 L 35.027344 6.445312 L 35.15625 6.421875 L 35.152344 6.433594 L 34.824219 7.082031 L 33.972656 8.351562 L 33.445312 9.117188 L 32.664062 10.214844 L 32.402344 10.480469 L 32.371094 10.394531 L 32.335938 10.304688 L 32.289062 10.28125 L 32.089844 10.484375 L 31.617188 11.128906 L 31.5 11.402344 L 31.558594 11.394531 L 31.804688 11.214844 L 32.128906 10.886719 L 32.375 10.628906 L 32.542969 10.417969 L 32.917969 9.96875 L 33.257812 9.480469 L 33.652344 8.96875 L 34.074219 8.34375 L 34.449219 7.820312 L 34.742188 7.339844 L 34.976562 6.964844 L 35.28125 6.535156 L 35.488281 6.253906 L 35.582031 6.113281 L 35.519531 5.847656 L 35.511719 5.792969 Z M 35.425781 5.8125 " fill-opacity="1" fill-rule="nonzero"/></g></g></g><g clip-path="url(#19607170f0)"><g clip-path="url(#d617612c72)"><g clip-path="url(#c8770e7e0d)"><path fill="#ff914d" d="M 35.394531 5.816406 L 35.160156 5.765625 L 34.984375 5.964844 L 34.648438 6.355469 L 34.074219 7.128906 L 33.496094 7.914062 L 33.148438 8.421875 L 32.726562 9.09375 L 32.339844 9.671875 L 32.042969 10.148438 L 31.910156 10.449219 L 31.796875 10.652344 L 31.707031 10.863281 L 31.550781 11.125 L 31.421875 11.222656 L 31.289062 11.480469 L 31.050781 11.871094 L 30.558594 12.589844 L 30.140625 13.195312 L 29.480469 14.132812 L 29.160156 14.574219 L 28.996094 14.863281 L 28.410156 15.671875 L 27.875 16.433594 L 27.332031 17.167969 L 26.367188 18.542969 L 24.992188 20.398438 L 23.328125 22.625 L 22.246094 24.101562 L 20.871094 25.992188 L 19.847656 27.402344 L 18.445312 29.285156 L 17.542969 30.496094 L 16.78125 31.558594 L 15.996094 32.632812 L 15.101562 33.890625 L 14.421875 34.769531 L 14.019531 35.3125 L 13.890625 35.429688 L 14.378906 34.722656 L 14.835938 34.085938 L 15.222656 33.554688 L 15.671875 32.925781 L 16.109375 32.28125 L 16.570312 31.632812 L 17.027344 31.050781 L 17.558594 30.277344 L 18.078125 29.535156 L 18.640625 28.757812 L 19.289062 27.871094 L 20.28125 26.492188 L 20.953125 25.566406 L 21.644531 24.589844 L 22.371094 23.585938 L 23.71875 21.746094 L 24.769531 20.304688 L 27.914062 15.984375 L 28.855469 14.671875 L 30.328125 12.617188 L 30.882812 11.792969 L 31.359375 11.050781 L 31.714844 10.464844 L 32 9.972656 L 32.390625 9.394531 L 32.714844 8.878906 L 33.199219 8.148438 L 33.695312 7.464844 L 34.019531 6.992188 L 34.472656 6.386719 L 34.71875 6.09375 L 35.058594 5.816406 L 35.1875 5.714844 L 35.335938 5.734375 Z M 35.394531 5.816406 " fill-opacity="1" fill-rule="nonzero"/></g></g></g></svg>