<svg xmlns="http://www.w3.org/2000/svg" xmlns:xlink="http://www.w3.org/1999/xlink" width="500" zoomAndPan="magnify" viewBox="0 0 375 374.999991" height="500" preserveAspectRatio="xMidYMid meet" version="1.0"><defs><g/></defs><g fill="#000000" fill-opacity="1"><g transform="translate(58.389241, 206.660973)"><g><path d="M 81.5 -64.640625 C 81.832031 -64.421875 82.144531 -64.171875 82.4375 -63.890625 C 82.738281 -63.617188 82.960938 -63.269531 83.109375 -62.84375 C 83.273438 -62.363281 83.160156 -61.96875 82.765625 -61.65625 C 82.535156 -61.488281 82.289062 -61.429688 82.03125 -61.484375 C 81.769531 -61.535156 81.566406 -61.6875 81.421875 -61.9375 C 81.023438 -62.65625 80.507812 -63.191406 79.875 -63.546875 C 79.238281 -63.910156 78.5625 -64.207031 77.84375 -64.4375 C 76.269531 -64.96875 74.671875 -65.34375 73.046875 -65.5625 C 71.421875 -65.789062 69.789062 -65.957031 68.15625 -66.0625 C 65.425781 -66.1875 61.863281 -65.976562 57.46875 -65.4375 C 53.082031 -64.90625 48.234375 -64.054688 42.921875 -62.890625 C 37.609375 -61.722656 32.21875 -60.257812 26.75 -58.5 C 21.28125 -56.738281 16.097656 -54.695312 11.203125 -52.375 C 6.316406 -50.0625 2.113281 -47.476562 -1.40625 -44.625 C -4.925781 -41.78125 -7.394531 -38.695312 -8.8125 -35.375 C -9.976562 -32.5 -9.847656 -29.691406 -8.421875 -26.953125 C -7.410156 -25.066406 -6.117188 -23.414062 -4.546875 -22 C -2.222656 -19.863281 0.273438 -17.972656 2.953125 -16.328125 C 5.234375 -14.847656 7.523438 -13.367188 9.828125 -11.890625 C 12.066406 -10.484375 14.3125 -9.039062 16.5625 -7.5625 C 19.082031 -5.914062 21.5625 -4.226562 24 -2.5 C 24.238281 -2.332031 24.476562 -2.179688 24.71875 -2.046875 C 26.03125 -1.160156 27.226562 -0.144531 28.3125 1 C 29.4375 2.34375 29.785156 3.460938 29.359375 4.359375 C 28.941406 5.265625 27.988281 5.988281 26.5 6.53125 C 25.007812 7.070312 23.238281 7.453125 21.1875 7.671875 C 19.132812 7.898438 17.039062 7.976562 14.90625 7.90625 C 12.769531 7.84375 10.859375 7.660156 9.171875 7.359375 C 7.484375 7.066406 6.265625 6.679688 5.515625 6.203125 C 3.992188 5.203125 3.703125 3.921875 4.640625 2.359375 C 5.640625 0.765625 6.976562 -0.492188 8.65625 -1.421875 C 11.0625 -2.835938 13.65625 -3.34375 16.4375 -2.9375 C 16.976562 -2.832031 17.503906 -2.664062 18.015625 -2.4375 C 18.066406 -2.414062 18.113281 -2.394531 18.15625 -2.375 C 18.300781 -2.332031 18.40625 -2.242188 18.46875 -2.109375 C 18.539062 -1.972656 18.546875 -1.816406 18.484375 -1.640625 C 18.304688 -1.347656 18.054688 -1.234375 17.734375 -1.296875 C 17.429688 -1.347656 17.140625 -1.429688 16.859375 -1.546875 C 14.878906 -2.171875 12.96875 -2.054688 11.125 -1.203125 C 9.28125 -0.359375 7.820312 0.957031 6.75 2.75 C 6.300781 3.601562 6.378906 4.273438 6.984375 4.765625 C 7.597656 5.253906 8.472656 5.609375 9.609375 5.828125 C 10.742188 6.054688 11.867188 6.195312 12.984375 6.25 C 14.109375 6.300781 14.941406 6.320312 15.484375 6.3125 C 15.585938 6.300781 15.664062 6.300781 15.71875 6.3125 C 15.820312 6.300781 15.953125 6.296875 16.109375 6.296875 C 16.804688 6.335938 17.765625 6.34375 18.984375 6.3125 C 20.203125 6.289062 21.445312 6.207031 22.71875 6.0625 C 23.988281 5.914062 25.050781 5.65625 25.90625 5.28125 C 26.769531 4.90625 27.207031 4.378906 27.21875 3.703125 C 27.226562 3.023438 26.570312 2.128906 25.25 1.015625 C 23.820312 -0.160156 22.34375 -1.296875 20.8125 -2.390625 C 16.976562 -5.054688 13.070312 -7.609375 9.09375 -10.046875 C 7.675781 -10.960938 6.242188 -11.878906 4.796875 -12.796875 C 2.421875 -14.335938 0.0664062 -15.925781 -2.265625 -17.5625 C -4.421875 -19.0625 -6.382812 -20.78125 -8.15625 -22.71875 C -9.425781 -24.125 -10.414062 -25.703125 -11.125 -27.453125 C -12.21875 -30.328125 -12.113281 -33.164062 -10.8125 -35.96875 C -9.394531 -39.09375 -7.082031 -42.03125 -3.875 -44.78125 C -0.664062 -47.53125 3.160156 -50.054688 7.609375 -52.359375 C 12.054688 -54.660156 16.859375 -56.71875 22.015625 -58.53125 C 27.171875 -60.351562 32.425781 -61.90625 37.78125 -63.1875 C 43.132812 -64.46875 48.304688 -65.445312 53.296875 -66.125 C 58.285156 -66.800781 62.84375 -67.15625 66.96875 -67.1875 C 71.101562 -67.226562 74.554688 -66.90625 77.328125 -66.21875 C 78.773438 -65.90625 80.164062 -65.378906 81.5 -64.640625 Z M 81.5 -64.640625 "/></g></g><g transform="translate(83.964239, 202.506986)"><g><path d="M 11.15625 -10.875 C 11.457031 -10.769531 11.535156 -10.398438 11.390625 -9.765625 C 11.140625 -9.265625 10.851562 -8.789062 10.53125 -8.34375 C 10.207031 -7.90625 9.835938 -7.492188 9.421875 -7.109375 C 9.390625 -7.109375 9.378906 -7.097656 9.390625 -7.078125 C 9.128906 -6.828125 8.835938 -6.597656 8.515625 -6.390625 C 5.921875 -4.941406 4.421875 -5.296875 4.015625 -7.453125 C 3.046875 -6.296875 2.390625 -5.578125 2.046875 -5.296875 C 1.222656 -4.609375 0.269531 -4.210938 -0.8125 -4.109375 C -1.601562 -4.003906 -2.175781 -4.144531 -2.53125 -4.53125 C -2.882812 -4.925781 -2.957031 -5.523438 -2.75 -6.328125 C -2.425781 -7.578125 -1.863281 -8.734375 -1.0625 -9.796875 C -0.132812 -10.992188 0.953125 -12.007812 2.203125 -12.84375 C 2.859375 -13.320312 3.582031 -13.582031 4.375 -13.625 C 5.175781 -13.707031 5.722656 -13.34375 6.015625 -12.53125 C 6.117188 -12.28125 6.09375 -12.039062 5.9375 -11.8125 C 5.71875 -11.539062 5.429688 -11.4375 5.078125 -11.5 C 5.054688 -11.5 5.019531 -11.5 4.96875 -11.5 C 4.925781 -11.507812 4.890625 -11.523438 4.859375 -11.546875 C 4.460938 -11.960938 4.097656 -12.101562 3.765625 -11.96875 C 3.429688 -11.832031 3.09375 -11.613281 2.75 -11.3125 C 1.132812 -9.988281 0.0507812 -8.328125 -0.5 -6.328125 C -0.539062 -6.234375 -0.554688 -6.132812 -0.546875 -6.03125 C -0.546875 -5.9375 -0.503906 -5.863281 -0.421875 -5.8125 C -0.210938 -5.78125 0.0078125 -5.832031 0.25 -5.96875 C 0.488281 -6.113281 0.71875 -6.300781 0.9375 -6.53125 C 1.164062 -6.769531 1.359375 -6.960938 1.515625 -7.109375 C 1.535156 -7.148438 1.546875 -7.171875 1.546875 -7.171875 C 2.273438 -8.015625 2.984375 -8.875 3.671875 -9.75 C 3.960938 -10.1875 4.378906 -10.472656 4.921875 -10.609375 C 5.679688 -10.734375 6.046875 -10.445312 6.015625 -9.75 C 5.992188 -9.476562 5.960938 -9.207031 5.921875 -8.9375 C 5.796875 -7.789062 5.890625 -7.144531 6.203125 -7 C 6.515625 -6.851562 6.9375 -6.921875 7.46875 -7.203125 C 8.007812 -7.492188 8.523438 -7.953125 9.015625 -8.578125 C 9.503906 -9.210938 9.910156 -9.78125 10.234375 -10.28125 C 10.554688 -10.789062 10.863281 -10.988281 11.15625 -10.875 Z M 11.15625 -10.875 "/></g></g><g transform="translate(95.467783, 200.638538)"><g><path d="M 12.328125 -10.890625 C 12.554688 -10.691406 12.394531 -10.234375 11.84375 -9.515625 C 11.300781 -8.804688 10.695312 -8.179688 10.03125 -7.640625 C 9.375 -7.109375 8.597656 -6.550781 7.703125 -5.96875 C 7.117188 -5.582031 6.460938 -5.378906 5.734375 -5.359375 C 5.003906 -5.335938 4.570312 -5.710938 4.4375 -6.484375 C 4.3125 -7.265625 4.363281 -8.0625 4.59375 -8.875 C 4.820312 -9.726562 4.832031 -10.144531 4.625 -10.125 C 4.425781 -10.113281 4.039062 -9.859375 3.46875 -9.359375 C 1.988281 -8.003906 0.65625 -6.515625 -0.53125 -4.890625 C -0.84375 -4.367188 -1.289062 -4.03125 -1.875 -3.875 C -2.175781 -3.832031 -2.425781 -3.890625 -2.625 -4.046875 C -2.820312 -4.210938 -2.875 -4.414062 -2.78125 -4.65625 C -2.070312 -6.695312 -1.347656 -8.726562 -0.609375 -10.75 C -0.429688 -11.164062 -0.117188 -11.457031 0.328125 -11.625 C 0.515625 -11.6875 0.703125 -11.65625 0.890625 -11.53125 C 1.085938 -11.40625 1.203125 -11.242188 1.234375 -11.046875 C 1.242188 -10.847656 1.207031 -10.613281 1.125 -10.34375 C 1.082031 -10.1875 1.046875 -10.035156 1.015625 -9.890625 C 0.992188 -9.742188 1 -9.625 1.03125 -9.53125 C 1.0625 -9.4375 1.140625 -9.414062 1.265625 -9.46875 C 1.421875 -9.59375 1.570312 -9.722656 1.71875 -9.859375 C 2.125 -10.191406 2.507812 -10.507812 2.875 -10.8125 C 3.195312 -11.0625 3.539062 -11.300781 3.90625 -11.53125 C 4.28125 -11.757812 4.675781 -11.9375 5.09375 -12.0625 C 5.78125 -12.21875 6.296875 -12.140625 6.640625 -11.828125 C 6.992188 -11.523438 7.113281 -11.035156 7 -10.359375 C 6.851562 -9.742188 6.703125 -9.128906 6.546875 -8.515625 C 6.316406 -7.941406 6.328125 -7.53125 6.578125 -7.28125 C 6.828125 -7.039062 7.738281 -7.519531 9.3125 -8.71875 L 10.5 -9.671875 C 11.601562 -10.660156 12.210938 -11.066406 12.328125 -10.890625 Z M 12.328125 -10.890625 "/></g></g><g transform="translate(108.185879, 198.572817)"><g><path d="M 1.390625 -15.328125 C 1.066406 -14.878906 0.757812 -14.640625 0.46875 -14.609375 C 0.175781 -14.578125 0.0390625 -14.890625 0.0625 -15.546875 C 0.09375 -16.515625 0.375 -17.4375 0.90625 -18.3125 C 1.019531 -18.457031 1.160156 -18.554688 1.328125 -18.609375 C 1.503906 -18.660156 1.679688 -18.671875 1.859375 -18.640625 C 1.953125 -18.585938 2.046875 -18.519531 2.140625 -18.4375 C 2.234375 -18.363281 2.285156 -18.285156 2.296875 -18.203125 C 2.316406 -17.148438 2.015625 -16.191406 1.390625 -15.328125 Z M 6.59375 -10.265625 C 6.675781 -10.273438 6.75 -10.269531 6.8125 -10.25 C 6.882812 -10.226562 6.941406 -10.1875 6.984375 -10.125 C 6.992188 -10.082031 6.988281 -10.019531 6.96875 -9.9375 C 6.957031 -9.863281 6.925781 -9.789062 6.875 -9.71875 C 6.625 -9.4375 6.359375 -9.175781 6.078125 -8.9375 C 5.554688 -8.5 5.03125 -8.050781 4.5 -7.59375 C 3.164062 -6.425781 1.804688 -5.3125 0.421875 -4.25 C -0.660156 -3.425781 -1.332031 -2.378906 -1.59375 -1.109375 C -2.21875 1.453125 -2.898438 4 -3.640625 6.53125 C -3.953125 7.707031 -4.3125 8.859375 -4.71875 9.984375 C -5.132812 11.117188 -5.644531 12.238281 -6.25 13.34375 C -7.414062 15.488281 -9.125 16.894531 -11.375 17.5625 C -13.207031 18.101562 -15.039062 18.285156 -16.875 18.109375 C -18.332031 17.960938 -19.726562 17.613281 -21.0625 17.0625 C -21.550781 16.832031 -22.015625 16.570312 -22.453125 16.28125 C -24.472656 14.96875 -24.546875 13.269531 -22.671875 11.1875 C -22.046875 10.519531 -21.378906 9.898438 -20.671875 9.328125 C -19.523438 8.410156 -18.363281 7.546875 -17.1875 6.734375 C -15.695312 5.679688 -14.210938 4.644531 -12.734375 3.625 C -10.265625 1.925781 -7.820312 0.234375 -5.40625 -1.453125 C -4.9375 -1.796875 -4.550781 -2.070312 -4.25 -2.28125 C -3.8125 -2.550781 -3.503906 -2.769531 -3.328125 -2.9375 C -3.160156 -3.113281 -3.023438 -3.3125 -2.921875 -3.53125 C -2.828125 -3.75 -2.726562 -4.097656 -2.625 -4.578125 C -2.5625 -4.953125 -2.429688 -5.453125 -2.234375 -6.078125 C -1.960938 -7.128906 -1.710938 -8.160156 -1.484375 -9.171875 C -1.316406 -9.910156 -1.15625 -10.640625 -1 -11.359375 C -0.875 -11.804688 -0.695312 -12.222656 -0.46875 -12.609375 C -0.25 -12.941406 0.0664062 -13.046875 0.484375 -12.921875 C 0.785156 -12.816406 0.925781 -12.597656 0.90625 -12.265625 C 0.851562 -11.953125 0.742188 -11.398438 0.578125 -10.609375 C 0.453125 -9.941406 0.328125 -9.242188 0.203125 -8.515625 C 0.078125 -7.785156 -0.015625 -7.160156 -0.078125 -6.640625 C -0.140625 -6.117188 -0.140625 -5.816406 -0.078125 -5.734375 C -0.00390625 -5.671875 0.148438 -5.71875 0.390625 -5.875 C 0.640625 -6.03125 1.046875 -6.320312 1.609375 -6.75 C 1.628906 -6.757812 1.640625 -6.765625 1.640625 -6.765625 C 2.535156 -7.453125 3.40625 -8.140625 4.25 -8.828125 C 4.582031 -9.078125 4.90625 -9.351562 5.21875 -9.65625 C 5.238281 -9.65625 5.25 -9.65625 5.25 -9.65625 C 5.457031 -9.820312 5.664062 -9.96875 5.875 -10.09375 C 6.09375 -10.21875 6.332031 -10.273438 6.59375 -10.265625 Z M -3.84375 0.203125 C -3.75 -0.0976562 -3.796875 -0.367188 -3.984375 -0.609375 C -4.285156 -0.578125 -4.546875 -0.445312 -4.765625 -0.21875 C -4.828125 -0.1875 -4.890625 -0.15625 -4.953125 -0.125 C -5.941406 0.5625 -6.925781 1.242188 -7.90625 1.921875 C -10.5 3.703125 -13.070312 5.476562 -15.625 7.25 C -17.03125 8.257812 -18.425781 9.328125 -19.8125 10.453125 C -20.394531 10.941406 -20.921875 11.476562 -21.390625 12.0625 C -22.316406 13.207031 -22.296875 14.15625 -21.328125 14.90625 C -21.109375 15.113281 -20.882812 15.28125 -20.65625 15.40625 C -19.476562 16.007812 -18.253906 16.429688 -16.984375 16.671875 C -15.710938 16.910156 -14.394531 16.9375 -13.03125 16.75 C -11.03125 16.414062 -9.46875 15.328125 -8.34375 13.484375 C -7.582031 12.222656 -6.984375 10.910156 -6.546875 9.546875 C -5.898438 7.359375 -5.269531 5.148438 -4.65625 2.921875 C -4.382812 2.015625 -4.113281 1.109375 -3.84375 0.203125 Z M -3.84375 0.203125 "/></g></g><g transform="translate(115.247633, 197.425821)"><g><path d="M 11.15625 -10.875 C 11.457031 -10.769531 11.535156 -10.398438 11.390625 -9.765625 C 11.140625 -9.265625 10.851562 -8.789062 10.53125 -8.34375 C 10.207031 -7.90625 9.835938 -7.492188 9.421875 -7.109375 C 9.390625 -7.109375 9.378906 -7.097656 9.390625 -7.078125 C 9.128906 -6.828125 8.835938 -6.597656 8.515625 -6.390625 C 5.921875 -4.941406 4.421875 -5.296875 4.015625 -7.453125 C 3.046875 -6.296875 2.390625 -5.578125 2.046875 -5.296875 C 1.222656 -4.609375 0.269531 -4.210938 -0.8125 -4.109375 C -1.601562 -4.003906 -2.175781 -4.144531 -2.53125 -4.53125 C -2.882812 -4.925781 -2.957031 -5.523438 -2.75 -6.328125 C -2.425781 -7.578125 -1.863281 -8.734375 -1.0625 -9.796875 C -0.132812 -10.992188 0.953125 -12.007812 2.203125 -12.84375 C 2.859375 -13.320312 3.582031 -13.582031 4.375 -13.625 C 5.175781 -13.707031 5.722656 -13.34375 6.015625 -12.53125 C 6.117188 -12.28125 6.09375 -12.039062 5.9375 -11.8125 C 5.71875 -11.539062 5.429688 -11.4375 5.078125 -11.5 C 5.054688 -11.5 5.019531 -11.5 4.96875 -11.5 C 4.925781 -11.507812 4.890625 -11.523438 4.859375 -11.546875 C 4.460938 -11.960938 4.097656 -12.101562 3.765625 -11.96875 C 3.429688 -11.832031 3.09375 -11.613281 2.75 -11.3125 C 1.132812 -9.988281 0.0507812 -8.328125 -0.5 -6.328125 C -0.539062 -6.234375 -0.554688 -6.132812 -0.546875 -6.03125 C -0.546875 -5.9375 -0.503906 -5.863281 -0.421875 -5.8125 C -0.210938 -5.78125 0.0078125 -5.832031 0.25 -5.96875 C 0.488281 -6.113281 0.71875 -6.300781 0.9375 -6.53125 C 1.164062 -6.769531 1.359375 -6.960938 1.515625 -7.109375 C 1.535156 -7.148438 1.546875 -7.171875 1.546875 -7.171875 C 2.273438 -8.015625 2.984375 -8.875 3.671875 -9.75 C 3.960938 -10.1875 4.378906 -10.472656 4.921875 -10.609375 C 5.679688 -10.734375 6.046875 -10.445312 6.015625 -9.75 C 5.992188 -9.476562 5.960938 -9.207031 5.921875 -8.9375 C 5.796875 -7.789062 5.890625 -7.144531 6.203125 -7 C 6.515625 -6.851562 6.9375 -6.921875 7.46875 -7.203125 C 8.007812 -7.492188 8.523438 -7.953125 9.015625 -8.578125 C 9.503906 -9.210938 9.910156 -9.78125 10.234375 -10.28125 C 10.554688 -10.789062 10.863281 -10.988281 11.15625 -10.875 Z M 11.15625 -10.875 "/></g></g><g transform="translate(126.751177, 195.557373)"><g/></g><g transform="translate(139.86834, 193.426834)"><g><path d="M 69.359375 -54.25 C 69.304688 -54.007812 69.253906 -53.78125 69.203125 -53.5625 C 68.734375 -51.320312 68.203125 -49.113281 67.609375 -46.9375 C 64.410156 -36.09375 60.796875 -25.523438 56.765625 -15.234375 C 55.441406 -11.921875 54.078125 -8.644531 52.671875 -5.40625 C 51.273438 -2.164062 49.851562 1.054688 48.40625 4.265625 C 48.070312 5.023438 47.722656 5.78125 47.359375 6.53125 C 47.347656 6.59375 47.332031 6.640625 47.3125 6.671875 C 47.238281 6.898438 47.144531 7.09375 47.03125 7.25 C 46.914062 7.414062 46.742188 7.515625 46.515625 7.546875 C 46.410156 7.566406 46.289062 7.5625 46.15625 7.53125 C 46.03125 7.5 45.929688 7.445312 45.859375 7.375 C 45.796875 7.3125 45.738281 7.203125 45.6875 7.046875 C 45.632812 6.890625 45.628906 6.765625 45.671875 6.671875 C 45.859375 5.953125 46.097656 5.257812 46.390625 4.59375 C 47.023438 3.050781 47.660156 1.515625 48.296875 -0.015625 C 49.503906 -2.890625 50.679688 -5.765625 51.828125 -8.640625 C 54.367188 -15.023438 56.738281 -21.515625 58.9375 -28.109375 C 61.132812 -34.703125 63.242188 -41.34375 65.265625 -48.03125 C 66.097656 -50.625 66.6875 -53.347656 67.03125 -56.203125 C 67.113281 -56.703125 67.15625 -57.210938 67.15625 -57.734375 C 67.15625 -58.253906 67.109375 -58.785156 67.015625 -59.328125 C 66.742188 -60.492188 66.164062 -60.925781 65.28125 -60.625 C 64.507812 -60.320312 63.789062 -59.945312 63.125 -59.5 C 61.5625 -58.40625 60.035156 -57.222656 58.546875 -55.953125 C 50.535156 -49.117188 43.523438 -41.113281 37.515625 -31.9375 C 37.429688 -31.789062 37.332031 -31.644531 37.21875 -31.5 C 35.15625 -28.351562 33.109375 -25.179688 31.078125 -21.984375 C 29.046875 -18.796875 27.101562 -15.535156 25.25 -12.203125 C 24.863281 -11.503906 24.445312 -10.851562 24 -10.25 C 23.53125 -9.5625 22.894531 -9.21875 22.09375 -9.21875 C 21.738281 -9.207031 21.429688 -9.328125 21.171875 -9.578125 C 20.910156 -9.828125 20.78125 -10.144531 20.78125 -10.53125 C 20.757812 -11.601562 20.820312 -12.648438 20.96875 -13.671875 C 21.40625 -16.890625 21.90625 -20.085938 22.46875 -23.265625 C 22.539062 -23.742188 22.609375 -24.207031 22.671875 -24.65625 C 22.765625 -25.8125 22.988281 -26.910156 23.34375 -27.953125 C 23.34375 -27.972656 23.332031 -27.984375 23.3125 -27.984375 C 23.164062 -28.035156 23.023438 -28.070312 22.890625 -28.09375 C 22.753906 -28.113281 22.640625 -28.046875 22.546875 -27.890625 C 22.148438 -27.316406 21.785156 -26.71875 21.453125 -26.09375 C 18.703125 -20.75 16 -15.375 13.34375 -9.96875 C 10.695312 -4.5625 8.132812 0.910156 5.65625 6.453125 C 5.457031 6.984375 5.210938 7.429688 4.921875 7.796875 C 4.628906 8.160156 4.191406 8.335938 3.609375 8.328125 C 3.335938 8.296875 3.113281 8.164062 2.9375 7.9375 C 2.769531 7.71875 2.707031 7.488281 2.75 7.25 C 2.925781 6.519531 3.148438 5.816406 3.421875 5.140625 C 4.148438 3.222656 4.867188 1.300781 5.578125 -0.625 C 7.023438 -4.4375 8.441406 -8.253906 9.828125 -12.078125 C 12.015625 -17.972656 13.820312 -24.085938 15.25 -30.421875 C 15.800781 -32.867188 16.171875 -35.398438 16.359375 -38.015625 C 16.460938 -39.410156 16.367188 -40.835938 16.078125 -42.296875 C 15.554688 -44.609375 14.507812 -46.148438 12.9375 -46.921875 C 11.375 -47.703125 9.457031 -47.878906 7.1875 -47.453125 C 4.925781 -47.023438 2.476562 -46.144531 -0.15625 -44.8125 C -2.789062 -43.488281 -5.445312 -41.867188 -8.125 -39.953125 C -10.800781 -38.035156 -13.351562 -35.976562 -15.78125 -33.78125 C -18.207031 -31.59375 -20.328125 -29.4375 -22.140625 -27.3125 C -23.960938 -25.1875 -25.335938 -23.238281 -26.265625 -21.46875 C -27.222656 -19.53125 -27.96875 -17.445312 -28.5 -15.21875 C -28.769531 -14.164062 -28.84375 -13.046875 -28.71875 -11.859375 C -28.707031 -11.628906 -28.796875 -11.4375 -28.984375 -11.28125 C -29.179688 -11.132812 -29.410156 -11.066406 -29.671875 -11.078125 C -30.097656 -11.128906 -30.40625 -11.398438 -30.59375 -11.890625 C -30.757812 -12.554688 -30.804688 -13.179688 -30.734375 -13.765625 C -30.578125 -15.222656 -30.28125 -16.625 -29.84375 -17.96875 C -29.019531 -20.363281 -27.601562 -22.890625 -25.59375 -25.546875 C -23.582031 -28.210938 -21.160156 -30.847656 -18.328125 -33.453125 C -15.492188 -36.054688 -12.488281 -38.453125 -9.3125 -40.640625 C -6.144531 -42.835938 -2.988281 -44.65625 0.15625 -46.09375 C 3.3125 -47.539062 6.21875 -48.429688 8.875 -48.765625 C 11.539062 -49.097656 13.742188 -48.710938 15.484375 -47.609375 C 17.234375 -46.503906 18.320312 -44.484375 18.75 -41.546875 C 18.96875 -39.648438 18.96875 -37.8125 18.75 -36.03125 C 18.414062 -33.414062 17.953125 -30.859375 17.359375 -28.359375 C 16.773438 -25.867188 16.117188 -23.421875 15.390625 -21.015625 C 15.160156 -20.273438 15.144531 -19.925781 15.34375 -19.96875 C 15.539062 -20.019531 15.785156 -20.328125 16.078125 -20.890625 C 17.148438 -22.953125 18.234375 -24.984375 19.328125 -26.984375 C 20.066406 -28.328125 20.828125 -29.65625 21.609375 -30.96875 C 21.710938 -31.132812 21.816406 -31.304688 21.921875 -31.484375 C 22.367188 -32.242188 22.960938 -32.8125 23.703125 -33.1875 C 24.273438 -33.40625 24.789062 -33.347656 25.25 -33.015625 C 25.71875 -32.691406 25.960938 -32.128906 25.984375 -31.328125 C 25.972656 -31.234375 25.960938 -31.148438 25.953125 -31.078125 C 25.898438 -30.023438 25.8125 -28.992188 25.6875 -27.984375 C 25.320312 -25.515625 24.941406 -23.054688 24.546875 -20.609375 C 24.359375 -19.367188 24.171875 -18.101562 23.984375 -16.8125 C 23.929688 -16.625 23.863281 -16.285156 23.78125 -15.796875 C 23.707031 -15.367188 23.628906 -14.945312 23.546875 -14.53125 C 23.472656 -14.113281 23.414062 -13.796875 23.375 -13.578125 C 23.46875 -13.679688 24.238281 -14.890625 25.6875 -17.203125 C 27.65625 -20.378906 29.988281 -24.09375 32.6875 -28.34375 C 35.394531 -32.601562 37.53125 -35.875 39.09375 -38.15625 C 42.007812 -42.226562 45.160156 -46.007812 48.546875 -49.5 C 51.941406 -53 55.519531 -56.25 59.28125 -59.25 C 60.207031 -59.957031 61.171875 -60.609375 62.171875 -61.203125 C 62.398438 -61.328125 62.609375 -61.457031 62.796875 -61.59375 C 63.753906 -62.15625 64.820312 -62.484375 66 -62.578125 C 68.21875 -62.722656 69.441406 -61.5 69.671875 -58.90625 C 69.804688 -57.289062 69.703125 -55.738281 69.359375 -54.25 Z M 23.203125 -28.078125 C 23.273438 -28.035156 23.320312 -28.003906 23.34375 -27.984375 C 23.34375 -27.984375 23.34375 -27.972656 23.34375 -27.953125 C 23.363281 -27.960938 23.375 -27.976562 23.375 -28 C 23.332031 -28.007812 23.273438 -28.035156 23.203125 -28.078125 Z M 23.203125 -28.078125 "/></g></g><g transform="translate(205.263297, 182.805141)"><g><path d="M 5.6875 -8.4375 C 5.195312 -7.601562 4.578125 -6.8125 3.828125 -6.0625 C 3.085938 -5.3125 2.203125 -4.742188 1.171875 -4.359375 C 0.148438 -3.972656 -0.679688 -3.914062 -1.328125 -4.1875 C -1.984375 -4.457031 -2.234375 -5.257812 -2.078125 -6.59375 C -1.835938 -7.988281 -1.40625 -9.347656 -0.78125 -10.671875 C -0.632812 -10.960938 -0.398438 -11.1875 -0.078125 -11.34375 C 0.160156 -11.4375 0.390625 -11.425781 0.609375 -11.3125 C 0.828125 -11.195312 0.929688 -11.023438 0.921875 -10.796875 C 0.816406 -10.347656 0.691406 -9.898438 0.546875 -9.453125 C 0.410156 -9.003906 0.320312 -8.710938 0.28125 -8.578125 C -0.0195312 -7.765625 -0.179688 -6.941406 -0.203125 -6.109375 C -0.128906 -5.648438 0.488281 -5.722656 1.65625 -6.328125 C 2.820312 -6.929688 3.90625 -7.867188 4.90625 -9.140625 C 5.90625 -10.410156 6.410156 -10.816406 6.421875 -10.359375 C 6.429688 -9.910156 6.1875 -9.269531 5.6875 -8.4375 Z M 1.75 -13.75 C 1.6875 -13.6875 1.566406 -13.609375 1.390625 -13.515625 C 1.222656 -13.429688 1.039062 -13.351562 0.84375 -13.28125 C 0.65625 -13.21875 0.492188 -13.222656 0.359375 -13.296875 C 0.234375 -13.378906 0.203125 -13.566406 0.265625 -13.859375 C 0.378906 -14.367188 0.503906 -14.820312 0.640625 -15.21875 C 0.773438 -15.625 0.972656 -16.078125 1.234375 -16.578125 C 1.410156 -16.796875 1.617188 -16.929688 1.859375 -16.984375 C 2.097656 -17.035156 2.3125 -17.003906 2.5 -16.890625 C 2.6875 -16.785156 2.765625 -16.601562 2.734375 -16.34375 C 2.617188 -15.375 2.289062 -14.507812 1.75 -13.75 Z M 1.75 -13.75 "/></g></g><g transform="translate(212.030088, 181.706054)"><g><path d="M 7.0625 -9.640625 C 7.375 -10.085938 7.65625 -10.351562 7.90625 -10.4375 C 8.15625 -10.519531 8.328125 -10.503906 8.421875 -10.390625 C 8.523438 -10.285156 8.503906 -10.109375 8.359375 -9.859375 C 7.535156 -8.460938 6.566406 -7.21875 5.453125 -6.125 C 4.335938 -5.03125 3.125 -4.300781 1.8125 -3.9375 C 0.5 -3.582031 -0.425781 -4.179688 -0.96875 -5.734375 C -1.4375 -7.285156 -1 -10.671875 0.34375 -15.890625 C 1.6875 -21.109375 2.71875 -25.367188 3.4375 -28.671875 C 3.5 -28.972656 3.617188 -29.242188 3.796875 -29.484375 C 4.023438 -29.804688 4.34375 -29.921875 4.75 -29.828125 C 4.894531 -29.785156 5.039062 -29.710938 5.1875 -29.609375 C 5.332031 -29.515625 5.410156 -29.296875 5.421875 -28.953125 C 2.054688 -15.085938 0.550781 -7.601562 0.90625 -6.5 C 1.257812 -5.394531 2.035156 -5.234375 3.234375 -6.015625 C 4.429688 -6.804688 5.332031 -7.554688 5.9375 -8.265625 C 6.539062 -8.972656 6.914062 -9.429688 7.0625 -9.640625 Z M 7.0625 -9.640625 "/></g></g><g transform="translate(220.688109, 180.299786)"><g><path d="M 11.15625 -10.875 C 11.457031 -10.769531 11.535156 -10.398438 11.390625 -9.765625 C 11.140625 -9.265625 10.851562 -8.789062 10.53125 -8.34375 C 10.207031 -7.90625 9.835938 -7.492188 9.421875 -7.109375 C 9.390625 -7.109375 9.378906 -7.097656 9.390625 -7.078125 C 9.128906 -6.828125 8.835938 -6.597656 8.515625 -6.390625 C 5.921875 -4.941406 4.421875 -5.296875 4.015625 -7.453125 C 3.046875 -6.296875 2.390625 -5.578125 2.046875 -5.296875 C 1.222656 -4.609375 0.269531 -4.210938 -0.8125 -4.109375 C -1.601562 -4.003906 -2.175781 -4.144531 -2.53125 -4.53125 C -2.882812 -4.925781 -2.957031 -5.523438 -2.75 -6.328125 C -2.425781 -7.578125 -1.863281 -8.734375 -1.0625 -9.796875 C -0.132812 -10.992188 0.953125 -12.007812 2.203125 -12.84375 C 2.859375 -13.320312 3.582031 -13.582031 4.375 -13.625 C 5.175781 -13.707031 5.722656 -13.34375 6.015625 -12.53125 C 6.117188 -12.28125 6.09375 -12.039062 5.9375 -11.8125 C 5.71875 -11.539062 5.429688 -11.4375 5.078125 -11.5 C 5.054688 -11.5 5.019531 -11.5 4.96875 -11.5 C 4.925781 -11.507812 4.890625 -11.523438 4.859375 -11.546875 C 4.460938 -11.960938 4.097656 -12.101562 3.765625 -11.96875 C 3.429688 -11.832031 3.09375 -11.613281 2.75 -11.3125 C 1.132812 -9.988281 0.0507812 -8.328125 -0.5 -6.328125 C -0.539062 -6.234375 -0.554688 -6.132812 -0.546875 -6.03125 C -0.546875 -5.9375 -0.503906 -5.863281 -0.421875 -5.8125 C -0.210938 -5.78125 0.0078125 -5.832031 0.25 -5.96875 C 0.488281 -6.113281 0.71875 -6.300781 0.9375 -6.53125 C 1.164062 -6.769531 1.359375 -6.960938 1.515625 -7.109375 C 1.535156 -7.148438 1.546875 -7.171875 1.546875 -7.171875 C 2.273438 -8.015625 2.984375 -8.875 3.671875 -9.75 C 3.960938 -10.1875 4.378906 -10.472656 4.921875 -10.609375 C 5.679688 -10.734375 6.046875 -10.445312 6.015625 -9.75 C 5.992188 -9.476562 5.960938 -9.207031 5.921875 -8.9375 C 5.796875 -7.789062 5.890625 -7.144531 6.203125 -7 C 6.515625 -6.851562 6.9375 -6.921875 7.46875 -7.203125 C 8.007812 -7.492188 8.523438 -7.953125 9.015625 -8.578125 C 9.503906 -9.210938 9.910156 -9.78125 10.234375 -10.28125 C 10.554688 -10.789062 10.863281 -10.988281 11.15625 -10.875 Z M 11.15625 -10.875 "/></g></g><g transform="translate(232.191653, 178.431337)"><g><path d="M 12.328125 -10.890625 C 12.554688 -10.691406 12.394531 -10.234375 11.84375 -9.515625 C 11.300781 -8.804688 10.695312 -8.179688 10.03125 -7.640625 C 9.375 -7.109375 8.597656 -6.550781 7.703125 -5.96875 C 7.117188 -5.582031 6.460938 -5.378906 5.734375 -5.359375 C 5.003906 -5.335938 4.570312 -5.710938 4.4375 -6.484375 C 4.3125 -7.265625 4.363281 -8.0625 4.59375 -8.875 C 4.820312 -9.726562 4.832031 -10.144531 4.625 -10.125 C 4.425781 -10.113281 4.039062 -9.859375 3.46875 -9.359375 C 1.988281 -8.003906 0.65625 -6.515625 -0.53125 -4.890625 C -0.84375 -4.367188 -1.289062 -4.03125 -1.875 -3.875 C -2.175781 -3.832031 -2.425781 -3.890625 -2.625 -4.046875 C -2.820312 -4.210938 -2.875 -4.414062 -2.78125 -4.65625 C -2.070312 -6.695312 -1.347656 -8.726562 -0.609375 -10.75 C -0.429688 -11.164062 -0.117188 -11.457031 0.328125 -11.625 C 0.515625 -11.6875 0.703125 -11.65625 0.890625 -11.53125 C 1.085938 -11.40625 1.203125 -11.242188 1.234375 -11.046875 C 1.242188 -10.847656 1.207031 -10.613281 1.125 -10.34375 C 1.082031 -10.1875 1.046875 -10.035156 1.015625 -9.890625 C 0.992188 -9.742188 1 -9.625 1.03125 -9.53125 C 1.0625 -9.4375 1.140625 -9.414062 1.265625 -9.46875 C 1.421875 -9.59375 1.570312 -9.722656 1.71875 -9.859375 C 2.125 -10.191406 2.507812 -10.507812 2.875 -10.8125 C 3.195312 -11.0625 3.539062 -11.300781 3.90625 -11.53125 C 4.28125 -11.757812 4.675781 -11.9375 5.09375 -12.0625 C 5.78125 -12.21875 6.296875 -12.140625 6.640625 -11.828125 C 6.992188 -11.523438 7.113281 -11.035156 7 -10.359375 C 6.851562 -9.742188 6.703125 -9.128906 6.546875 -8.515625 C 6.316406 -7.941406 6.328125 -7.53125 6.578125 -7.28125 C 6.828125 -7.039062 7.738281 -7.519531 9.3125 -8.71875 L 10.5 -9.671875 C 11.601562 -10.660156 12.210938 -11.066406 12.328125 -10.890625 Z M 12.328125 -10.890625 "/></g></g><g transform="translate(244.90975, 176.365617)"><g><path d="M 2.09375 -4.578125 L 2.046875 -4.5625 C 0.359375 -4.3125 -0.804688 -4.503906 -1.453125 -5.140625 C -2.109375 -5.773438 -2.242188 -6.738281 -1.859375 -8.03125 C -1.523438 -9.019531 -1.039062 -9.914062 -0.40625 -10.71875 C -0.1875 -10.988281 0.0390625 -11.21875 0.28125 -11.40625 C 0.53125 -11.59375 0.820312 -11.710938 1.15625 -11.765625 C 1.34375 -11.828125 1.570312 -11.832031 1.84375 -11.78125 C 1.925781 -11.757812 2.015625 -11.742188 2.109375 -11.734375 C 2.285156 -11.796875 2.460938 -11.882812 2.640625 -12 C 2.679688 -12.039062 2.742188 -12.082031 2.828125 -12.125 C 3.179688 -12.34375 3.570312 -12.46875 4 -12.5 C 4.175781 -12.53125 4.359375 -12.5625 4.546875 -12.59375 C 5.253906 -12.59375 5.816406 -12.390625 6.234375 -11.984375 C 6.648438 -11.578125 6.863281 -11.03125 6.875 -10.34375 C 6.875 -9.925781 6.800781 -9.523438 6.65625 -9.140625 C 5.726562 -6.535156 4.242188 -5.019531 2.203125 -4.59375 Z M 3.828125 -11.203125 C 2.910156 -11.097656 2.140625 -10.707031 1.515625 -10.03125 C 0.890625 -9.363281 0.460938 -8.632812 0.234375 -7.84375 C 0.00390625 -7.0625 0.00390625 -6.445312 0.234375 -6 C 0.472656 -5.5625 0.984375 -5.503906 1.765625 -5.828125 C 2.628906 -6.265625 3.347656 -6.921875 3.921875 -7.796875 C 4.503906 -8.671875 4.8125 -9.460938 4.84375 -10.171875 C 4.882812 -10.878906 4.546875 -11.222656 3.828125 -11.203125 Z M 3.828125 -11.203125 "/></g></g><g transform="translate(254.122995, 174.869167)"><g><path d="M 8.703125 -16.40625 C 8.640625 -16.132812 8.550781 -15.867188 8.4375 -15.609375 C 7.039062 -12.253906 5.359375 -9.066406 3.390625 -6.046875 C 3.128906 -5.617188 2.832031 -5.21875 2.5 -4.84375 C 2.1875 -4.550781 1.835938 -4.3125 1.453125 -4.125 C 0.347656 -3.75 -0.390625 -4.101562 -0.765625 -5.1875 C -0.929688 -5.875 -1.039062 -6.5625 -1.09375 -7.25 C -1.144531 -7.570312 -1.195312 -7.878906 -1.25 -8.171875 C -1.25 -8.171875 -1.234375 -8.171875 -1.203125 -8.171875 C -1.234375 -8.378906 -1.265625 -8.582031 -1.296875 -8.78125 C -1.378906 -9.289062 -1.460938 -9.796875 -1.546875 -10.296875 C -1.585938 -10.578125 -1.625 -10.867188 -1.65625 -11.171875 C -1.625 -11.828125 -1.359375 -12.207031 -0.859375 -12.3125 C -0.304688 -12.375 0.0625 -12.03125 0.25 -11.28125 C 0.28125 -11.070312 0.289062 -10.878906 0.28125 -10.703125 C 0.289062 -10.515625 0.304688 -10.34375 0.328125 -10.1875 C 0.472656 -9.0625 0.625 -7.925781 0.78125 -6.78125 C 0.820312 -6.519531 0.957031 -6.382812 1.1875 -6.375 C 1.269531 -6.382812 1.335938 -6.410156 1.390625 -6.453125 C 1.453125 -6.503906 1.5 -6.5625 1.53125 -6.625 C 2.082031 -7.519531 2.613281 -8.414062 3.125 -9.3125 C 3.320312 -9.65625 3.523438 -10 3.734375 -10.34375 C 3.953125 -10.75 4.175781 -11.132812 4.40625 -11.5 C 5.269531 -13.0625 6.148438 -14.609375 7.046875 -16.140625 C 7.140625 -16.335938 7.257812 -16.507812 7.40625 -16.65625 C 7.5625 -16.8125 7.765625 -16.910156 8.015625 -16.953125 C 8.234375 -16.960938 8.429688 -16.914062 8.609375 -16.8125 C 8.660156 -16.769531 8.691406 -16.707031 8.703125 -16.625 C 8.710938 -16.550781 8.710938 -16.476562 8.703125 -16.40625 Z M 8.703125 -16.40625 "/></g></g><g transform="translate(263.353592, 173.369899)"><g><path d="M 5.6875 -8.4375 C 5.195312 -7.601562 4.578125 -6.8125 3.828125 -6.0625 C 3.085938 -5.3125 2.203125 -4.742188 1.171875 -4.359375 C 0.148438 -3.972656 -0.679688 -3.914062 -1.328125 -4.1875 C -1.984375 -4.457031 -2.234375 -5.257812 -2.078125 -6.59375 C -1.835938 -7.988281 -1.40625 -9.347656 -0.78125 -10.671875 C -0.632812 -10.960938 -0.398438 -11.1875 -0.078125 -11.34375 C 0.160156 -11.4375 0.390625 -11.425781 0.609375 -11.3125 C 0.828125 -11.195312 0.929688 -11.023438 0.921875 -10.796875 C 0.816406 -10.347656 0.691406 -9.898438 0.546875 -9.453125 C 0.410156 -9.003906 0.320312 -8.710938 0.28125 -8.578125 C -0.0195312 -7.765625 -0.179688 -6.941406 -0.203125 -6.109375 C -0.128906 -5.648438 0.488281 -5.722656 1.65625 -6.328125 C 2.820312 -6.929688 3.90625 -7.867188 4.90625 -9.140625 C 5.90625 -10.410156 6.410156 -10.816406 6.421875 -10.359375 C 6.429688 -9.910156 6.1875 -9.269531 5.6875 -8.4375 Z M 1.75 -13.75 C 1.6875 -13.6875 1.566406 -13.609375 1.390625 -13.515625 C 1.222656 -13.429688 1.039062 -13.351562 0.84375 -13.28125 C 0.65625 -13.21875 0.492188 -13.222656 0.359375 -13.296875 C 0.234375 -13.378906 0.203125 -13.566406 0.265625 -13.859375 C 0.378906 -14.367188 0.503906 -14.820312 0.640625 -15.21875 C 0.773438 -15.625 0.972656 -16.078125 1.234375 -16.578125 C 1.410156 -16.796875 1.617188 -16.929688 1.859375 -16.984375 C 2.097656 -17.035156 2.3125 -17.003906 2.5 -16.890625 C 2.6875 -16.785156 2.765625 -16.601562 2.734375 -16.34375 C 2.617188 -15.375 2.289062 -14.507812 1.75 -13.75 Z M 1.75 -13.75 "/></g></g><g transform="translate(270.120382, 172.270812)"><g><path d="M 11.046875 -11.0625 C 11.097656 -11.070312 11.160156 -11.066406 11.234375 -11.046875 C 11.316406 -11.035156 11.390625 -11.015625 11.453125 -10.984375 C 11.640625 -10.859375 11.679688 -10.675781 11.578125 -10.4375 C 11.453125 -10.238281 11.328125 -10.066406 11.203125 -9.921875 C 10.441406 -8.953125 9.5625 -8.101562 8.5625 -7.375 C 6.988281 -6.226562 5.175781 -5.472656 3.125 -5.109375 C 2.375 -4.960938 1.566406 -4.96875 0.703125 -5.125 C -0.867188 -5.445312 -1.644531 -6.414062 -1.625 -8.03125 C -1.53125 -9.53125 -0.910156 -10.863281 0.234375 -12.03125 C 1.378906 -13.195312 2.703125 -13.832031 4.203125 -13.9375 C 4.472656 -13.945312 4.757812 -13.929688 5.0625 -13.890625 C 5.332031 -13.828125 5.546875 -13.703125 5.703125 -13.515625 C 5.867188 -13.335938 5.914062 -13.175781 5.84375 -13.03125 C 5.601562 -12.6875 5.289062 -12.5625 4.90625 -12.65625 C 4.332031 -12.800781 3.832031 -12.785156 3.40625 -12.609375 C 2.976562 -12.429688 2.578125 -12.113281 2.203125 -11.65625 C 1.804688 -11.25 1.40625 -10.6875 1 -9.96875 C 0.59375 -9.257812 0.375 -8.566406 0.34375 -7.890625 C 0.3125 -7.210938 0.6875 -6.734375 1.46875 -6.453125 C 2.332031 -6.222656 3.175781 -6.269531 4 -6.59375 C 6.019531 -7.363281 7.84375 -8.476562 9.46875 -9.9375 C 9.625 -10.050781 9.753906 -10.171875 9.859375 -10.296875 C 10.023438 -10.484375 10.203125 -10.640625 10.390625 -10.765625 C 10.578125 -10.890625 10.796875 -10.988281 11.046875 -11.0625 Z M 11.046875 -11.0625 "/></g></g><g transform="translate(281.693329, 170.391091)"><g><path d="M 3.46875 -5.09375 C 4.070312 -5.3125 4.421875 -5.132812 4.515625 -4.5625 C 4.648438 -4.039062 4.6875 -3.492188 4.625 -2.921875 C 4.539062 -2.421875 4.394531 -1.960938 4.1875 -1.546875 C 3.988281 -1.140625 3.738281 -0.75 3.4375 -0.375 C 3.269531 -0.175781 3.09375 -0.0507812 2.90625 0 C 2.71875 0.0390625 2.539062 0.0195312 2.375 -0.0625 C 2.15625 -0.15625 2.195312 -0.378906 2.5 -0.734375 C 3.039062 -1.796875 3.132812 -2.566406 2.78125 -3.046875 C 2.4375 -3.523438 2.367188 -3.945312 2.578125 -4.3125 C 2.785156 -4.6875 3.082031 -4.945312 3.46875 -5.09375 Z M 3.46875 -5.09375 "/></g></g></g><g fill="#000000" fill-opacity="1"><g transform="translate(288.59893, 169.269457)"><g/></g></g><g fill="#000000" fill-opacity="1"><g transform="translate(142.910839, 250.679635)"><g><path d="M 13.921875 -11.625 C 14.179688 -11.601562 14.328125 -11.535156 14.359375 -11.421875 C 14.390625 -11.316406 14.40625 -11.265625 14.40625 -11.265625 C 14.195312 -10.722656 13.953125 -10.222656 13.671875 -9.765625 C 12.992188 -8.722656 12.148438 -7.84375 11.140625 -7.125 C 10.671875 -6.726562 10.09375 -6.46875 9.40625 -6.34375 C 7.875 -6.070312 7.046875 -6.707031 6.921875 -8.25 C 6.929688 -8.59375 6.957031 -8.921875 7 -9.234375 C 7.03125 -9.398438 7.046875 -9.554688 7.046875 -9.703125 C 7.109375 -10.285156 7.101562 -10.601562 7.03125 -10.65625 C 6.957031 -10.71875 6.800781 -10.53125 6.5625 -10.09375 C 6.488281 -10.019531 6.421875 -9.9375 6.359375 -9.84375 C 5.992188 -9.207031 5.613281 -8.582031 5.21875 -7.96875 C 4.488281 -6.800781 3.601562 -5.78125 2.5625 -4.90625 C 1.945312 -4.382812 1.257812 -4.054688 0.5 -3.921875 C -0.738281 -3.648438 -1.53125 -4.101562 -1.875 -5.28125 C -2.007812 -5.769531 -2.066406 -6.253906 -2.046875 -6.734375 C -1.847656 -8.785156 -1.070312 -10.445312 0.28125 -11.71875 C 1.644531 -13 3.332031 -13.65625 5.34375 -13.6875 C 5.925781 -13.601562 6.3125 -13.8125 6.5 -14.3125 C 6.570312 -14.507812 6.644531 -14.707031 6.71875 -14.90625 C 7.101562 -15.914062 7.472656 -16.914062 7.828125 -17.90625 C 8.503906 -19.820312 9.179688 -21.75 9.859375 -23.6875 C 10.429688 -25.207031 10.988281 -26.742188 11.53125 -28.296875 C 11.707031 -28.773438 11.894531 -29.238281 12.09375 -29.6875 C 12.1875 -29.90625 12.328125 -30.050781 12.515625 -30.125 C 12.703125 -30.195312 12.898438 -30.253906 13.109375 -30.296875 C 13.148438 -30.296875 13.203125 -30.300781 13.265625 -30.3125 C 13.492188 -30.351562 13.679688 -30.320312 13.828125 -30.21875 C 13.984375 -30.125 14.046875 -29.976562 14.015625 -29.78125 C 13.941406 -29.269531 13.832031 -28.773438 13.6875 -28.296875 C 12.96875 -25.992188 12.316406 -23.675781 11.734375 -21.34375 C 11.148438 -19.007812 10.582031 -16.664062 10.03125 -14.3125 C 9.832031 -13.5 9.644531 -12.6875 9.46875 -11.875 C 9.226562 -10.914062 9.054688 -9.945312 8.953125 -8.96875 C 8.921875 -8.75 8.921875 -8.535156 8.953125 -8.328125 C 8.984375 -8.128906 9.113281 -7.976562 9.34375 -7.875 C 9.476562 -7.800781 9.609375 -7.800781 9.734375 -7.875 C 9.867188 -7.957031 10.015625 -8.046875 10.171875 -8.140625 C 10.191406 -8.179688 10.21875 -8.210938 10.25 -8.234375 C 11.25 -9.046875 12.132812 -9.976562 12.90625 -11.03125 C 13.03125 -11.195312 13.164062 -11.34375 13.3125 -11.46875 C 13.457031 -11.601562 13.660156 -11.65625 13.921875 -11.625 Z M 5.15625 -11.359375 C 5.257812 -11.585938 5.269531 -11.789062 5.1875 -11.96875 C 5.101562 -12.15625 4.953125 -12.28125 4.734375 -12.34375 C 4.265625 -12.507812 3.800781 -12.460938 3.34375 -12.203125 C 2.207031 -11.648438 1.316406 -10.800781 0.671875 -9.65625 C 0.0351562 -8.519531 -0.21875 -7.34375 -0.09375 -6.125 C -0.0507812 -6.082031 -0.03125 -6.046875 -0.03125 -6.015625 C -0.0078125 -5.910156 0.00390625 -5.804688 0.015625 -5.703125 C 0.210938 -5.160156 0.570312 -5.101562 1.09375 -5.53125 C 1.625 -5.96875 2.1875 -6.628906 2.78125 -7.515625 C 3.382812 -8.398438 3.914062 -9.234375 4.375 -10.015625 C 4.832031 -10.804688 5.09375 -11.253906 5.15625 -11.359375 Z M 5.15625 -11.359375 "/></g></g><g transform="translate(157.416062, 248.323642)"><g><path d="M 6.59375 -12 C 6.625 -11.1875 6.332031 -10.609375 5.71875 -10.265625 C 5.113281 -9.921875 4.851562 -10.203125 4.9375 -11.109375 C 5.019531 -12.023438 4.585938 -12.1875 3.640625 -11.59375 C 2.691406 -11 1.945312 -10.3125 1.40625 -9.53125 C 0.550781 -8.332031 -0.171875 -7.066406 -0.765625 -5.734375 C -0.835938 -5.609375 -0.890625 -5.507812 -0.921875 -5.4375 C -1.097656 -5.070312 -1.273438 -4.710938 -1.453125 -4.359375 C -1.566406 -4.128906 -1.722656 -3.972656 -1.921875 -3.890625 C -2.117188 -3.816406 -2.320312 -3.773438 -2.53125 -3.765625 C -2.738281 -3.765625 -2.90625 -3.816406 -3.03125 -3.921875 C -3.15625 -4.023438 -3.1875 -4.171875 -3.125 -4.359375 C -3.050781 -4.703125 -2.953125 -5.046875 -2.828125 -5.390625 C -2.109375 -7.492188 -1.367188 -9.601562 -0.609375 -11.71875 C -0.585938 -11.738281 -0.582031 -11.765625 -0.59375 -11.796875 C -0.476562 -12.128906 -0.34375 -12.441406 -0.1875 -12.734375 C 0.0078125 -13.015625 0.257812 -13.15625 0.5625 -13.15625 C 0.863281 -13.15625 1.09375 -13.015625 1.25 -12.734375 C 1.445312 -12.347656 1.597656 -12.132812 1.703125 -12.09375 C 1.804688 -12.050781 2.003906 -12.125 2.296875 -12.3125 C 2.960938 -12.6875 3.613281 -12.976562 4.25 -13.1875 C 4.894531 -13.394531 5.441406 -13.453125 5.890625 -13.359375 C 6.335938 -13.265625 6.570312 -12.8125 6.59375 -12 Z M 6.59375 -12 "/></g></g><g transform="translate(166.091435, 246.914556)"><g><path d="M 2.640625 -4.65625 C 3.585938 -4.8125 3.992188 -4.410156 3.859375 -3.453125 C 3.804688 -3.066406 3.722656 -2.707031 3.609375 -2.375 C 3.492188 -2.070312 3.304688 -1.851562 3.046875 -1.71875 C 2.785156 -1.582031 2.488281 -1.554688 2.15625 -1.640625 C 1.875 -1.703125 1.703125 -1.851562 1.640625 -2.09375 C 1.554688 -2.5 1.5 -2.921875 1.46875 -3.359375 C 1.4375 -4.128906 1.828125 -4.5625 2.640625 -4.65625 Z M 2.640625 -4.65625 "/></g></g><g transform="translate(172.73677, 245.835196)"><g/></g><g transform="translate(185.853934, 243.704657)"><g><path d="M 16.734375 -11.65625 C 17.085938 -11.957031 17.390625 -12.066406 17.640625 -11.984375 C 17.898438 -11.898438 17.875 -11.523438 17.5625 -10.859375 C 17.15625 -10.097656 16.359375 -9.222656 15.171875 -8.234375 C 13.992188 -7.242188 12.894531 -6.710938 11.875 -6.640625 C 10.851562 -6.578125 10.4375 -7.273438 10.625 -8.734375 C 10.820312 -10.203125 10.925781 -11.019531 10.9375 -11.1875 C 10.945312 -11.363281 10.898438 -11.453125 10.796875 -11.453125 C 10.691406 -11.460938 10.476562 -11.3125 10.15625 -11 C 9.238281 -10.113281 8.347656 -9.191406 7.484375 -8.234375 C 7.097656 -7.859375 6.726562 -7.453125 6.375 -7.015625 C 6.15625 -6.742188 5.929688 -6.472656 5.703125 -6.203125 C 5.703125 -6.203125 5.691406 -6.1875 5.671875 -6.15625 C 5.421875 -5.8125 5.078125 -5.546875 4.640625 -5.359375 C 4.460938 -5.273438 4.257812 -5.222656 4.03125 -5.203125 C 3.8125 -5.179688 3.609375 -5.238281 3.421875 -5.375 C 3.234375 -5.519531 3.144531 -5.6875 3.15625 -5.875 C 3.175781 -6.070312 3.273438 -6.378906 3.453125 -6.796875 C 3.640625 -7.222656 3.835938 -7.6875 4.046875 -8.1875 C 4.265625 -8.695312 4.382812 -9.003906 4.40625 -9.109375 C 4.425781 -9.222656 4.394531 -9.328125 4.3125 -9.421875 C 4.207031 -9.515625 4.109375 -9.535156 4.015625 -9.484375 C 3.929688 -9.429688 3.601562 -9.125 3.03125 -8.5625 C 2.46875 -8 1.707031 -7.21875 0.75 -6.21875 C 0.300781 -5.75 -0.125 -5.269531 -0.53125 -4.78125 C -0.644531 -4.632812 -0.769531 -4.5 -0.90625 -4.375 C -1.207031 -4.019531 -1.578125 -3.796875 -2.015625 -3.703125 C -2.304688 -3.628906 -2.546875 -3.660156 -2.734375 -3.796875 C -2.921875 -3.929688 -2.976562 -4.148438 -2.90625 -4.453125 C -2.875 -4.671875 -2.820312 -4.867188 -2.75 -5.046875 C -2.695312 -5.140625 -2.671875 -5.226562 -2.671875 -5.3125 C -2.054688 -7.3125 -1.453125 -9.320312 -0.859375 -11.34375 C -0.847656 -11.382812 -0.835938 -11.445312 -0.828125 -11.53125 C -0.742188 -11.738281 -0.664062 -11.945312 -0.59375 -12.15625 C -0.363281 -12.5 -0.0507812 -12.648438 0.34375 -12.609375 C 0.800781 -12.554688 1.007812 -12.328125 0.96875 -11.921875 C 0.851562 -11.304688 0.742188 -10.703125 0.640625 -10.109375 C 0.578125 -9.835938 0.515625 -9.566406 0.453125 -9.296875 C 0.359375 -8.816406 0.347656 -8.515625 0.421875 -8.390625 C 0.503906 -8.273438 0.78125 -8.410156 1.25 -8.796875 C 1.550781 -9.097656 1.851562 -9.382812 2.15625 -9.65625 C 2.507812 -10 2.863281 -10.320312 3.21875 -10.625 C 3.738281 -11.070312 4.285156 -11.476562 4.859375 -11.84375 C 5.140625 -12.007812 5.429688 -12.148438 5.734375 -12.265625 C 6.046875 -12.378906 6.359375 -12.359375 6.671875 -12.203125 C 6.910156 -12.054688 7.03125 -11.867188 7.03125 -11.640625 C 7.039062 -11.421875 7.015625 -11.203125 6.953125 -10.984375 C 6.859375 -10.578125 6.832031 -10.328125 6.875 -10.234375 C 6.914062 -10.140625 7.007812 -10.132812 7.15625 -10.21875 C 7.300781 -10.3125 7.546875 -10.503906 7.890625 -10.796875 C 8.234375 -11.085938 8.601562 -11.40625 9 -11.75 C 9.488281 -12.195312 10.015625 -12.640625 10.578125 -13.078125 C 11.035156 -13.484375 11.546875 -13.769531 12.109375 -13.9375 C 12.898438 -14.125 13.28125 -13.851562 13.25 -13.125 C 13.21875 -12.40625 13.070312 -11.523438 12.8125 -10.484375 C 12.550781 -9.453125 12.601562 -8.851562 12.96875 -8.6875 C 13.34375 -8.53125 14.023438 -8.953125 15.015625 -9.953125 C 16.015625 -10.953125 16.585938 -11.519531 16.734375 -11.65625 Z M 16.734375 -11.65625 "/></g></g><g transform="translate(204.211022, 240.72303)"><g><path d="M 8.8125 -8.265625 C 8.25 -7.492188 7.5625 -6.800781 6.75 -6.1875 C 5.9375 -5.582031 5.238281 -5.160156 4.65625 -4.921875 C 4.070312 -4.679688 3.46875 -4.492188 2.84375 -4.359375 C 1.820312 -4.148438 0.859375 -4.132812 -0.046875 -4.3125 C -1.546875 -4.664062 -2.207031 -5.675781 -2.03125 -7.34375 C -1.851562 -8.78125 -1.207031 -9.984375 -0.09375 -10.953125 C 1.019531 -11.921875 2.238281 -12.503906 3.5625 -12.703125 C 3.5625 -12.703125 3.570312 -12.703125 3.59375 -12.703125 C 3.925781 -12.785156 4.253906 -12.816406 4.578125 -12.796875 C 5.109375 -12.691406 5.476562 -12.441406 5.6875 -12.046875 C 5.894531 -11.660156 5.878906 -11.1875 5.640625 -10.625 C 5.078125 -9.375 4.171875 -8.585938 2.921875 -8.265625 C 2.085938 -8.046875 1.265625 -7.957031 0.453125 -8 C 0.304688 -7.988281 0.179688 -7.921875 0.078125 -7.796875 C -0.0234375 -7.679688 -0.078125 -7.539062 -0.078125 -7.375 C -0.148438 -6.34375 0.257812 -5.757812 1.15625 -5.625 C 2.257812 -5.425781 3.34375 -5.601562 4.40625 -6.15625 C 5.632812 -6.769531 6.738281 -7.726562 7.71875 -9.03125 C 8.707031 -10.34375 9.296875 -10.972656 9.484375 -10.921875 C 9.679688 -10.878906 9.773438 -10.675781 9.765625 -10.3125 C 9.691406 -9.71875 9.375 -9.035156 8.8125 -8.265625 Z M 0.96875 -9.859375 C 0.90625 -9.765625 0.867188 -9.664062 0.859375 -9.5625 C 0.847656 -9.457031 0.898438 -9.378906 1.015625 -9.328125 C 1.453125 -9.160156 1.898438 -9.144531 2.359375 -9.28125 C 2.828125 -9.425781 3.203125 -9.671875 3.484375 -10.015625 C 3.773438 -10.367188 3.859375 -10.75 3.734375 -11.15625 C 3.679688 -11.3125 3.585938 -11.398438 3.453125 -11.421875 C 3.316406 -11.441406 3.191406 -11.425781 3.078125 -11.375 C 2.234375 -11.082031 1.53125 -10.578125 0.96875 -9.859375 Z M 0.96875 -9.859375 "/></g></g><g transform="translate(214.309156, 239.082854)"><g><path d="M 13.921875 -11.625 C 14.179688 -11.601562 14.328125 -11.535156 14.359375 -11.421875 C 14.390625 -11.316406 14.40625 -11.265625 14.40625 -11.265625 C 14.195312 -10.722656 13.953125 -10.222656 13.671875 -9.765625 C 12.992188 -8.722656 12.148438 -7.84375 11.140625 -7.125 C 10.671875 -6.726562 10.09375 -6.46875 9.40625 -6.34375 C 7.875 -6.070312 7.046875 -6.707031 6.921875 -8.25 C 6.929688 -8.59375 6.957031 -8.921875 7 -9.234375 C 7.03125 -9.398438 7.046875 -9.554688 7.046875 -9.703125 C 7.109375 -10.285156 7.101562 -10.601562 7.03125 -10.65625 C 6.957031 -10.71875 6.800781 -10.53125 6.5625 -10.09375 C 6.488281 -10.019531 6.421875 -9.9375 6.359375 -9.84375 C 5.992188 -9.207031 5.613281 -8.582031 5.21875 -7.96875 C 4.488281 -6.800781 3.601562 -5.78125 2.5625 -4.90625 C 1.945312 -4.382812 1.257812 -4.054688 0.5 -3.921875 C -0.738281 -3.648438 -1.53125 -4.101562 -1.875 -5.28125 C -2.007812 -5.769531 -2.066406 -6.253906 -2.046875 -6.734375 C -1.847656 -8.785156 -1.070312 -10.445312 0.28125 -11.71875 C 1.644531 -13 3.332031 -13.65625 5.34375 -13.6875 C 5.925781 -13.601562 6.3125 -13.8125 6.5 -14.3125 C 6.570312 -14.507812 6.644531 -14.707031 6.71875 -14.90625 C 7.101562 -15.914062 7.472656 -16.914062 7.828125 -17.90625 C 8.503906 -19.820312 9.179688 -21.75 9.859375 -23.6875 C 10.429688 -25.207031 10.988281 -26.742188 11.53125 -28.296875 C 11.707031 -28.773438 11.894531 -29.238281 12.09375 -29.6875 C 12.1875 -29.90625 12.328125 -30.050781 12.515625 -30.125 C 12.703125 -30.195312 12.898438 -30.253906 13.109375 -30.296875 C 13.148438 -30.296875 13.203125 -30.300781 13.265625 -30.3125 C 13.492188 -30.351562 13.679688 -30.320312 13.828125 -30.21875 C 13.984375 -30.125 14.046875 -29.976562 14.015625 -29.78125 C 13.941406 -29.269531 13.832031 -28.773438 13.6875 -28.296875 C 12.96875 -25.992188 12.316406 -23.675781 11.734375 -21.34375 C 11.148438 -19.007812 10.582031 -16.664062 10.03125 -14.3125 C 9.832031 -13.5 9.644531 -12.6875 9.46875 -11.875 C 9.226562 -10.914062 9.054688 -9.945312 8.953125 -8.96875 C 8.921875 -8.75 8.921875 -8.535156 8.953125 -8.328125 C 8.984375 -8.128906 9.113281 -7.976562 9.34375 -7.875 C 9.476562 -7.800781 9.609375 -7.800781 9.734375 -7.875 C 9.867188 -7.957031 10.015625 -8.046875 10.171875 -8.140625 C 10.191406 -8.179688 10.21875 -8.210938 10.25 -8.234375 C 11.25 -9.046875 12.132812 -9.976562 12.90625 -11.03125 C 13.03125 -11.195312 13.164062 -11.34375 13.3125 -11.46875 C 13.457031 -11.601562 13.660156 -11.65625 13.921875 -11.625 Z M 5.15625 -11.359375 C 5.257812 -11.585938 5.269531 -11.789062 5.1875 -11.96875 C 5.101562 -12.15625 4.953125 -12.28125 4.734375 -12.34375 C 4.265625 -12.507812 3.800781 -12.460938 3.34375 -12.203125 C 2.207031 -11.648438 1.316406 -10.800781 0.671875 -9.65625 C 0.0351562 -8.519531 -0.21875 -7.34375 -0.09375 -6.125 C -0.0507812 -6.082031 -0.03125 -6.046875 -0.03125 -6.015625 C -0.0078125 -5.910156 0.00390625 -5.804688 0.015625 -5.703125 C 0.210938 -5.160156 0.570312 -5.101562 1.09375 -5.53125 C 1.625 -5.96875 2.1875 -6.628906 2.78125 -7.515625 C 3.382812 -8.398438 3.914062 -9.234375 4.375 -10.015625 C 4.832031 -10.804688 5.09375 -11.253906 5.15625 -11.359375 Z M 5.15625 -11.359375 "/></g></g><g transform="translate(228.814379, 236.726862)"><g><path d="M 2.640625 -4.65625 C 3.585938 -4.8125 3.992188 -4.410156 3.859375 -3.453125 C 3.804688 -3.066406 3.722656 -2.707031 3.609375 -2.375 C 3.492188 -2.070312 3.304688 -1.851562 3.046875 -1.71875 C 2.785156 -1.582031 2.488281 -1.554688 2.15625 -1.640625 C 1.875 -1.703125 1.703125 -1.851562 1.640625 -2.09375 C 1.554688 -2.5 1.5 -2.921875 1.46875 -3.359375 C 1.4375 -4.128906 1.828125 -4.5625 2.640625 -4.65625 Z M 2.640625 -4.65625 "/></g></g></g><path stroke-linecap="butt" transform="matrix(0.479897, -0.576367, 0.576367, 0.479897, 271.541499, 155.118887)" fill="none" stroke-linejoin="miter" d="M 0.447357 2.625665 C 4.783514 0.458856 9.121431 0.45934 13.453772 2.626445 " stroke="#000000" stroke-width="2" stroke-opacity="1" stroke-miterlimit="4"/></svg>