<svg xmlns="http://www.w3.org/2000/svg" xmlns:xlink="http://www.w3.org/1999/xlink" width="100" zoomAndPan="magnify" viewBox="0 0 75 74.999997" height="100" preserveAspectRatio="xMidYMid meet" version="1.0"><defs><g/></defs><g fill="#000000" fill-opacity="1"><g transform="translate(0.0000015, 51.767132)"><g><path d="M 14.6875 -27.390625 C 16.207031 -27.390625 17.707031 -27.21875 19.1875 -26.875 C 20.675781 -26.53125 21.785156 -26.179688 22.515625 -25.828125 L 23.609375 -25.3125 L 20.59375 -19.296875 C 18.519531 -20.398438 16.550781 -20.953125 14.6875 -20.953125 C 13.644531 -20.953125 12.90625 -20.835938 12.46875 -20.609375 C 12.039062 -20.390625 11.828125 -19.96875 11.828125 -19.34375 C 11.828125 -19.207031 11.84375 -19.070312 11.875 -18.9375 C 11.914062 -18.800781 11.988281 -18.671875 12.09375 -18.546875 C 12.195312 -18.421875 12.289062 -18.316406 12.375 -18.234375 C 12.457031 -18.148438 12.601562 -18.054688 12.8125 -17.953125 C 13.019531 -17.847656 13.179688 -17.769531 13.296875 -17.71875 C 13.421875 -17.664062 13.617188 -17.585938 13.890625 -17.484375 C 14.171875 -17.378906 14.378906 -17.300781 14.515625 -17.25 C 14.660156 -17.195312 14.894531 -17.117188 15.21875 -17.015625 C 15.550781 -16.910156 15.804688 -16.84375 15.984375 -16.8125 C 17.046875 -16.5 17.972656 -16.148438 18.765625 -15.765625 C 19.566406 -15.390625 20.410156 -14.875 21.296875 -14.21875 C 22.179688 -13.5625 22.863281 -12.726562 23.34375 -11.71875 C 23.820312 -10.71875 24.0625 -9.578125 24.0625 -8.296875 C 24.0625 -2.242188 19.863281 0.78125 11.46875 0.78125 C 9.5625 0.78125 7.75 0.488281 6.03125 -0.09375 C 4.320312 -0.6875 3.085938 -1.28125 2.328125 -1.875 L 1.1875 -2.796875 L 4.921875 -9.078125 C 5.203125 -8.835938 5.566406 -8.550781 6.015625 -8.21875 C 6.460938 -7.894531 7.273438 -7.445312 8.453125 -6.875 C 9.628906 -6.300781 10.648438 -6.015625 11.515625 -6.015625 C 13.421875 -6.015625 14.375 -6.65625 14.375 -7.9375 C 14.375 -8.519531 14.128906 -8.972656 13.640625 -9.296875 C 13.160156 -9.628906 12.335938 -10.003906 11.171875 -10.421875 C 10.015625 -10.835938 9.109375 -11.21875 8.453125 -11.5625 C 6.796875 -12.425781 5.484375 -13.40625 4.515625 -14.5 C 3.546875 -15.59375 3.0625 -17.035156 3.0625 -18.828125 C 3.0625 -21.523438 4.109375 -23.625 6.203125 -25.125 C 8.296875 -26.632812 11.125 -27.390625 14.6875 -27.390625 Z M 14.6875 -27.390625 "/></g></g></g><g fill="#000000" fill-opacity="1"><g transform="translate(22.931198, 51.767132)"><g><path d="M 3.109375 0 L 3.109375 -26.609375 L 12.296875 -26.609375 L 12.296875 -23.8125 L 12.390625 -23.8125 C 14.785156 -26.195312 17.332031 -27.390625 20.03125 -27.390625 C 21.957031 -27.390625 23.769531 -26.988281 25.46875 -26.1875 C 27.164062 -25.394531 28.445312 -24.171875 29.3125 -22.515625 C 32.007812 -25.765625 34.945312 -27.390625 38.125 -27.390625 C 40.957031 -27.390625 43.394531 -26.59375 45.4375 -25 C 47.476562 -23.414062 48.5 -20.925781 48.5 -17.53125 L 48.5 0 L 39.328125 0 L 39.328125 -15.046875 C 39.328125 -16.460938 38.9375 -17.644531 38.15625 -18.59375 C 37.375 -19.550781 36.207031 -20.03125 34.65625 -20.03125 C 33.300781 -20.03125 32.269531 -19.617188 31.5625 -18.796875 C 30.851562 -17.984375 30.46875 -17.007812 30.40625 -15.875 L 30.40625 0 L 21.21875 0 L 21.21875 -15.046875 C 21.21875 -16.460938 20.828125 -17.644531 20.046875 -18.59375 C 19.265625 -19.550781 18.097656 -20.03125 16.546875 -20.03125 C 15.128906 -20.03125 14.066406 -19.585938 13.359375 -18.703125 C 12.648438 -17.816406 12.296875 -16.769531 12.296875 -15.5625 L 12.296875 0 Z M 3.109375 0 "/></g></g></g></svg>