<svg xmlns="http://www.w3.org/2000/svg" xmlns:xlink="http://www.w3.org/1999/xlink" width="400" zoomAndPan="magnify" viewBox="0 0 300 60" height="80" preserveAspectRatio="xMidYMid meet" version="1.0"><defs><g/></defs><g fill="#000000" fill-opacity="1"><g transform="translate(25.056345, 36.919607)"><g><path d="M 10.3125 -19.25 C 11.382812 -19.25 12.441406 -19.125 13.484375 -18.875 C 14.535156 -18.632812 15.316406 -18.394531 15.828125 -18.15625 L 16.59375 -17.796875 L 14.46875 -13.5625 C 13.007812 -14.34375 11.625 -14.734375 10.3125 -14.734375 C 9.582031 -14.734375 9.066406 -14.648438 8.765625 -14.484375 C 8.460938 -14.328125 8.3125 -14.03125 8.3125 -13.59375 C 8.3125 -13.5 8.320312 -13.398438 8.34375 -13.296875 C 8.375 -13.203125 8.425781 -13.113281 8.5 -13.03125 C 8.570312 -12.945312 8.632812 -12.875 8.6875 -12.8125 C 8.75 -12.75 8.851562 -12.679688 9 -12.609375 C 9.144531 -12.535156 9.257812 -12.476562 9.34375 -12.4375 C 9.4375 -12.40625 9.578125 -12.351562 9.765625 -12.28125 C 9.960938 -12.207031 10.109375 -12.148438 10.203125 -12.109375 C 10.304688 -12.078125 10.472656 -12.023438 10.703125 -11.953125 C 10.929688 -11.878906 11.109375 -11.832031 11.234375 -11.8125 C 11.984375 -11.59375 12.632812 -11.347656 13.1875 -11.078125 C 13.75 -10.816406 14.335938 -10.453125 14.953125 -9.984375 C 15.578125 -9.523438 16.0625 -8.941406 16.40625 -8.234375 C 16.75 -7.535156 16.921875 -6.734375 16.921875 -5.828125 C 16.921875 -1.578125 13.96875 0.546875 8.0625 0.546875 C 6.71875 0.546875 5.441406 0.34375 4.234375 -0.0625 C 3.035156 -0.476562 2.171875 -0.894531 1.640625 -1.3125 L 0.84375 -1.96875 L 3.46875 -6.375 C 3.65625 -6.207031 3.90625 -6.007812 4.21875 -5.78125 C 4.539062 -5.550781 5.113281 -5.234375 5.9375 -4.828125 C 6.769531 -4.429688 7.488281 -4.234375 8.09375 -4.234375 C 9.425781 -4.234375 10.09375 -4.679688 10.09375 -5.578125 C 10.09375 -5.992188 9.921875 -6.316406 9.578125 -6.546875 C 9.242188 -6.773438 8.671875 -7.035156 7.859375 -7.328125 C 7.046875 -7.617188 6.40625 -7.882812 5.9375 -8.125 C 4.769531 -8.738281 3.847656 -9.425781 3.171875 -10.1875 C 2.492188 -10.957031 2.15625 -11.972656 2.15625 -13.234375 C 2.15625 -15.128906 2.890625 -16.601562 4.359375 -17.65625 C 5.828125 -18.71875 7.8125 -19.25 10.3125 -19.25 Z M 10.3125 -19.25 "/></g></g></g><g fill="#000000" fill-opacity="1"><g transform="translate(39.558497, 36.919607)"><g><path d="M 3.46875 -2.3125 C 1.71875 -4.21875 0.84375 -6.554688 0.84375 -9.328125 C 0.84375 -12.097656 1.71875 -14.441406 3.46875 -16.359375 C 5.21875 -18.285156 7.441406 -19.25 10.140625 -19.25 C 12.617188 -19.25 14.660156 -18.472656 16.265625 -16.921875 L 16.265625 -18.703125 L 22.703125 -18.703125 L 22.703125 0 L 16.328125 0 L 16.328125 -2.109375 L 16.265625 -2.109375 C 14.660156 -0.335938 12.617188 0.546875 10.140625 0.546875 C 7.441406 0.546875 5.21875 -0.40625 3.46875 -2.3125 Z M 8.9375 -12.5 C 8.101562 -11.675781 7.6875 -10.617188 7.6875 -9.328125 C 7.6875 -8.046875 8.085938 -6.992188 8.890625 -6.171875 C 9.691406 -5.359375 10.75 -4.953125 12.0625 -4.953125 C 13.332031 -4.953125 14.375 -5.363281 15.1875 -6.1875 C 16 -7.019531 16.40625 -8.066406 16.40625 -9.328125 C 16.40625 -10.617188 15.984375 -11.675781 15.140625 -12.5 C 14.304688 -13.332031 13.28125 -13.75 12.0625 -13.75 C 10.820312 -13.75 9.78125 -13.332031 8.9375 -12.5 Z M 8.9375 -12.5 "/></g></g></g><g fill="#000000" fill-opacity="1"><g transform="translate(61.020702, 36.919607)"><g><path d="M 2.1875 0 L 2.1875 -18.703125 L 8.640625 -18.703125 L 8.640625 -16.734375 L 8.71875 -16.734375 C 10.394531 -18.410156 12.179688 -19.25 14.078125 -19.25 C 14.992188 -19.25 15.90625 -19.125 16.8125 -18.875 C 17.726562 -18.632812 18.601562 -18.257812 19.4375 -17.75 C 20.28125 -17.238281 20.960938 -16.515625 21.484375 -15.578125 C 22.003906 -14.648438 22.265625 -13.566406 22.265625 -12.328125 L 22.265625 0 L 15.828125 0 L 15.828125 -10.578125 C 15.828125 -11.546875 15.515625 -12.394531 14.890625 -13.125 C 14.273438 -13.851562 13.46875 -14.21875 12.46875 -14.21875 C 11.5 -14.21875 10.617188 -13.835938 9.828125 -13.078125 C 9.035156 -12.328125 8.640625 -11.492188 8.640625 -10.578125 L 8.640625 0 Z M 2.1875 0 "/></g></g></g><g fill="#000000" fill-opacity="1"><g transform="translate(81.681224, 36.919607)"><g><path d="M 2.796875 -29.125 C 3.554688 -29.875 4.457031 -30.25 5.5 -30.25 C 6.550781 -30.25 7.453125 -29.875 8.203125 -29.125 C 8.953125 -28.375 9.328125 -27.472656 9.328125 -26.421875 C 9.328125 -25.378906 8.953125 -24.476562 8.203125 -23.71875 C 7.453125 -22.96875 6.550781 -22.59375 5.5 -22.59375 C 4.457031 -22.59375 3.554688 -22.96875 2.796875 -23.71875 C 2.046875 -24.476562 1.671875 -25.378906 1.671875 -26.421875 C 1.671875 -27.472656 2.046875 -28.375 2.796875 -29.125 Z M 2.1875 -18.703125 L 2.1875 1.640625 C 2.1875 3.335938 1.59375 4.1875 0.40625 4.1875 C 0.15625 4.1875 -0.0976562 4.144531 -0.359375 4.0625 C -0.628906 3.976562 -0.847656 3.890625 -1.015625 3.796875 L -1.234375 3.640625 L -3.25 8.859375 C -3.195312 8.878906 -3.035156 8.953125 -2.765625 9.078125 C -2.503906 9.203125 -2.304688 9.289062 -2.171875 9.34375 C -2.035156 9.40625 -1.804688 9.484375 -1.484375 9.578125 C -1.171875 9.679688 -0.867188 9.753906 -0.578125 9.796875 C -0.285156 9.847656 0.078125 9.898438 0.515625 9.953125 C 0.953125 10.003906 1.410156 10.03125 1.890625 10.03125 C 3.109375 10.03125 4.175781 9.816406 5.09375 9.390625 C 6.019531 8.960938 6.726562 8.390625 7.21875 7.671875 C 7.707031 6.953125 8.066406 6.195312 8.296875 5.40625 C 8.523438 4.625 8.640625 3.78125 8.640625 2.875 L 8.640625 -18.703125 Z M 2.1875 -18.703125 "/></g></g></g><g fill="#000000" fill-opacity="1"><g transform="translate(89.077558, 36.919607)"><g><path d="M 3.46875 -2.3125 C 1.71875 -4.21875 0.84375 -6.554688 0.84375 -9.328125 C 0.84375 -12.097656 1.71875 -14.441406 3.46875 -16.359375 C 5.21875 -18.285156 7.441406 -19.25 10.140625 -19.25 C 12.617188 -19.25 14.660156 -18.472656 16.265625 -16.921875 L 16.265625 -18.703125 L 22.703125 -18.703125 L 22.703125 0 L 16.328125 0 L 16.328125 -2.109375 L 16.265625 -2.109375 C 14.660156 -0.335938 12.617188 0.546875 10.140625 0.546875 C 7.441406 0.546875 5.21875 -0.40625 3.46875 -2.3125 Z M 8.9375 -12.5 C 8.101562 -11.675781 7.6875 -10.617188 7.6875 -9.328125 C 7.6875 -8.046875 8.085938 -6.992188 8.890625 -6.171875 C 9.691406 -5.359375 10.75 -4.953125 12.0625 -4.953125 C 13.332031 -4.953125 14.375 -5.363281 15.1875 -6.1875 C 16 -7.019531 16.40625 -8.066406 16.40625 -9.328125 C 16.40625 -10.617188 15.984375 -11.675781 15.140625 -12.5 C 14.304688 -13.332031 13.28125 -13.75 12.0625 -13.75 C 10.820312 -13.75 9.78125 -13.332031 8.9375 -12.5 Z M 8.9375 -12.5 "/></g></g></g><g fill="#000000" fill-opacity="1"><g transform="translate(110.539759, 36.919607)"><g/></g></g><g fill="#000000" fill-opacity="1"><g transform="translate(117.061532, 36.919607)"><g><path d="M 2.1875 0 L 2.1875 -18.703125 L 8.640625 -18.703125 L 8.640625 -16.734375 L 8.71875 -16.734375 C 10.394531 -18.410156 12.179688 -19.25 14.078125 -19.25 C 15.429688 -19.25 16.703125 -18.96875 17.890625 -18.40625 C 19.085938 -17.851562 19.988281 -16.992188 20.59375 -15.828125 C 22.488281 -18.109375 24.554688 -19.25 26.796875 -19.25 C 28.785156 -19.25 30.492188 -18.6875 31.921875 -17.5625 C 33.359375 -16.445312 34.078125 -14.703125 34.078125 -12.328125 L 34.078125 0 L 27.625 0 L 27.625 -10.578125 C 27.625 -11.566406 27.347656 -12.394531 26.796875 -13.0625 C 26.253906 -13.738281 25.4375 -14.078125 24.34375 -14.078125 C 23.394531 -14.078125 22.671875 -13.789062 22.171875 -13.21875 C 21.679688 -12.644531 21.410156 -11.957031 21.359375 -11.15625 L 21.359375 0 L 14.90625 0 L 14.90625 -10.578125 C 14.90625 -11.566406 14.628906 -12.394531 14.078125 -13.0625 C 13.535156 -13.738281 12.71875 -14.078125 11.625 -14.078125 C 10.632812 -14.078125 9.890625 -13.765625 9.390625 -13.140625 C 8.890625 -12.523438 8.640625 -11.789062 8.640625 -10.9375 L 8.640625 0 Z M 2.1875 0 "/></g></g></g><g fill="#000000" fill-opacity="1"><g transform="translate(149.528638, 36.919607)"><g><path d="M 2.796875 -29.125 C 3.554688 -29.875 4.457031 -30.25 5.5 -30.25 C 6.550781 -30.25 7.453125 -29.875 8.203125 -29.125 C 8.953125 -28.375 9.328125 -27.472656 9.328125 -26.421875 C 9.328125 -25.378906 8.953125 -24.476562 8.203125 -23.71875 C 7.453125 -22.96875 6.550781 -22.59375 5.5 -22.59375 C 4.457031 -22.59375 3.554688 -22.96875 2.796875 -23.71875 C 2.046875 -24.476562 1.671875 -25.378906 1.671875 -26.421875 C 1.671875 -27.472656 2.046875 -28.375 2.796875 -29.125 Z M 2.1875 -18.703125 L 2.1875 0 L 8.640625 0 L 8.640625 -18.703125 Z M 2.1875 -18.703125 "/></g></g></g><g fill="#000000" fill-opacity="1"><g transform="translate(157.107174, 36.919607)"><g><path d="M 2.1875 0 L 2.1875 -31.34375 L 8.640625 -31.34375 L 8.640625 0 Z M 2.1875 0 "/></g></g></g><g fill="#000000" fill-opacity="1"><g transform="translate(164.503504, 36.919607)"><g><path d="M 3.46875 -2.3125 C 1.71875 -4.21875 0.84375 -6.554688 0.84375 -9.328125 C 0.84375 -12.097656 1.71875 -14.441406 3.46875 -16.359375 C 5.21875 -18.285156 7.441406 -19.25 10.140625 -19.25 C 12.617188 -19.25 14.660156 -18.472656 16.265625 -16.921875 L 16.265625 -18.703125 L 22.703125 -18.703125 L 22.703125 0 L 16.328125 0 L 16.328125 -2.109375 L 16.265625 -2.109375 C 14.660156 -0.335938 12.617188 0.546875 10.140625 0.546875 C 7.441406 0.546875 5.21875 -0.40625 3.46875 -2.3125 Z M 8.9375 -12.5 C 8.101562 -11.675781 7.6875 -10.617188 7.6875 -9.328125 C 7.6875 -8.046875 8.085938 -6.992188 8.890625 -6.171875 C 9.691406 -5.359375 10.75 -4.953125 12.0625 -4.953125 C 13.332031 -4.953125 14.375 -5.363281 15.1875 -6.1875 C 16 -7.019531 16.40625 -8.066406 16.40625 -9.328125 C 16.40625 -10.617188 15.984375 -11.675781 15.140625 -12.5 C 14.304688 -13.332031 13.28125 -13.75 12.0625 -13.75 C 10.820312 -13.75 9.78125 -13.332031 8.9375 -12.5 Z M 8.9375 -12.5 "/></g></g></g><g fill="#000000" fill-opacity="1"><g transform="translate(185.965704, 36.919607)"><g><path d="M 2.1875 0 L 2.1875 -18.703125 L 8.640625 -18.703125 L 8.640625 -16.734375 L 8.71875 -16.734375 C 10.394531 -18.410156 12.179688 -19.25 14.078125 -19.25 C 14.992188 -19.25 15.90625 -19.125 16.8125 -18.875 C 17.726562 -18.632812 18.601562 -18.257812 19.4375 -17.75 C 20.28125 -17.238281 20.960938 -16.515625 21.484375 -15.578125 C 22.003906 -14.648438 22.265625 -13.566406 22.265625 -12.328125 L 22.265625 0 L 15.828125 0 L 15.828125 -10.578125 C 15.828125 -11.546875 15.515625 -12.394531 14.890625 -13.125 C 14.273438 -13.851562 13.46875 -14.21875 12.46875 -14.21875 C 11.5 -14.21875 10.617188 -13.835938 9.828125 -13.078125 C 9.035156 -12.328125 8.640625 -11.492188 8.640625 -10.578125 L 8.640625 0 Z M 2.1875 0 "/></g></g></g><g fill="#000000" fill-opacity="1"><g transform="translate(206.626231, 36.919607)"><g><path d="M 3.953125 -2.21875 C 1.878906 -4.070312 0.84375 -6.441406 0.84375 -9.328125 C 0.84375 -12.222656 1.921875 -14.597656 4.078125 -16.453125 C 6.242188 -18.316406 8.921875 -19.25 12.109375 -19.25 C 15.242188 -19.25 17.882812 -18.3125 20.03125 -16.4375 C 22.175781 -14.570312 23.25 -12.203125 23.25 -9.328125 C 23.25 -6.460938 22.195312 -4.097656 20.09375 -2.234375 C 18 -0.378906 15.335938 0.546875 12.109375 0.546875 C 8.753906 0.546875 6.035156 -0.375 3.953125 -2.21875 Z M 8.9375 -12.5 C 8.101562 -11.675781 7.6875 -10.617188 7.6875 -9.328125 C 7.6875 -8.046875 8.085938 -6.992188 8.890625 -6.171875 C 9.691406 -5.359375 10.75 -4.953125 12.0625 -4.953125 C 13.332031 -4.953125 14.375 -5.363281 15.1875 -6.1875 C 16 -7.019531 16.40625 -8.066406 16.40625 -9.328125 C 16.40625 -10.617188 15.984375 -11.675781 15.140625 -12.5 C 14.304688 -13.332031 13.28125 -13.75 12.0625 -13.75 C 10.820312 -13.75 9.78125 -13.332031 8.9375 -12.5 Z M 8.9375 -12.5 "/></g></g></g><g fill="#000000" fill-opacity="1"><g transform="translate(227.286757, 36.919607)"><g><path d="M 6.921875 -18.703125 L 11.484375 -8.53125 L 16.046875 -18.703125 L 23.6875 -18.703125 L 13.671875 0 L 9.296875 0 L -0.734375 -18.703125 Z M 6.921875 -18.703125 "/></g></g></g><g fill="#000000" fill-opacity="1"><g transform="translate(246.817638, 36.919607)"><g><path d="M 2.796875 -29.125 C 3.554688 -29.875 4.457031 -30.25 5.5 -30.25 C 6.550781 -30.25 7.453125 -29.875 8.203125 -29.125 C 8.953125 -28.375 9.328125 -27.472656 9.328125 -26.421875 C 9.328125 -25.378906 8.953125 -24.476562 8.203125 -23.71875 C 7.453125 -22.96875 6.550781 -22.59375 5.5 -22.59375 C 4.457031 -22.59375 3.554688 -22.96875 2.796875 -23.71875 C 2.046875 -24.476562 1.671875 -25.378906 1.671875 -26.421875 C 1.671875 -27.472656 2.046875 -28.375 2.796875 -29.125 Z M 2.1875 -18.703125 L 2.1875 0 L 8.640625 0 L 8.640625 -18.703125 Z M 2.1875 -18.703125 "/></g></g></g><g fill="#000000" fill-opacity="1"><g transform="translate(254.396174, 36.919607)"><g><path d="M 6.96875 -24.203125 L 14.359375 -30.625 L 17.6875 -26.421875 L 9 -21.390625 Z M 12.140625 -13.96875 C 10.921875 -13.96875 9.875 -13.515625 9 -12.609375 C 8.125 -11.710938 7.6875 -10.632812 7.6875 -9.375 C 7.6875 -8.082031 8.125 -6.984375 9 -6.078125 C 9.875 -5.179688 10.921875 -4.734375 12.140625 -4.734375 C 12.722656 -4.734375 13.273438 -4.804688 13.796875 -4.953125 C 14.316406 -5.097656 14.703125 -5.242188 14.953125 -5.390625 L 15.28125 -5.609375 L 17.46875 -1.125 C 17.289062 -1.007812 17.050781 -0.859375 16.75 -0.671875 C 16.445312 -0.492188 15.753906 -0.25 14.671875 0.0625 C 13.585938 0.382812 12.425781 0.546875 11.1875 0.546875 C 8.445312 0.546875 6.035156 -0.414062 3.953125 -2.34375 C 1.878906 -4.28125 0.84375 -6.597656 0.84375 -9.296875 C 0.84375 -12.015625 1.878906 -14.351562 3.953125 -16.3125 C 6.035156 -18.269531 8.445312 -19.25 11.1875 -19.25 C 12.425781 -19.25 13.566406 -19.101562 14.609375 -18.8125 C 15.660156 -18.519531 16.40625 -18.226562 16.84375 -17.9375 L 17.46875 -17.5 L 15.28125 -13.09375 C 14.476562 -13.675781 13.429688 -13.96875 12.140625 -13.96875 Z M 12.140625 -13.96875 "/></g></g></g><g fill="#000000" fill-opacity="1"><g transform="translate(111.656909, 55.513095)"><g><path d="M 4.53125 -6.734375 C 4.6875 -6.734375 4.816406 -6.679688 4.921875 -6.578125 C 5.023438 -6.472656 5.078125 -6.335938 5.078125 -6.171875 L 5.078125 -0.5625 C 5.078125 -0.394531 5.023438 -0.257812 4.921875 -0.15625 C 4.816406 -0.0507812 4.6875 0 4.53125 0 C 4.375 0 4.242188 -0.0507812 4.140625 -0.15625 C 4.035156 -0.257812 3.984375 -0.390625 3.984375 -0.546875 C 3.828125 -0.367188 3.617188 -0.21875 3.359375 -0.09375 C 3.109375 0.03125 2.84375 0.09375 2.5625 0.09375 C 2.132812 0.09375 1.75 -0.015625 1.40625 -0.234375 C 1.070312 -0.453125 0.804688 -0.75 0.609375 -1.125 C 0.410156 -1.507812 0.3125 -1.941406 0.3125 -2.421875 C 0.3125 -2.910156 0.410156 -3.347656 0.609375 -3.734375 C 0.804688 -4.117188 1.070312 -4.414062 1.40625 -4.625 C 1.738281 -4.84375 2.109375 -4.953125 2.515625 -4.953125 C 2.804688 -4.953125 3.078125 -4.898438 3.328125 -4.796875 C 3.585938 -4.691406 3.804688 -4.554688 3.984375 -4.390625 L 3.984375 -6.171875 C 3.984375 -6.328125 4.035156 -6.457031 4.140625 -6.5625 C 4.242188 -6.675781 4.375 -6.734375 4.53125 -6.734375 Z M 2.6875 -0.90625 C 3.082031 -0.90625 3.40625 -1.046875 3.65625 -1.328125 C 3.90625 -1.617188 4.03125 -1.984375 4.03125 -2.421875 C 4.03125 -2.859375 3.90625 -3.222656 3.65625 -3.515625 C 3.40625 -3.804688 3.082031 -3.953125 2.6875 -3.953125 C 2.300781 -3.953125 1.984375 -3.804688 1.734375 -3.515625 C 1.484375 -3.222656 1.359375 -2.859375 1.359375 -2.421875 C 1.359375 -1.984375 1.476562 -1.617188 1.71875 -1.328125 C 1.96875 -1.046875 2.289062 -0.90625 2.6875 -0.90625 Z M 2.6875 -0.90625 "/></g></g></g><g fill="#000000" fill-opacity="1"><g transform="translate(123.258025, 55.513095)"><g><path d="M 3.125 -4.953125 C 3.300781 -4.953125 3.453125 -4.898438 3.578125 -4.796875 C 3.703125 -4.691406 3.765625 -4.570312 3.765625 -4.4375 C 3.765625 -4.25 3.710938 -4.109375 3.609375 -4.015625 C 3.515625 -3.921875 3.40625 -3.875 3.28125 -3.875 C 3.1875 -3.875 3.082031 -3.894531 2.96875 -3.9375 C 2.945312 -3.945312 2.90625 -3.957031 2.84375 -3.96875 C 2.78125 -3.988281 2.710938 -4 2.640625 -4 C 2.484375 -4 2.332031 -3.945312 2.1875 -3.84375 C 2.039062 -3.75 1.921875 -3.601562 1.828125 -3.40625 C 1.734375 -3.21875 1.6875 -2.984375 1.6875 -2.703125 L 1.6875 -0.5625 C 1.6875 -0.394531 1.632812 -0.257812 1.53125 -0.15625 C 1.425781 -0.0507812 1.296875 0 1.140625 0 C 0.984375 0 0.851562 -0.0507812 0.75 -0.15625 C 0.644531 -0.257812 0.59375 -0.394531 0.59375 -0.5625 L 0.59375 -4.3125 C 0.59375 -4.46875 0.644531 -4.597656 0.75 -4.703125 C 0.851562 -4.804688 0.984375 -4.859375 1.140625 -4.859375 C 1.296875 -4.859375 1.425781 -4.804688 1.53125 -4.703125 C 1.632812 -4.597656 1.6875 -4.46875 1.6875 -4.3125 L 1.6875 -4.1875 C 1.820312 -4.4375 2.019531 -4.625 2.28125 -4.75 C 2.539062 -4.882812 2.820312 -4.953125 3.125 -4.953125 Z M 3.125 -4.953125 "/></g></g></g><g fill="#000000" fill-opacity="1"><g transform="translate(133.140256, 55.513095)"><g><path d="M 1.078125 -0.015625 C 0.898438 -0.015625 0.765625 -0.0625 0.671875 -0.15625 C 0.578125 -0.25 0.53125 -0.382812 0.53125 -0.5625 L 0.53125 -0.703125 C 0.53125 -0.878906 0.578125 -1.015625 0.671875 -1.109375 C 0.765625 -1.203125 0.898438 -1.25 1.078125 -1.25 L 1.1875 -1.25 C 1.363281 -1.25 1.5 -1.203125 1.59375 -1.109375 C 1.6875 -1.015625 1.734375 -0.878906 1.734375 -0.703125 L 1.734375 -0.5625 C 1.734375 -0.382812 1.6875 -0.25 1.59375 -0.15625 C 1.5 -0.0625 1.363281 -0.015625 1.1875 -0.015625 Z M 1.078125 -0.015625 "/></g></g></g><g fill="#000000" fill-opacity="1"><g transform="translate(141.339981, 55.513095)"><g><path d="M 6.203125 -4.953125 C 6.804688 -4.953125 7.222656 -4.769531 7.453125 -4.40625 C 7.679688 -4.039062 7.796875 -3.53125 7.796875 -2.875 L 7.796875 -0.5625 C 7.796875 -0.394531 7.742188 -0.257812 7.640625 -0.15625 C 7.535156 -0.0507812 7.40625 0 7.25 0 C 7.09375 0 6.960938 -0.0507812 6.859375 -0.15625 C 6.753906 -0.257812 6.703125 -0.394531 6.703125 -0.5625 L 6.703125 -2.875 C 6.703125 -3.21875 6.632812 -3.484375 6.5 -3.671875 C 6.375 -3.859375 6.144531 -3.953125 5.8125 -3.953125 C 5.476562 -3.953125 5.210938 -3.847656 5.015625 -3.640625 C 4.828125 -3.441406 4.734375 -3.1875 4.734375 -2.875 L 4.734375 -0.5625 C 4.734375 -0.394531 4.679688 -0.257812 4.578125 -0.15625 C 4.472656 -0.0507812 4.34375 0 4.1875 0 C 4.03125 0 3.898438 -0.0507812 3.796875 -0.15625 C 3.691406 -0.257812 3.640625 -0.394531 3.640625 -0.5625 L 3.640625 -2.875 C 3.640625 -3.21875 3.570312 -3.484375 3.4375 -3.671875 C 3.3125 -3.859375 3.085938 -3.953125 2.765625 -3.953125 C 2.421875 -3.953125 2.15625 -3.847656 1.96875 -3.640625 C 1.78125 -3.441406 1.6875 -3.1875 1.6875 -2.875 L 1.6875 -0.5625 C 1.6875 -0.394531 1.632812 -0.257812 1.53125 -0.15625 C 1.425781 -0.0507812 1.296875 0 1.140625 0 C 0.984375 0 0.851562 -0.0507812 0.75 -0.15625 C 0.644531 -0.257812 0.59375 -0.394531 0.59375 -0.5625 L 0.59375 -4.3125 C 0.59375 -4.46875 0.644531 -4.597656 0.75 -4.703125 C 0.851562 -4.804688 0.984375 -4.859375 1.140625 -4.859375 C 1.296875 -4.859375 1.425781 -4.804688 1.53125 -4.703125 C 1.632812 -4.597656 1.6875 -4.46875 1.6875 -4.3125 L 1.6875 -4.171875 C 1.84375 -4.390625 2.046875 -4.570312 2.296875 -4.71875 C 2.554688 -4.875 2.835938 -4.953125 3.140625 -4.953125 C 3.910156 -4.953125 4.398438 -4.617188 4.609375 -3.953125 C 4.742188 -4.210938 4.953125 -4.441406 5.234375 -4.640625 C 5.523438 -4.847656 5.847656 -4.953125 6.203125 -4.953125 Z M 6.203125 -4.953125 "/></g></g></g><g fill="#000000" fill-opacity="1"><g transform="translate(155.660386, 55.513095)"><g><path d="M 4.953125 -2.546875 C 4.953125 -2.398438 4.894531 -2.28125 4.78125 -2.1875 C 4.675781 -2.101562 4.550781 -2.0625 4.40625 -2.0625 L 1.40625 -2.0625 C 1.476562 -1.695312 1.644531 -1.410156 1.90625 -1.203125 C 2.164062 -1.003906 2.457031 -0.90625 2.78125 -0.90625 C 3.03125 -0.90625 3.222656 -0.925781 3.359375 -0.96875 C 3.503906 -1.019531 3.613281 -1.070312 3.6875 -1.125 C 3.769531 -1.175781 3.828125 -1.210938 3.859375 -1.234375 C 3.972656 -1.285156 4.078125 -1.3125 4.171875 -1.3125 C 4.296875 -1.3125 4.40625 -1.265625 4.5 -1.171875 C 4.59375 -1.078125 4.640625 -0.972656 4.640625 -0.859375 C 4.640625 -0.691406 4.554688 -0.539062 4.390625 -0.40625 C 4.210938 -0.269531 3.984375 -0.148438 3.703125 -0.046875 C 3.421875 0.046875 3.132812 0.09375 2.84375 0.09375 C 2.332031 0.09375 1.882812 -0.0078125 1.5 -0.21875 C 1.125 -0.4375 0.832031 -0.734375 0.625 -1.109375 C 0.414062 -1.484375 0.3125 -1.898438 0.3125 -2.359375 C 0.3125 -2.878906 0.421875 -3.335938 0.640625 -3.734375 C 0.859375 -4.128906 1.144531 -4.429688 1.5 -4.640625 C 1.863281 -4.847656 2.25 -4.953125 2.65625 -4.953125 C 3.050781 -4.953125 3.425781 -4.84375 3.78125 -4.625 C 4.132812 -4.40625 4.414062 -4.109375 4.625 -3.734375 C 4.84375 -3.367188 4.953125 -2.972656 4.953125 -2.546875 Z M 2.65625 -3.953125 C 1.945312 -3.953125 1.53125 -3.625 1.40625 -2.96875 L 3.796875 -2.96875 L 3.796875 -3.03125 C 3.765625 -3.28125 3.632812 -3.492188 3.40625 -3.671875 C 3.1875 -3.859375 2.9375 -3.953125 2.65625 -3.953125 Z M 2.65625 -3.953125 "/></g></g></g><g fill="#000000" fill-opacity="1"><g transform="translate(166.870428, 55.513095)"><g><path d="M 4.53125 -6.734375 C 4.6875 -6.734375 4.816406 -6.679688 4.921875 -6.578125 C 5.023438 -6.472656 5.078125 -6.335938 5.078125 -6.171875 L 5.078125 -0.5625 C 5.078125 -0.394531 5.023438 -0.257812 4.921875 -0.15625 C 4.816406 -0.0507812 4.6875 0 4.53125 0 C 4.375 0 4.242188 -0.0507812 4.140625 -0.15625 C 4.035156 -0.257812 3.984375 -0.390625 3.984375 -0.546875 C 3.828125 -0.367188 3.617188 -0.21875 3.359375 -0.09375 C 3.109375 0.03125 2.84375 0.09375 2.5625 0.09375 C 2.132812 0.09375 1.75 -0.015625 1.40625 -0.234375 C 1.070312 -0.453125 0.804688 -0.75 0.609375 -1.125 C 0.410156 -1.507812 0.3125 -1.941406 0.3125 -2.421875 C 0.3125 -2.910156 0.410156 -3.347656 0.609375 -3.734375 C 0.804688 -4.117188 1.070312 -4.414062 1.40625 -4.625 C 1.738281 -4.84375 2.109375 -4.953125 2.515625 -4.953125 C 2.804688 -4.953125 3.078125 -4.898438 3.328125 -4.796875 C 3.585938 -4.691406 3.804688 -4.554688 3.984375 -4.390625 L 3.984375 -6.171875 C 3.984375 -6.328125 4.035156 -6.457031 4.140625 -6.5625 C 4.242188 -6.675781 4.375 -6.734375 4.53125 -6.734375 Z M 2.6875 -0.90625 C 3.082031 -0.90625 3.40625 -1.046875 3.65625 -1.328125 C 3.90625 -1.617188 4.03125 -1.984375 4.03125 -2.421875 C 4.03125 -2.859375 3.90625 -3.222656 3.65625 -3.515625 C 3.40625 -3.804688 3.082031 -3.953125 2.6875 -3.953125 C 2.300781 -3.953125 1.984375 -3.804688 1.734375 -3.515625 C 1.484375 -3.222656 1.359375 -2.859375 1.359375 -2.421875 C 1.359375 -1.984375 1.476562 -1.617188 1.71875 -1.328125 C 1.96875 -1.046875 2.289062 -0.90625 2.6875 -0.90625 Z M 2.6875 -0.90625 "/></g></g></g><g fill="#000000" fill-opacity="1"><g transform="translate(178.471545, 55.513095)"><g><path d="M 1.078125 -0.015625 C 0.898438 -0.015625 0.765625 -0.0625 0.671875 -0.15625 C 0.578125 -0.25 0.53125 -0.382812 0.53125 -0.5625 L 0.53125 -0.703125 C 0.53125 -0.878906 0.578125 -1.015625 0.671875 -1.109375 C 0.765625 -1.203125 0.898438 -1.25 1.078125 -1.25 L 1.1875 -1.25 C 1.363281 -1.25 1.5 -1.203125 1.59375 -1.109375 C 1.6875 -1.015625 1.734375 -0.878906 1.734375 -0.703125 L 1.734375 -0.5625 C 1.734375 -0.382812 1.6875 -0.25 1.59375 -0.15625 C 1.5 -0.0625 1.363281 -0.015625 1.1875 -0.015625 Z M 1.078125 -0.015625 "/></g></g></g></svg>