<svg xmlns="http://www.w3.org/2000/svg" xmlns:xlink="http://www.w3.org/1999/xlink" width="500" zoomAndPan="magnify" viewBox="0 0 375 374.999991" height="500" preserveAspectRatio="xMidYMid meet" version="1.0"><defs><g/></defs><g fill="#000000" fill-opacity="1"><g transform="translate(13.807778, 192.615823)"><g><path d="M 14.484375 -27.03125 C 15.992188 -27.03125 17.476562 -26.859375 18.9375 -26.515625 C 20.40625 -26.179688 21.5 -25.84375 22.21875 -25.5 L 23.296875 -24.984375 L 20.328125 -19.046875 C 18.273438 -20.140625 16.328125 -20.6875 14.484375 -20.6875 C 13.460938 -20.6875 12.738281 -20.570312 12.3125 -20.34375 C 11.882812 -20.125 11.671875 -19.707031 11.671875 -19.09375 C 11.671875 -18.957031 11.6875 -18.820312 11.71875 -18.6875 C 11.757812 -18.550781 11.828125 -18.421875 11.921875 -18.296875 C 12.023438 -18.179688 12.117188 -18.082031 12.203125 -18 C 12.296875 -17.914062 12.441406 -17.820312 12.640625 -17.71875 C 12.847656 -17.613281 13.007812 -17.535156 13.125 -17.484375 C 13.25 -17.429688 13.445312 -17.351562 13.71875 -17.25 C 13.988281 -17.15625 14.191406 -17.082031 14.328125 -17.03125 C 14.472656 -16.976562 14.707031 -16.898438 15.03125 -16.796875 C 15.351562 -16.691406 15.597656 -16.625 15.765625 -16.59375 C 16.828125 -16.28125 17.75 -15.9375 18.53125 -15.5625 C 19.320312 -15.1875 20.148438 -14.675781 21.015625 -14.03125 C 21.890625 -13.382812 22.566406 -12.566406 23.046875 -11.578125 C 23.523438 -10.585938 23.765625 -9.457031 23.765625 -8.1875 C 23.765625 -2.21875 19.613281 0.765625 11.3125 0.765625 C 9.4375 0.765625 7.65625 0.476562 5.96875 -0.09375 C 4.28125 -0.675781 3.054688 -1.257812 2.296875 -1.84375 L 1.171875 -2.765625 L 4.859375 -8.953125 C 5.140625 -8.722656 5.5 -8.441406 5.9375 -8.109375 C 6.382812 -7.785156 7.1875 -7.34375 8.34375 -6.78125 C 9.507812 -6.21875 10.515625 -5.9375 11.359375 -5.9375 C 13.242188 -5.9375 14.1875 -6.566406 14.1875 -7.828125 C 14.1875 -8.410156 13.945312 -8.863281 13.46875 -9.1875 C 12.988281 -9.507812 12.175781 -9.875 11.03125 -10.28125 C 9.882812 -10.695312 8.988281 -11.078125 8.34375 -11.421875 C 6.707031 -12.273438 5.410156 -13.238281 4.453125 -14.3125 C 3.492188 -15.382812 3.015625 -16.8125 3.015625 -18.59375 C 3.015625 -21.25 4.046875 -23.316406 6.109375 -24.796875 C 8.179688 -26.285156 10.972656 -27.03125 14.484375 -27.03125 Z M 14.484375 -27.03125 "/></g></g></g><g fill="#000000" fill-opacity="1"><g transform="translate(34.183679, 192.615823)"><g><path d="M 4.859375 -3.25 C 2.398438 -5.925781 1.171875 -9.207031 1.171875 -13.09375 C 1.171875 -16.988281 2.398438 -20.285156 4.859375 -22.984375 C 7.316406 -25.679688 10.441406 -27.03125 14.234375 -27.03125 C 17.710938 -27.03125 20.582031 -25.941406 22.84375 -23.765625 L 22.84375 -26.265625 L 31.90625 -26.265625 L 31.90625 0 L 22.9375 0 L 22.9375 -2.96875 L 22.84375 -2.96875 C 20.582031 -0.476562 17.710938 0.765625 14.234375 0.765625 C 10.441406 0.765625 7.316406 -0.570312 4.859375 -3.25 Z M 12.5625 -17.5625 C 11.382812 -16.40625 10.796875 -14.921875 10.796875 -13.109375 C 10.796875 -11.296875 11.359375 -9.816406 12.484375 -8.671875 C 13.617188 -7.535156 15.109375 -6.96875 16.953125 -6.96875 C 18.722656 -6.96875 20.179688 -7.546875 21.328125 -8.703125 C 22.472656 -9.867188 23.046875 -11.335938 23.046875 -13.109375 C 23.046875 -14.921875 22.457031 -16.40625 21.28125 -17.5625 C 20.101562 -18.71875 18.660156 -19.296875 16.953125 -19.296875 C 15.210938 -19.296875 13.75 -18.71875 12.5625 -17.5625 Z M 12.5625 -17.5625 "/></g></g></g><g fill="#000000" fill-opacity="1"><g transform="translate(64.338636, 192.615823)"><g><path d="M 3.078125 0 L 3.078125 -26.265625 L 12.140625 -26.265625 L 12.140625 -23.5 L 12.234375 -23.5 C 14.585938 -25.851562 17.097656 -27.03125 19.765625 -27.03125 C 21.054688 -27.03125 22.34375 -26.859375 23.625 -26.515625 C 24.90625 -26.179688 26.132812 -25.65625 27.3125 -24.9375 C 28.488281 -24.21875 29.441406 -23.203125 30.171875 -21.890625 C 30.910156 -20.578125 31.28125 -19.050781 31.28125 -17.3125 L 31.28125 0 L 22.21875 0 L 22.21875 -14.84375 C 22.21875 -16.207031 21.78125 -17.398438 20.90625 -18.421875 C 20.039062 -19.453125 18.910156 -19.96875 17.515625 -19.96875 C 16.148438 -19.96875 14.910156 -19.4375 13.796875 -18.375 C 12.691406 -17.320312 12.140625 -16.144531 12.140625 -14.84375 L 12.140625 0 Z M 3.078125 0 "/></g></g></g><g fill="#000000" fill-opacity="1"><g transform="translate(93.367208, 192.615823)"><g><path d="M 3.9375 -40.90625 C 5 -41.96875 6.265625 -42.5 7.734375 -42.5 C 9.203125 -42.5 10.460938 -41.96875 11.515625 -40.90625 C 12.578125 -39.851562 13.109375 -38.59375 13.109375 -37.125 C 13.109375 -35.65625 12.578125 -34.390625 11.515625 -33.328125 C 10.460938 -32.273438 9.203125 -31.75 7.734375 -31.75 C 6.265625 -31.75 5 -32.273438 3.9375 -33.328125 C 2.882812 -34.390625 2.359375 -35.65625 2.359375 -37.125 C 2.359375 -38.59375 2.882812 -39.851562 3.9375 -40.90625 Z M 3.078125 -26.265625 L 3.078125 2.296875 C 3.078125 4.691406 2.238281 5.890625 0.5625 5.890625 C 0.21875 5.890625 -0.140625 5.828125 -0.515625 5.703125 C -0.890625 5.585938 -1.195312 5.460938 -1.4375 5.328125 L -1.734375 5.125 L -4.5625 12.4375 C -4.488281 12.476562 -4.265625 12.582031 -3.890625 12.75 C -3.515625 12.914062 -3.234375 13.039062 -3.046875 13.125 C -2.859375 13.21875 -2.539062 13.332031 -2.09375 13.46875 C -1.65625 13.601562 -1.226562 13.703125 -0.8125 13.765625 C -0.40625 13.835938 0.101562 13.90625 0.71875 13.96875 C 1.332031 14.039062 1.976562 14.078125 2.65625 14.078125 C 4.363281 14.078125 5.863281 13.773438 7.15625 13.171875 C 8.457031 12.578125 9.445312 11.773438 10.125 10.765625 C 10.8125 9.765625 11.316406 8.707031 11.640625 7.59375 C 11.972656 6.488281 12.140625 5.304688 12.140625 4.046875 L 12.140625 -26.265625 Z M 3.078125 -26.265625 "/></g></g></g><g fill="#000000" fill-opacity="1"><g transform="translate(103.75925, 192.615823)"><g><path d="M 4.859375 -3.25 C 2.398438 -5.925781 1.171875 -9.207031 1.171875 -13.09375 C 1.171875 -16.988281 2.398438 -20.285156 4.859375 -22.984375 C 7.316406 -25.679688 10.441406 -27.03125 14.234375 -27.03125 C 17.710938 -27.03125 20.582031 -25.941406 22.84375 -23.765625 L 22.84375 -26.265625 L 31.90625 -26.265625 L 31.90625 0 L 22.9375 0 L 22.9375 -2.96875 L 22.84375 -2.96875 C 20.582031 -0.476562 17.710938 0.765625 14.234375 0.765625 C 10.441406 0.765625 7.316406 -0.570312 4.859375 -3.25 Z M 12.5625 -17.5625 C 11.382812 -16.40625 10.796875 -14.921875 10.796875 -13.109375 C 10.796875 -11.296875 11.359375 -9.816406 12.484375 -8.671875 C 13.617188 -7.535156 15.109375 -6.96875 16.953125 -6.96875 C 18.722656 -6.96875 20.179688 -7.546875 21.328125 -8.703125 C 22.472656 -9.867188 23.046875 -11.335938 23.046875 -13.109375 C 23.046875 -14.921875 22.457031 -16.40625 21.28125 -17.5625 C 20.101562 -18.71875 18.660156 -19.296875 16.953125 -19.296875 C 15.210938 -19.296875 13.75 -18.71875 12.5625 -17.5625 Z M 12.5625 -17.5625 "/></g></g></g><g fill="#000000" fill-opacity="1"><g transform="translate(133.914201, 192.615823)"><g/></g></g><g fill="#000000" fill-opacity="1"><g transform="translate(143.077461, 192.615823)"><g><path d="M 3.078125 0 L 3.078125 -26.265625 L 12.140625 -26.265625 L 12.140625 -23.5 L 12.234375 -23.5 C 14.585938 -25.851562 17.097656 -27.03125 19.765625 -27.03125 C 21.671875 -27.03125 23.460938 -26.640625 25.140625 -25.859375 C 26.816406 -25.078125 28.082031 -23.863281 28.9375 -22.21875 C 31.59375 -25.425781 34.492188 -27.03125 37.640625 -27.03125 C 40.429688 -27.03125 42.832031 -26.242188 44.84375 -24.671875 C 46.863281 -23.109375 47.875 -20.65625 47.875 -17.3125 L 47.875 0 L 38.8125 0 L 38.8125 -14.84375 C 38.8125 -16.25 38.425781 -17.421875 37.65625 -18.359375 C 36.882812 -19.296875 35.734375 -19.765625 34.203125 -19.765625 C 32.867188 -19.765625 31.851562 -19.363281 31.15625 -18.5625 C 30.457031 -17.757812 30.070312 -16.796875 30 -15.671875 L 30 0 L 20.9375 0 L 20.9375 -14.84375 C 20.9375 -16.25 20.550781 -17.421875 19.78125 -18.359375 C 19.019531 -19.296875 17.867188 -19.765625 16.328125 -19.765625 C 14.929688 -19.765625 13.882812 -19.328125 13.1875 -18.453125 C 12.488281 -17.585938 12.140625 -16.554688 12.140625 -15.359375 L 12.140625 0 Z M 3.078125 0 "/></g></g></g><g fill="#000000" fill-opacity="1"><g transform="translate(188.694592, 192.615823)"><g><path d="M 3.9375 -40.90625 C 5 -41.96875 6.265625 -42.5 7.734375 -42.5 C 9.203125 -42.5 10.460938 -41.96875 11.515625 -40.90625 C 12.578125 -39.851562 13.109375 -38.59375 13.109375 -37.125 C 13.109375 -35.65625 12.578125 -34.390625 11.515625 -33.328125 C 10.460938 -32.273438 9.203125 -31.75 7.734375 -31.75 C 6.265625 -31.75 5 -32.273438 3.9375 -33.328125 C 2.882812 -34.390625 2.359375 -35.65625 2.359375 -37.125 C 2.359375 -38.59375 2.882812 -39.851562 3.9375 -40.90625 Z M 3.078125 -26.265625 L 3.078125 0 L 12.140625 0 L 12.140625 -26.265625 Z M 3.078125 -26.265625 "/></g></g></g><g fill="#000000" fill-opacity="1"><g transform="translate(199.342632, 192.615823)"><g><path d="M 3.078125 0 L 3.078125 -44.03125 L 12.140625 -44.03125 L 12.140625 0 Z M 3.078125 0 "/></g></g></g><g fill="#000000" fill-opacity="1"><g transform="translate(209.734668, 192.615823)"><g><path d="M 4.859375 -3.25 C 2.398438 -5.925781 1.171875 -9.207031 1.171875 -13.09375 C 1.171875 -16.988281 2.398438 -20.285156 4.859375 -22.984375 C 7.316406 -25.679688 10.441406 -27.03125 14.234375 -27.03125 C 17.710938 -27.03125 20.582031 -25.941406 22.84375 -23.765625 L 22.84375 -26.265625 L 31.90625 -26.265625 L 31.90625 0 L 22.9375 0 L 22.9375 -2.96875 L 22.84375 -2.96875 C 20.582031 -0.476562 17.710938 0.765625 14.234375 0.765625 C 10.441406 0.765625 7.316406 -0.570312 4.859375 -3.25 Z M 12.5625 -17.5625 C 11.382812 -16.40625 10.796875 -14.921875 10.796875 -13.109375 C 10.796875 -11.296875 11.359375 -9.816406 12.484375 -8.671875 C 13.617188 -7.535156 15.109375 -6.96875 16.953125 -6.96875 C 18.722656 -6.96875 20.179688 -7.546875 21.328125 -8.703125 C 22.472656 -9.867188 23.046875 -11.335938 23.046875 -13.109375 C 23.046875 -14.921875 22.457031 -16.40625 21.28125 -17.5625 C 20.101562 -18.71875 18.660156 -19.296875 16.953125 -19.296875 C 15.210938 -19.296875 13.75 -18.71875 12.5625 -17.5625 Z M 12.5625 -17.5625 "/></g></g></g><g fill="#000000" fill-opacity="1"><g transform="translate(239.889619, 192.615823)"><g><path d="M 3.078125 0 L 3.078125 -26.265625 L 12.140625 -26.265625 L 12.140625 -23.5 L 12.234375 -23.5 C 14.585938 -25.851562 17.097656 -27.03125 19.765625 -27.03125 C 21.054688 -27.03125 22.34375 -26.859375 23.625 -26.515625 C 24.90625 -26.179688 26.132812 -25.65625 27.3125 -24.9375 C 28.488281 -24.21875 29.441406 -23.203125 30.171875 -21.890625 C 30.910156 -20.578125 31.28125 -19.050781 31.28125 -17.3125 L 31.28125 0 L 22.21875 0 L 22.21875 -14.84375 C 22.21875 -16.207031 21.78125 -17.398438 20.90625 -18.421875 C 20.039062 -19.453125 18.910156 -19.96875 17.515625 -19.96875 C 16.148438 -19.96875 14.910156 -19.4375 13.796875 -18.375 C 12.691406 -17.320312 12.140625 -16.144531 12.140625 -14.84375 L 12.140625 0 Z M 3.078125 0 "/></g></g></g><g fill="#000000" fill-opacity="1"><g transform="translate(268.918197, 192.615823)"><g><path d="M 5.546875 -3.125 C 2.628906 -5.71875 1.171875 -9.046875 1.171875 -13.109375 C 1.171875 -17.171875 2.691406 -20.503906 5.734375 -23.109375 C 8.773438 -25.722656 12.53125 -27.03125 17 -27.03125 C 21.40625 -27.03125 25.117188 -25.71875 28.140625 -23.09375 C 31.160156 -20.46875 32.671875 -17.140625 32.671875 -13.109375 C 32.671875 -9.078125 31.191406 -5.753906 28.234375 -3.140625 C 25.285156 -0.535156 21.539062 0.765625 17 0.765625 C 12.289062 0.765625 8.472656 -0.53125 5.546875 -3.125 Z M 12.5625 -17.5625 C 11.382812 -16.40625 10.796875 -14.921875 10.796875 -13.109375 C 10.796875 -11.296875 11.359375 -9.816406 12.484375 -8.671875 C 13.617188 -7.535156 15.109375 -6.96875 16.953125 -6.96875 C 18.722656 -6.96875 20.179688 -7.546875 21.328125 -8.703125 C 22.472656 -9.867188 23.046875 -11.335938 23.046875 -13.109375 C 23.046875 -14.921875 22.457031 -16.40625 21.28125 -17.5625 C 20.101562 -18.71875 18.660156 -19.296875 16.953125 -19.296875 C 15.210938 -19.296875 13.75 -18.71875 12.5625 -17.5625 Z M 12.5625 -17.5625 "/></g></g></g><g fill="#000000" fill-opacity="1"><g transform="translate(297.946775, 192.615823)"><g><path d="M 9.734375 -26.265625 L 16.125 -11.984375 L 22.53125 -26.265625 L 33.28125 -26.265625 L 19.203125 0 L 13.0625 0 L -1.03125 -26.265625 Z M 9.734375 -26.265625 "/></g></g></g><g fill="#000000" fill-opacity="1"><g transform="translate(325.388171, 192.615823)"><g><path d="M 3.9375 -40.90625 C 5 -41.96875 6.265625 -42.5 7.734375 -42.5 C 9.203125 -42.5 10.460938 -41.96875 11.515625 -40.90625 C 12.578125 -39.851562 13.109375 -38.59375 13.109375 -37.125 C 13.109375 -35.65625 12.578125 -34.390625 11.515625 -33.328125 C 10.460938 -32.273438 9.203125 -31.75 7.734375 -31.75 C 6.265625 -31.75 5 -32.273438 3.9375 -33.328125 C 2.882812 -34.390625 2.359375 -35.65625 2.359375 -37.125 C 2.359375 -38.59375 2.882812 -39.851562 3.9375 -40.90625 Z M 3.078125 -26.265625 L 3.078125 0 L 12.140625 0 L 12.140625 -26.265625 Z M 3.078125 -26.265625 "/></g></g></g><g fill="#000000" fill-opacity="1"><g transform="translate(336.036211, 192.615823)"><g><path d="M 9.78125 -34 L 20.171875 -43.015625 L 24.828125 -37.125 L 12.640625 -30.0625 Z M 17.046875 -19.609375 C 15.335938 -19.609375 13.867188 -18.976562 12.640625 -17.71875 C 11.410156 -16.457031 10.796875 -14.9375 10.796875 -13.15625 C 10.796875 -11.351562 11.410156 -9.816406 12.640625 -8.546875 C 13.867188 -7.285156 15.335938 -6.65625 17.046875 -6.65625 C 17.867188 -6.65625 18.644531 -6.753906 19.375 -6.953125 C 20.113281 -7.160156 20.65625 -7.367188 21 -7.578125 L 21.453125 -7.890625 L 24.53125 -1.59375 C 24.289062 -1.414062 23.957031 -1.195312 23.53125 -0.9375 C 23.101562 -0.6875 22.128906 -0.34375 20.609375 0.09375 C 19.085938 0.539062 17.457031 0.765625 15.71875 0.765625 C 11.863281 0.765625 8.472656 -0.585938 5.546875 -3.296875 C 2.628906 -6.015625 1.171875 -9.269531 1.171875 -13.0625 C 1.171875 -16.882812 2.628906 -20.164062 5.546875 -22.90625 C 8.472656 -25.65625 11.863281 -27.03125 15.71875 -27.03125 C 17.457031 -27.03125 19.0625 -26.828125 20.53125 -26.421875 C 22 -26.015625 23.039062 -25.601562 23.65625 -25.1875 L 24.53125 -24.578125 L 21.453125 -18.375 C 20.328125 -19.195312 18.859375 -19.609375 17.046875 -19.609375 Z M 17.046875 -19.609375 "/></g></g></g><g fill="#000000" fill-opacity="1"><g transform="translate(129.414034, 213.744406)"><g><path d="M 7.625 -11.3125 C 7.882812 -11.3125 8.097656 -11.222656 8.265625 -11.046875 C 8.441406 -10.878906 8.53125 -10.660156 8.53125 -10.390625 L 8.53125 -0.9375 C 8.53125 -0.664062 8.441406 -0.441406 8.265625 -0.265625 C 8.097656 -0.0859375 7.882812 0 7.625 0 C 7.351562 0 7.132812 -0.0820312 6.96875 -0.25 C 6.800781 -0.425781 6.710938 -0.648438 6.703125 -0.921875 C 6.441406 -0.617188 6.09375 -0.363281 5.65625 -0.15625 C 5.226562 0.0507812 4.773438 0.15625 4.296875 0.15625 C 3.597656 0.15625 2.960938 -0.0234375 2.390625 -0.390625 C 1.816406 -0.753906 1.363281 -1.253906 1.03125 -1.890625 C 0.695312 -2.535156 0.53125 -3.265625 0.53125 -4.078125 C 0.53125 -4.898438 0.691406 -5.632812 1.015625 -6.28125 C 1.347656 -6.925781 1.796875 -7.429688 2.359375 -7.796875 C 2.929688 -8.160156 3.554688 -8.34375 4.234375 -8.34375 C 4.722656 -8.34375 5.179688 -8.25 5.609375 -8.0625 C 6.035156 -7.882812 6.398438 -7.660156 6.703125 -7.390625 L 6.703125 -10.390625 C 6.703125 -10.648438 6.785156 -10.867188 6.953125 -11.046875 C 7.128906 -11.222656 7.351562 -11.3125 7.625 -11.3125 Z M 4.53125 -1.53125 C 5.1875 -1.53125 5.722656 -1.769531 6.140625 -2.25 C 6.566406 -2.738281 6.78125 -3.347656 6.78125 -4.078125 C 6.78125 -4.816406 6.566406 -5.429688 6.140625 -5.921875 C 5.722656 -6.410156 5.1875 -6.65625 4.53125 -6.65625 C 3.875 -6.65625 3.335938 -6.410156 2.921875 -5.921875 C 2.503906 -5.429688 2.296875 -4.816406 2.296875 -4.078125 C 2.296875 -3.347656 2.5 -2.738281 2.90625 -2.25 C 3.320312 -1.769531 3.863281 -1.53125 4.53125 -1.53125 Z M 4.53125 -1.53125 "/></g></g></g><g fill="#000000" fill-opacity="1"><g transform="translate(148.921651, 213.744406)"><g><path d="M 5.25 -8.34375 C 5.550781 -8.34375 5.804688 -8.253906 6.015625 -8.078125 C 6.222656 -7.898438 6.328125 -7.695312 6.328125 -7.46875 C 6.328125 -7.144531 6.242188 -6.90625 6.078125 -6.75 C 5.921875 -6.59375 5.726562 -6.515625 5.5 -6.515625 C 5.351562 -6.515625 5.179688 -6.550781 4.984375 -6.625 C 4.953125 -6.632812 4.882812 -6.65625 4.78125 -6.6875 C 4.675781 -6.71875 4.5625 -6.734375 4.4375 -6.734375 C 4.164062 -6.734375 3.90625 -6.648438 3.65625 -6.484375 C 3.414062 -6.316406 3.21875 -6.066406 3.0625 -5.734375 C 2.90625 -5.410156 2.828125 -5.019531 2.828125 -4.5625 L 2.828125 -0.9375 C 2.828125 -0.664062 2.738281 -0.441406 2.5625 -0.265625 C 2.394531 -0.0859375 2.175781 0 1.90625 0 C 1.644531 0 1.425781 -0.0859375 1.25 -0.265625 C 1.082031 -0.441406 1 -0.664062 1 -0.9375 L 1 -7.25 C 1 -7.519531 1.082031 -7.742188 1.25 -7.921875 C 1.425781 -8.097656 1.644531 -8.1875 1.90625 -8.1875 C 2.175781 -8.1875 2.394531 -8.097656 2.5625 -7.921875 C 2.738281 -7.742188 2.828125 -7.519531 2.828125 -7.25 L 2.828125 -7.046875 C 3.066406 -7.460938 3.40625 -7.78125 3.84375 -8 C 4.28125 -8.226562 4.75 -8.34375 5.25 -8.34375 Z M 5.25 -8.34375 "/></g></g></g><g fill="#000000" fill-opacity="1"><g transform="translate(165.538913, 213.744406)"><g><path d="M 1.8125 -0.015625 C 1.507812 -0.015625 1.28125 -0.09375 1.125 -0.25 C 0.96875 -0.40625 0.890625 -0.632812 0.890625 -0.9375 L 0.890625 -1.1875 C 0.890625 -1.488281 0.96875 -1.71875 1.125 -1.875 C 1.28125 -2.03125 1.507812 -2.109375 1.8125 -2.109375 L 2 -2.109375 C 2.300781 -2.109375 2.53125 -2.03125 2.6875 -1.875 C 2.84375 -1.71875 2.921875 -1.488281 2.921875 -1.1875 L 2.921875 -0.9375 C 2.921875 -0.632812 2.84375 -0.40625 2.6875 -0.25 C 2.53125 -0.09375 2.300781 -0.015625 2 -0.015625 Z M 1.8125 -0.015625 "/></g></g></g><g fill="#000000" fill-opacity="1"><g transform="translate(179.326991, 213.744406)"><g><path d="M 10.4375 -8.34375 C 11.445312 -8.34375 12.144531 -8.03125 12.53125 -7.40625 C 12.914062 -6.789062 13.109375 -5.9375 13.109375 -4.84375 L 13.109375 -0.9375 C 13.109375 -0.664062 13.019531 -0.441406 12.84375 -0.265625 C 12.675781 -0.0859375 12.457031 0 12.1875 0 C 11.925781 0 11.707031 -0.0859375 11.53125 -0.265625 C 11.363281 -0.441406 11.28125 -0.664062 11.28125 -0.9375 L 11.28125 -4.84375 C 11.28125 -5.40625 11.164062 -5.847656 10.9375 -6.171875 C 10.71875 -6.492188 10.335938 -6.65625 9.796875 -6.65625 C 9.222656 -6.65625 8.773438 -6.484375 8.453125 -6.140625 C 8.128906 -5.796875 7.96875 -5.363281 7.96875 -4.84375 L 7.96875 -0.9375 C 7.96875 -0.664062 7.878906 -0.441406 7.703125 -0.265625 C 7.535156 -0.0859375 7.316406 0 7.046875 0 C 6.785156 0 6.566406 -0.0859375 6.390625 -0.265625 C 6.222656 -0.441406 6.140625 -0.664062 6.140625 -0.9375 L 6.140625 -4.84375 C 6.140625 -5.40625 6.023438 -5.847656 5.796875 -6.171875 C 5.578125 -6.492188 5.195312 -6.65625 4.65625 -6.65625 C 4.082031 -6.65625 3.632812 -6.484375 3.3125 -6.140625 C 2.988281 -5.796875 2.828125 -5.363281 2.828125 -4.84375 L 2.828125 -0.9375 C 2.828125 -0.664062 2.738281 -0.441406 2.5625 -0.265625 C 2.394531 -0.0859375 2.175781 0 1.90625 0 C 1.644531 0 1.425781 -0.0859375 1.25 -0.265625 C 1.082031 -0.441406 1 -0.664062 1 -0.9375 L 1 -7.25 C 1 -7.519531 1.082031 -7.742188 1.25 -7.921875 C 1.425781 -8.097656 1.644531 -8.1875 1.90625 -8.1875 C 2.175781 -8.1875 2.394531 -8.097656 2.5625 -7.921875 C 2.738281 -7.742188 2.828125 -7.519531 2.828125 -7.25 L 2.828125 -7 C 3.109375 -7.375 3.457031 -7.691406 3.875 -7.953125 C 4.300781 -8.210938 4.773438 -8.34375 5.296875 -8.34375 C 6.578125 -8.34375 7.394531 -7.78125 7.75 -6.65625 C 7.988281 -7.082031 8.34375 -7.46875 8.8125 -7.8125 C 9.289062 -8.164062 9.832031 -8.34375 10.4375 -8.34375 Z M 10.4375 -8.34375 "/></g></g></g><g fill="#000000" fill-opacity="1"><g transform="translate(203.407173, 213.744406)"><g><path d="M 8.34375 -4.28125 C 8.332031 -4.039062 8.234375 -3.84375 8.046875 -3.6875 C 7.859375 -3.53125 7.644531 -3.453125 7.40625 -3.453125 L 2.359375 -3.453125 C 2.484375 -2.847656 2.765625 -2.375 3.203125 -2.03125 C 3.640625 -1.695312 4.132812 -1.53125 4.6875 -1.53125 C 5.101562 -1.53125 5.425781 -1.566406 5.65625 -1.640625 C 5.894531 -1.722656 6.082031 -1.804688 6.21875 -1.890625 C 6.351562 -1.972656 6.445312 -2.03125 6.5 -2.0625 C 6.6875 -2.15625 6.859375 -2.203125 7.015625 -2.203125 C 7.234375 -2.203125 7.414062 -2.125 7.5625 -1.96875 C 7.71875 -1.820312 7.796875 -1.644531 7.796875 -1.4375 C 7.796875 -1.164062 7.65625 -0.914062 7.375 -0.6875 C 7.082031 -0.457031 6.695312 -0.257812 6.21875 -0.09375 C 5.738281 0.0703125 5.253906 0.15625 4.765625 0.15625 C 3.910156 0.15625 3.164062 -0.0195312 2.53125 -0.375 C 1.894531 -0.738281 1.398438 -1.234375 1.046875 -1.859375 C 0.703125 -2.484375 0.53125 -3.191406 0.53125 -3.984375 C 0.53125 -4.859375 0.710938 -5.625 1.078125 -6.28125 C 1.453125 -6.945312 1.9375 -7.457031 2.53125 -7.8125 C 3.132812 -8.164062 3.78125 -8.34375 4.46875 -8.34375 C 5.132812 -8.34375 5.765625 -8.15625 6.359375 -7.78125 C 6.960938 -7.414062 7.441406 -6.921875 7.796875 -6.296875 C 8.160156 -5.679688 8.34375 -5.007812 8.34375 -4.28125 Z M 4.46875 -6.65625 C 3.28125 -6.65625 2.582031 -6.097656 2.375 -4.984375 L 6.375 -4.984375 L 6.375 -5.09375 C 6.332031 -5.519531 6.125 -5.882812 5.75 -6.1875 C 5.375 -6.5 4.945312 -6.65625 4.46875 -6.65625 Z M 4.46875 -6.65625 "/></g></g></g><g fill="#000000" fill-opacity="1"><g transform="translate(222.257187, 213.744406)"><g><path d="M 7.625 -11.3125 C 7.882812 -11.3125 8.097656 -11.222656 8.265625 -11.046875 C 8.441406 -10.878906 8.53125 -10.660156 8.53125 -10.390625 L 8.53125 -0.9375 C 8.53125 -0.664062 8.441406 -0.441406 8.265625 -0.265625 C 8.097656 -0.0859375 7.882812 0 7.625 0 C 7.351562 0 7.132812 -0.0820312 6.96875 -0.25 C 6.800781 -0.425781 6.710938 -0.648438 6.703125 -0.921875 C 6.441406 -0.617188 6.09375 -0.363281 5.65625 -0.15625 C 5.226562 0.0507812 4.773438 0.15625 4.296875 0.15625 C 3.597656 0.15625 2.960938 -0.0234375 2.390625 -0.390625 C 1.816406 -0.753906 1.363281 -1.253906 1.03125 -1.890625 C 0.695312 -2.535156 0.53125 -3.265625 0.53125 -4.078125 C 0.53125 -4.898438 0.691406 -5.632812 1.015625 -6.28125 C 1.347656 -6.925781 1.796875 -7.429688 2.359375 -7.796875 C 2.929688 -8.160156 3.554688 -8.34375 4.234375 -8.34375 C 4.722656 -8.34375 5.179688 -8.25 5.609375 -8.0625 C 6.035156 -7.882812 6.398438 -7.660156 6.703125 -7.390625 L 6.703125 -10.390625 C 6.703125 -10.648438 6.785156 -10.867188 6.953125 -11.046875 C 7.128906 -11.222656 7.351562 -11.3125 7.625 -11.3125 Z M 4.53125 -1.53125 C 5.1875 -1.53125 5.722656 -1.769531 6.140625 -2.25 C 6.566406 -2.738281 6.78125 -3.347656 6.78125 -4.078125 C 6.78125 -4.816406 6.566406 -5.429688 6.140625 -5.921875 C 5.722656 -6.410156 5.1875 -6.65625 4.53125 -6.65625 C 3.875 -6.65625 3.335938 -6.410156 2.921875 -5.921875 C 2.503906 -5.429688 2.296875 -4.816406 2.296875 -4.078125 C 2.296875 -3.347656 2.5 -2.738281 2.90625 -2.25 C 3.320312 -1.769531 3.863281 -1.53125 4.53125 -1.53125 Z M 4.53125 -1.53125 "/></g></g></g><g fill="#000000" fill-opacity="1"><g transform="translate(241.764807, 213.744406)"><g><path d="M 1.8125 -0.015625 C 1.507812 -0.015625 1.28125 -0.09375 1.125 -0.25 C 0.96875 -0.40625 0.890625 -0.632812 0.890625 -0.9375 L 0.890625 -1.1875 C 0.890625 -1.488281 0.96875 -1.71875 1.125 -1.875 C 1.28125 -2.03125 1.507812 -2.109375 1.8125 -2.109375 L 2 -2.109375 C 2.300781 -2.109375 2.53125 -2.03125 2.6875 -1.875 C 2.84375 -1.71875 2.921875 -1.488281 2.921875 -1.1875 L 2.921875 -0.9375 C 2.921875 -0.632812 2.84375 -0.40625 2.6875 -0.25 C 2.53125 -0.09375 2.300781 -0.015625 2 -0.015625 Z M 1.8125 -0.015625 "/></g></g></g></svg>