<svg xmlns="http://www.w3.org/2000/svg" xmlns:xlink="http://www.w3.org/1999/xlink" width="60" zoomAndPan="magnify" viewBox="0 0 45 44.999999" height="60" preserveAspectRatio="xMidYMid meet" version="1.0"><defs><clipPath id="6638c93baf"><path d="M 5 18 L 21 18 L 21 36 L 5 36 Z M 5 18 " clip-rule="nonzero"/></clipPath><clipPath id="ec3e268d5e"><path d="M 3.996094 21.09375 L 17.679688 17.117188 L 23.960938 38.722656 L 10.277344 42.699219 Z M 3.996094 21.09375 " clip-rule="nonzero"/></clipPath><clipPath id="8636beff59"><path d="M 3.996094 21.09375 L 17.679688 17.117188 L 23.960938 38.722656 L 10.277344 42.699219 Z M 3.996094 21.09375 " clip-rule="nonzero"/></clipPath><clipPath id="9d931f688e"><path d="M 13 37 L 18 37 L 18 42 L 13 42 Z M 13 37 " clip-rule="nonzero"/></clipPath><clipPath id="cc21e5c11b"><path d="M 3.996094 21.09375 L 17.679688 17.117188 L 23.960938 38.722656 L 10.277344 42.699219 Z M 3.996094 21.09375 " clip-rule="nonzero"/></clipPath><clipPath id="26b886ad4c"><path d="M 3.996094 21.09375 L 17.679688 17.117188 L 23.960938 38.722656 L 10.277344 42.699219 Z M 3.996094 21.09375 " clip-rule="nonzero"/></clipPath><clipPath id="2d7ae98ab2"><path d="M 16 2 L 32 2 L 32 20 L 16 20 Z M 16 2 " clip-rule="nonzero"/></clipPath><clipPath id="c939dda93b"><path d="M 16.492188 2.769531 L 30.730469 2.253906 L 31.546875 24.738281 L 17.308594 25.253906 Z M 16.492188 2.769531 " clip-rule="nonzero"/></clipPath><clipPath id="ddf69d3cb0"><path d="M 16.492188 2.769531 L 30.730469 2.253906 L 31.546875 24.738281 L 17.308594 25.253906 Z M 16.492188 2.769531 " clip-rule="nonzero"/></clipPath><clipPath id="a3f27706a7"><path d="M 21 20 L 26 20 L 26 26 L 21 26 Z M 21 20 " clip-rule="nonzero"/></clipPath><clipPath id="f287539286"><path d="M 16.492188 2.769531 L 30.730469 2.253906 L 31.546875 24.738281 L 17.308594 25.253906 Z M 16.492188 2.769531 " clip-rule="nonzero"/></clipPath><clipPath id="0338ca4bca"><path d="M 16.492188 2.769531 L 30.730469 2.253906 L 31.546875 24.738281 L 17.308594 25.253906 Z M 16.492188 2.769531 " clip-rule="nonzero"/></clipPath><clipPath id="867a7c7329"><path d="M 28 18 L 40 18 L 40 32 L 28 32 Z M 28 18 " clip-rule="nonzero"/></clipPath><clipPath id="a75bda8132"><path d="M 30.386719 17.09375 L 40.90625 21.074219 L 34.535156 37.910156 L 24.011719 33.925781 Z M 30.386719 17.09375 " clip-rule="nonzero"/></clipPath><clipPath id="b4f80768f9"><path d="M 30.386719 17.09375 L 40.90625 21.074219 L 34.535156 37.910156 L 24.011719 33.925781 Z M 30.386719 17.09375 " clip-rule="nonzero"/></clipPath><clipPath id="6ede77d05f"><path d="M 27 32 L 31 32 L 31 36 L 27 36 Z M 27 32 " clip-rule="nonzero"/></clipPath><clipPath id="9010754209"><path d="M 30.386719 17.09375 L 40.90625 21.074219 L 34.535156 37.910156 L 24.011719 33.925781 Z M 30.386719 17.09375 " clip-rule="nonzero"/></clipPath><clipPath id="72cce79e08"><path d="M 30.386719 17.09375 L 40.90625 21.074219 L 34.535156 37.910156 L 24.011719 33.925781 Z M 30.386719 17.09375 " clip-rule="nonzero"/></clipPath></defs><g clip-path="url(#6638c93baf)"><g clip-path="url(#ec3e268d5e)"><g clip-path="url(#8636beff59)"><path fill="#fe7624" d="M 14.667969 35.78125 C 13.578125 36.097656 12.441406 35.472656 12.128906 34.382812 L 11.363281 31.761719 C 11.046875 30.675781 11.671875 29.535156 12.761719 29.222656 C 13.152344 29.101562 16.503906 27.421875 15.742188 24.796875 C 15.359375 23.484375 13.667969 22.554688 11.699219 23.128906 C 10.097656 23.59375 9.457031 25.203125 9.648438 25.859375 C 9.964844 26.945312 9.339844 28.082031 8.253906 28.398438 C 7.164062 28.714844 6.027344 28.089844 5.714844 27 C 4.78125 23.800781 7 20.226562 10.554688 19.191406 C 15.804688 17.667969 18.910156 21.019531 19.867188 24.308594 C 20.65625 27.027344 19.769531 29.539062 17.363281 31.382812 C 16.839844 31.785156 16.300781 32.109375 15.808594 32.367188 L 16.0625 33.238281 C 16.378906 34.328125 15.753906 35.464844 14.667969 35.78125 Z M 14.667969 35.78125 " fill-opacity="1" fill-rule="nonzero"/></g></g></g><g clip-path="url(#9d931f688e)"><g clip-path="url(#cc21e5c11b)"><g clip-path="url(#26b886ad4c)"><path fill="#fe7624" d="M 17.585938 38.488281 C 17.664062 38.75 17.6875 39.011719 17.65625 39.285156 C 17.628906 39.554688 17.546875 39.808594 17.414062 40.046875 C 17.285156 40.285156 17.113281 40.488281 16.902344 40.65625 C 16.6875 40.828125 16.453125 40.949219 16.191406 41.027344 C 15.929688 41.101562 15.664062 41.125 15.394531 41.097656 C 15.125 41.066406 14.871094 40.984375 14.632812 40.855469 C 14.394531 40.722656 14.191406 40.550781 14.019531 40.339844 C 13.851562 40.128906 13.726562 39.890625 13.652344 39.632812 C 13.578125 39.371094 13.554688 39.105469 13.582031 38.835938 C 13.613281 38.566406 13.691406 38.308594 13.824219 38.074219 C 13.953125 37.835938 14.125 37.628906 14.339844 37.460938 C 14.550781 37.289062 14.785156 37.167969 15.046875 37.089844 C 15.308594 37.015625 15.574219 36.992188 15.84375 37.023438 C 16.113281 37.050781 16.367188 37.132812 16.605469 37.261719 C 16.84375 37.394531 17.050781 37.566406 17.21875 37.777344 C 17.390625 37.988281 17.511719 38.226562 17.585938 38.488281 Z M 17.585938 38.488281 " fill-opacity="1" fill-rule="nonzero"/></g></g></g><g clip-path="url(#2d7ae98ab2)"><g clip-path="url(#c939dda93b)"><g clip-path="url(#ddf69d3cb0)"><path fill="#fe7624" d="M 23.253906 19.613281 C 22.121094 19.65625 21.171875 18.773438 21.132812 17.640625 L 21.03125 14.910156 C 20.992188 13.78125 21.875 12.832031 23.007812 12.789062 C 23.417969 12.769531 27.078125 11.957031 26.976562 9.226562 C 26.929688 7.863281 25.511719 6.546875 23.464844 6.621094 C 21.800781 6.683594 20.785156 8.085938 20.808594 8.769531 C 20.851562 9.898438 19.96875 10.847656 18.835938 10.890625 C 17.707031 10.929688 16.753906 10.046875 16.714844 8.917969 C 16.59375 5.585938 19.617188 2.660156 23.316406 2.527344 C 28.777344 2.328125 30.972656 6.335938 31.097656 9.761719 C 31.199219 12.589844 29.726562 14.808594 26.941406 16.007812 C 26.335938 16.269531 25.734375 16.453125 25.195312 16.582031 L 25.226562 17.492188 C 25.269531 18.625 24.382812 19.574219 23.253906 19.613281 Z M 23.253906 19.613281 " fill-opacity="1" fill-rule="nonzero"/></g></g></g><g clip-path="url(#a3f27706a7)"><g clip-path="url(#f287539286)"><g clip-path="url(#0338ca4bca)"><path fill="#fe7624" d="M 25.425781 22.953125 C 25.433594 23.226562 25.390625 23.488281 25.296875 23.742188 C 25.203125 23.996094 25.0625 24.226562 24.878906 24.421875 C 24.691406 24.621094 24.476562 24.777344 24.230469 24.890625 C 23.984375 25.003906 23.722656 25.066406 23.453125 25.074219 C 23.179688 25.085938 22.917969 25.042969 22.664062 24.949219 C 22.40625 24.855469 22.179688 24.714844 21.980469 24.527344 C 21.78125 24.34375 21.625 24.128906 21.515625 23.878906 C 21.402344 23.632812 21.339844 23.375 21.328125 23.101562 C 21.320312 22.832031 21.363281 22.566406 21.457031 22.3125 C 21.550781 22.058594 21.691406 21.832031 21.875 21.632812 C 22.0625 21.433594 22.277344 21.277344 22.523438 21.164062 C 22.773438 21.050781 23.03125 20.992188 23.304688 20.980469 C 23.574219 20.96875 23.835938 21.011719 24.09375 21.109375 C 24.347656 21.203125 24.574219 21.34375 24.773438 21.527344 C 24.972656 21.710938 25.128906 21.929688 25.242188 22.175781 C 25.355469 22.421875 25.414062 22.683594 25.425781 22.953125 Z M 25.425781 22.953125 " fill-opacity="1" fill-rule="nonzero"/></g></g></g><g clip-path="url(#867a7c7329)"><g clip-path="url(#a75bda8132)"><g clip-path="url(#b4f80768f9)"><path fill="#feba91" d="M 30.148438 31.449219 C 29.3125 31.132812 28.890625 30.195312 29.207031 29.359375 L 29.972656 27.335938 C 30.289062 26.5 31.226562 26.078125 32.0625 26.394531 C 32.367188 26.507812 35.285156 27.039062 36.050781 25.019531 C 36.433594 24.007812 35.804688 22.613281 34.289062 22.039062 C 33.054688 21.574219 31.886719 22.285156 31.695312 22.792969 C 31.375 23.628906 30.441406 24.050781 29.605469 23.734375 C 28.765625 23.414062 28.347656 22.480469 28.664062 21.644531 C 29.597656 19.179688 32.699219 17.972656 35.4375 19.007812 C 39.476562 20.539062 39.847656 24.136719 38.890625 26.671875 C 38.097656 28.765625 36.339844 29.929688 33.941406 29.949219 C 33.421875 29.957031 32.925781 29.902344 32.492188 29.832031 L 32.238281 30.507812 C 31.921875 31.34375 30.984375 31.765625 30.148438 31.449219 Z M 30.148438 31.449219 " fill-opacity="1" fill-rule="nonzero"/></g></g></g><g clip-path="url(#6ede77d05f)"><g clip-path="url(#9010754209)"><g clip-path="url(#72cce79e08)"><path fill="#feba91" d="M 30.707031 34.546875 C 30.632812 34.75 30.519531 34.925781 30.375 35.082031 C 30.226562 35.242188 30.054688 35.363281 29.859375 35.449219 C 29.664062 35.539062 29.457031 35.585938 29.242188 35.59375 C 29.027344 35.601562 28.820312 35.566406 28.617188 35.488281 C 28.417969 35.414062 28.238281 35.300781 28.082031 35.15625 C 27.925781 35.007812 27.804688 34.835938 27.714844 34.640625 C 27.628906 34.445312 27.578125 34.238281 27.574219 34.023438 C 27.566406 33.808594 27.601562 33.601562 27.675781 33.398438 C 27.753906 33.199219 27.863281 33.019531 28.011719 32.863281 C 28.160156 32.707031 28.332031 32.585938 28.527344 32.496094 C 28.722656 32.40625 28.929688 32.359375 29.144531 32.355469 C 29.359375 32.347656 29.566406 32.382812 29.765625 32.457031 C 29.96875 32.535156 30.144531 32.644531 30.304688 32.792969 C 30.460938 32.941406 30.582031 33.113281 30.671875 33.308594 C 30.757812 33.503906 30.804688 33.710938 30.8125 33.925781 C 30.820312 34.136719 30.785156 34.347656 30.707031 34.546875 Z M 30.707031 34.546875 " fill-opacity="1" fill-rule="nonzero"/></g></g></g></svg>