<svg xmlns="http://www.w3.org/2000/svg" xmlns:xlink="http://www.w3.org/1999/xlink" width="200" zoomAndPan="magnify" viewBox="0 0 150 89.999999" height="120" preserveAspectRatio="xMidYMid meet" version="1.0"><defs><g/><clipPath id="16b9e5d61e"><path d="M 130.039062 22.339844 L 133.898438 22.339844 L 133.898438 25.507812 L 130.039062 25.507812 Z M 130.039062 22.339844 " clip-rule="nonzero"/></clipPath><clipPath id="eb100495d6"><path d="M 130.050781 25.050781 C 133.648438 22.273438 133.875 22.800781 133.875 22.800781 C 133.800781 22.800781 133.273438 22.351562 133.273438 22.351562 C 133.273438 22.351562 133.800781 22.648438 133.800781 22.875 C 133.800781 23.398438 131.175781 25.5 130.574219 25.5 C 130.273438 25.5 130.050781 25.050781 130.050781 25.050781 " clip-rule="nonzero"/></clipPath></defs><g fill="#000000" fill-opacity="1"><g transform="translate(16.751279, 52.326735)"><g><path d="M 42.9375 -34.0625 C 43.125 -33.945312 43.296875 -33.8125 43.453125 -33.65625 C 43.609375 -33.507812 43.722656 -33.332031 43.796875 -33.125 C 43.878906 -32.875 43.816406 -32.660156 43.609375 -32.484375 C 43.484375 -32.390625 43.351562 -32.359375 43.21875 -32.390625 C 43.082031 -32.421875 42.976562 -32.503906 42.90625 -32.640625 C 42.695312 -33.023438 42.421875 -33.3125 42.078125 -33.5 C 41.742188 -33.6875 41.394531 -33.835938 41.03125 -33.953125 C 40.1875 -34.222656 39.335938 -34.421875 38.484375 -34.546875 C 37.628906 -34.671875 36.769531 -34.753906 35.90625 -34.796875 C 34.476562 -34.867188 32.601562 -34.765625 30.28125 -34.484375 C 27.96875 -34.203125 25.410156 -33.753906 22.609375 -33.140625 C 19.816406 -32.523438 16.976562 -31.75 14.09375 -30.8125 C 11.207031 -29.882812 8.476562 -28.804688 5.90625 -27.578125 C 3.34375 -26.359375 1.132812 -25 -0.71875 -23.5 C -2.582031 -22 -3.890625 -20.378906 -4.640625 -18.640625 C -5.265625 -17.128906 -5.195312 -15.648438 -4.4375 -14.203125 C -3.90625 -13.210938 -3.226562 -12.34375 -2.40625 -11.59375 C -1.175781 -10.476562 0.144531 -9.484375 1.5625 -8.609375 C 2.75 -7.816406 3.953125 -7.039062 5.171875 -6.28125 C 6.347656 -5.53125 7.53125 -4.765625 8.71875 -3.984375 C 10.050781 -3.109375 11.359375 -2.222656 12.640625 -1.328125 C 12.765625 -1.242188 12.890625 -1.160156 13.015625 -1.078125 C 13.703125 -0.617188 14.335938 -0.078125 14.921875 0.546875 C 15.503906 1.253906 15.6875 1.84375 15.46875 2.3125 C 15.25 2.789062 14.742188 3.171875 13.953125 3.453125 C 13.171875 3.734375 12.242188 3.929688 11.171875 4.046875 C 10.097656 4.160156 8.992188 4.203125 7.859375 4.171875 C 6.734375 4.140625 5.726562 4.046875 4.84375 3.890625 C 3.957031 3.742188 3.3125 3.539062 2.90625 3.28125 C 2.101562 2.75 1.945312 2.070312 2.4375 1.25 C 2.96875 0.40625 3.675781 -0.257812 4.5625 -0.75 C 5.832031 -1.5 7.203125 -1.765625 8.671875 -1.546875 C 8.941406 -1.484375 9.21875 -1.394531 9.5 -1.28125 C 9.519531 -1.28125 9.539062 -1.269531 9.5625 -1.25 C 9.644531 -1.21875 9.703125 -1.164062 9.734375 -1.09375 C 9.765625 -1.03125 9.765625 -0.957031 9.734375 -0.875 C 9.640625 -0.71875 9.507812 -0.65625 9.34375 -0.6875 C 9.1875 -0.71875 9.035156 -0.757812 8.890625 -0.8125 C 7.847656 -1.132812 6.835938 -1.078125 5.859375 -0.640625 C 4.890625 -0.203125 4.125 0.488281 3.5625 1.4375 C 3.320312 1.894531 3.363281 2.25 3.6875 2.5 C 4.007812 2.757812 4.46875 2.953125 5.0625 3.078125 C 5.664062 3.203125 6.257812 3.273438 6.84375 3.296875 C 7.425781 3.316406 7.863281 3.328125 8.15625 3.328125 C 8.21875 3.316406 8.257812 3.316406 8.28125 3.328125 C 8.332031 3.316406 8.398438 3.3125 8.484375 3.3125 C 8.859375 3.332031 9.363281 3.332031 10 3.3125 C 10.632812 3.300781 11.289062 3.257812 11.96875 3.1875 C 12.644531 3.125 13.207031 2.988281 13.65625 2.78125 C 14.113281 2.582031 14.34375 2.304688 14.34375 1.953125 C 14.34375 1.597656 13.992188 1.125 13.296875 0.53125 C 12.554688 -0.0820312 11.773438 -0.675781 10.953125 -1.25 C 8.941406 -2.65625 6.882812 -4 4.78125 -5.28125 C 4.03125 -5.78125 3.28125 -6.269531 2.53125 -6.75 C 1.269531 -7.5625 0.03125 -8.394531 -1.1875 -9.25 C -2.320312 -10.039062 -3.359375 -10.945312 -4.296875 -11.96875 C -4.960938 -12.71875 -5.484375 -13.546875 -5.859375 -14.453125 C -6.441406 -15.960938 -6.382812 -17.460938 -5.6875 -18.953125 C -4.9375 -20.597656 -3.71875 -22.144531 -2.03125 -23.59375 C -0.34375 -25.039062 1.664062 -26.375 4 -27.59375 C 6.34375 -28.8125 8.875 -29.894531 11.59375 -30.84375 C 14.3125 -31.800781 17.082031 -32.613281 19.90625 -33.28125 C 22.726562 -33.957031 25.453125 -34.472656 28.078125 -34.828125 C 30.710938 -35.191406 33.117188 -35.378906 35.296875 -35.390625 C 37.484375 -35.410156 39.300781 -35.242188 40.75 -34.890625 C 41.507812 -34.722656 42.238281 -34.445312 42.9375 -34.0625 Z M 42.9375 -34.0625 "/></g></g><g transform="translate(30.226496, 50.138041)"><g><path d="M 5.875 -5.734375 C 6.03125 -5.671875 6.070312 -5.472656 6 -5.140625 C 5.863281 -4.890625 5.710938 -4.644531 5.546875 -4.40625 C 5.378906 -4.164062 5.1875 -3.953125 4.96875 -3.765625 C 4.945312 -3.753906 4.9375 -3.742188 4.9375 -3.734375 C 4.8125 -3.597656 4.660156 -3.476562 4.484375 -3.375 C 3.117188 -2.601562 2.332031 -2.785156 2.125 -3.921875 C 1.601562 -3.328125 1.257812 -2.953125 1.09375 -2.796875 C 0.644531 -2.429688 0.140625 -2.210938 -0.421875 -2.140625 C -0.835938 -2.109375 -1.140625 -2.191406 -1.328125 -2.390625 C -1.515625 -2.597656 -1.550781 -2.910156 -1.4375 -3.328125 C -1.28125 -3.984375 -0.988281 -4.597656 -0.5625 -5.171875 C -0.0703125 -5.796875 0.492188 -6.332031 1.140625 -6.78125 C 1.492188 -7.019531 1.878906 -7.148438 2.296875 -7.171875 C 2.734375 -7.210938 3.023438 -7.019531 3.171875 -6.59375 C 3.222656 -6.457031 3.207031 -6.332031 3.125 -6.21875 C 3.007812 -6.070312 2.859375 -6.019531 2.671875 -6.0625 C 2.660156 -6.0625 2.644531 -6.0625 2.625 -6.0625 C 2.601562 -6.0625 2.585938 -6.066406 2.578125 -6.078125 C 2.347656 -6.296875 2.144531 -6.367188 1.96875 -6.296875 C 1.800781 -6.234375 1.628906 -6.125 1.453125 -5.96875 C 0.597656 -5.269531 0.0234375 -4.390625 -0.265625 -3.328125 C -0.285156 -3.273438 -0.289062 -3.222656 -0.28125 -3.171875 C -0.28125 -3.117188 -0.257812 -3.082031 -0.21875 -3.0625 C -0.101562 -3.050781 0.0078125 -3.082031 0.125 -3.15625 C 0.25 -3.226562 0.367188 -3.320312 0.484375 -3.4375 C 0.609375 -3.5625 0.710938 -3.664062 0.796875 -3.75 C 0.804688 -3.769531 0.8125 -3.78125 0.8125 -3.78125 C 1.1875 -4.226562 1.5625 -4.679688 1.9375 -5.140625 C 2.09375 -5.367188 2.3125 -5.519531 2.59375 -5.59375 C 3 -5.664062 3.191406 -5.515625 3.171875 -5.140625 C 3.160156 -4.992188 3.140625 -4.851562 3.109375 -4.71875 C 3.046875 -4.101562 3.097656 -3.757812 3.265625 -3.6875 C 3.429688 -3.613281 3.65625 -3.648438 3.9375 -3.796875 C 4.21875 -3.941406 4.488281 -4.179688 4.75 -4.515625 C 5.007812 -4.847656 5.222656 -5.148438 5.390625 -5.421875 C 5.554688 -5.691406 5.71875 -5.796875 5.875 -5.734375 Z M 5.875 -5.734375 "/></g></g><g transform="translate(36.287601, 49.153573)"><g><path d="M 6.5 -5.734375 C 6.613281 -5.628906 6.53125 -5.382812 6.25 -5 C 5.96875 -4.625 5.648438 -4.296875 5.296875 -4.015625 C 4.941406 -3.734375 4.53125 -3.441406 4.0625 -3.140625 C 3.75 -2.941406 3.398438 -2.832031 3.015625 -2.8125 C 2.640625 -2.800781 2.414062 -3 2.34375 -3.40625 C 2.28125 -3.820312 2.304688 -4.242188 2.421875 -4.671875 C 2.535156 -5.117188 2.539062 -5.34375 2.4375 -5.34375 C 2.332031 -5.34375 2.128906 -5.207031 1.828125 -4.9375 C 1.046875 -4.21875 0.34375 -3.425781 -0.28125 -2.5625 C -0.445312 -2.289062 -0.675781 -2.113281 -0.96875 -2.03125 C -1.132812 -2.007812 -1.269531 -2.039062 -1.375 -2.125 C -1.476562 -2.21875 -1.507812 -2.328125 -1.46875 -2.453125 C -1.09375 -3.546875 -0.707031 -4.613281 -0.3125 -5.65625 C -0.226562 -5.882812 -0.0664062 -6.039062 0.171875 -6.125 C 0.273438 -6.15625 0.378906 -6.132812 0.484375 -6.0625 C 0.585938 -6 0.644531 -5.914062 0.65625 -5.8125 C 0.664062 -5.71875 0.644531 -5.597656 0.59375 -5.453125 C 0.570312 -5.367188 0.550781 -5.289062 0.53125 -5.21875 C 0.519531 -5.144531 0.523438 -5.082031 0.546875 -5.03125 C 0.566406 -4.976562 0.601562 -4.96875 0.65625 -5 C 0.75 -5.0625 0.835938 -5.128906 0.921875 -5.203125 C 1.117188 -5.367188 1.316406 -5.535156 1.515625 -5.703125 C 1.679688 -5.828125 1.863281 -5.945312 2.0625 -6.0625 C 2.257812 -6.1875 2.46875 -6.285156 2.6875 -6.359375 C 3.050781 -6.429688 3.320312 -6.390625 3.5 -6.234375 C 3.675781 -6.078125 3.738281 -5.816406 3.6875 -5.453125 C 3.613281 -5.117188 3.535156 -4.796875 3.453125 -4.484375 C 3.335938 -4.179688 3.34375 -3.96875 3.46875 -3.84375 C 3.601562 -3.71875 4.082031 -3.960938 4.90625 -4.578125 L 5.53125 -5.109375 C 6.113281 -5.628906 6.4375 -5.835938 6.5 -5.734375 Z M 6.5 -5.734375 "/></g></g><g transform="translate(42.988642, 48.065165)"><g><path d="M 0.71875 -8.078125 C 0.570312 -7.847656 0.414062 -7.722656 0.25 -7.703125 C 0.0820312 -7.691406 0.0078125 -7.851562 0.03125 -8.1875 C 0.0390625 -8.707031 0.1875 -9.195312 0.46875 -9.65625 C 0.53125 -9.726562 0.609375 -9.78125 0.703125 -9.8125 C 0.796875 -9.84375 0.890625 -9.84375 0.984375 -9.8125 C 1.035156 -9.789062 1.082031 -9.757812 1.125 -9.71875 C 1.175781 -9.675781 1.207031 -9.632812 1.21875 -9.59375 C 1.21875 -9.039062 1.050781 -8.535156 0.71875 -8.078125 Z M 3.46875 -5.40625 C 3.507812 -5.414062 3.550781 -5.410156 3.59375 -5.390625 C 3.632812 -5.378906 3.660156 -5.359375 3.671875 -5.328125 C 3.671875 -5.304688 3.671875 -5.273438 3.671875 -5.234375 C 3.671875 -5.191406 3.65625 -5.148438 3.625 -5.109375 C 3.5 -4.960938 3.359375 -4.828125 3.203125 -4.703125 C 2.921875 -4.472656 2.644531 -4.242188 2.375 -4.015625 C 1.675781 -3.390625 0.960938 -2.796875 0.234375 -2.234375 C -0.347656 -1.804688 -0.703125 -1.25 -0.828125 -0.5625 C -1.160156 0.78125 -1.519531 2.109375 -1.90625 3.421875 C -2.070312 4.054688 -2.265625 4.671875 -2.484375 5.265625 C -2.703125 5.859375 -2.96875 6.445312 -3.28125 7.03125 C -3.90625 8.15625 -4.8125 8.894531 -6 9.25 C -6.96875 9.53125 -7.929688 9.628906 -8.890625 9.546875 C -9.660156 9.460938 -10.394531 9.273438 -11.09375 8.984375 C -11.351562 8.867188 -11.601562 8.734375 -11.84375 8.578125 C -12.90625 7.878906 -12.9375 6.988281 -11.9375 5.90625 C -11.613281 5.539062 -11.257812 5.207031 -10.875 4.90625 C -10.28125 4.425781 -9.675781 3.972656 -9.0625 3.546875 C -8.269531 2.992188 -7.484375 2.445312 -6.703125 1.90625 C -5.398438 1.019531 -4.117188 0.128906 -2.859375 -0.765625 C -2.609375 -0.953125 -2.398438 -1.09375 -2.234375 -1.1875 C -2.015625 -1.34375 -1.859375 -1.460938 -1.765625 -1.546875 C -1.671875 -1.628906 -1.597656 -1.726562 -1.546875 -1.84375 C -1.492188 -1.96875 -1.441406 -2.160156 -1.390625 -2.421875 C -1.347656 -2.617188 -1.269531 -2.878906 -1.15625 -3.203125 C -1.03125 -3.753906 -0.90625 -4.300781 -0.78125 -4.84375 C -0.695312 -5.21875 -0.609375 -5.59375 -0.515625 -5.96875 C -0.453125 -6.21875 -0.367188 -6.441406 -0.265625 -6.640625 C -0.140625 -6.816406 0.0351562 -6.867188 0.265625 -6.796875 C 0.421875 -6.753906 0.492188 -6.648438 0.484375 -6.484375 C 0.453125 -6.304688 0.394531 -6.003906 0.3125 -5.578125 C 0.238281 -5.234375 0.164062 -4.867188 0.09375 -4.484375 C 0.0195312 -4.097656 -0.0234375 -3.765625 -0.046875 -3.484375 C -0.0664062 -3.210938 -0.0664062 -3.054688 -0.046875 -3.015625 C -0.00390625 -2.984375 0.078125 -3.003906 0.203125 -3.078125 C 0.335938 -3.160156 0.550781 -3.316406 0.84375 -3.546875 C 0.851562 -3.554688 0.859375 -3.5625 0.859375 -3.5625 C 1.328125 -3.9375 1.789062 -4.296875 2.25 -4.640625 C 2.40625 -4.773438 2.570312 -4.921875 2.75 -5.078125 C 2.757812 -5.078125 2.765625 -5.078125 2.765625 -5.078125 C 2.878906 -5.160156 2.988281 -5.238281 3.09375 -5.3125 C 3.207031 -5.382812 3.332031 -5.414062 3.46875 -5.40625 Z M -2.015625 0.109375 C -1.960938 -0.046875 -1.988281 -0.179688 -2.09375 -0.296875 C -2.257812 -0.296875 -2.398438 -0.238281 -2.515625 -0.125 C -2.546875 -0.101562 -2.578125 -0.0859375 -2.609375 -0.078125 C -3.128906 0.285156 -3.648438 0.648438 -4.171875 1.015625 C -5.535156 1.953125 -6.894531 2.890625 -8.25 3.828125 C -8.988281 4.347656 -9.71875 4.910156 -10.4375 5.515625 C -10.738281 5.765625 -11.015625 6.046875 -11.265625 6.359375 C -11.742188 6.960938 -11.734375 7.460938 -11.234375 7.859375 C -11.117188 7.960938 -11.003906 8.050781 -10.890625 8.125 C -10.265625 8.4375 -9.617188 8.65625 -8.953125 8.78125 C -8.285156 8.90625 -7.585938 8.921875 -6.859375 8.828125 C -5.804688 8.648438 -4.984375 8.078125 -4.390625 7.109375 C -3.984375 6.441406 -3.675781 5.742188 -3.46875 5.015625 C -3.101562 3.867188 -2.765625 2.707031 -2.453125 1.53125 C -2.304688 1.0625 -2.160156 0.585938 -2.015625 0.109375 Z M -2.015625 0.109375 "/></g></g><g transform="translate(46.709411, 47.460824)"><g><path d="M 5.875 -5.734375 C 6.03125 -5.671875 6.070312 -5.472656 6 -5.140625 C 5.863281 -4.890625 5.710938 -4.644531 5.546875 -4.40625 C 5.378906 -4.164062 5.1875 -3.953125 4.96875 -3.765625 C 4.945312 -3.753906 4.9375 -3.742188 4.9375 -3.734375 C 4.8125 -3.597656 4.660156 -3.476562 4.484375 -3.375 C 3.117188 -2.601562 2.332031 -2.785156 2.125 -3.921875 C 1.601562 -3.328125 1.257812 -2.953125 1.09375 -2.796875 C 0.644531 -2.429688 0.140625 -2.210938 -0.421875 -2.140625 C -0.835938 -2.109375 -1.140625 -2.191406 -1.328125 -2.390625 C -1.515625 -2.597656 -1.550781 -2.910156 -1.4375 -3.328125 C -1.28125 -3.984375 -0.988281 -4.597656 -0.5625 -5.171875 C -0.0703125 -5.796875 0.492188 -6.332031 1.140625 -6.78125 C 1.492188 -7.019531 1.878906 -7.148438 2.296875 -7.171875 C 2.734375 -7.210938 3.023438 -7.019531 3.171875 -6.59375 C 3.222656 -6.457031 3.207031 -6.332031 3.125 -6.21875 C 3.007812 -6.070312 2.859375 -6.019531 2.671875 -6.0625 C 2.660156 -6.0625 2.644531 -6.0625 2.625 -6.0625 C 2.601562 -6.0625 2.585938 -6.066406 2.578125 -6.078125 C 2.347656 -6.296875 2.144531 -6.367188 1.96875 -6.296875 C 1.800781 -6.234375 1.628906 -6.125 1.453125 -5.96875 C 0.597656 -5.269531 0.0234375 -4.390625 -0.265625 -3.328125 C -0.285156 -3.273438 -0.289062 -3.222656 -0.28125 -3.171875 C -0.28125 -3.117188 -0.257812 -3.082031 -0.21875 -3.0625 C -0.101562 -3.050781 0.0078125 -3.082031 0.125 -3.15625 C 0.25 -3.226562 0.367188 -3.320312 0.484375 -3.4375 C 0.609375 -3.5625 0.710938 -3.664062 0.796875 -3.75 C 0.804688 -3.769531 0.8125 -3.78125 0.8125 -3.78125 C 1.1875 -4.226562 1.5625 -4.679688 1.9375 -5.140625 C 2.09375 -5.367188 2.3125 -5.519531 2.59375 -5.59375 C 3 -5.664062 3.191406 -5.515625 3.171875 -5.140625 C 3.160156 -4.992188 3.140625 -4.851562 3.109375 -4.71875 C 3.046875 -4.101562 3.097656 -3.757812 3.265625 -3.6875 C 3.429688 -3.613281 3.65625 -3.648438 3.9375 -3.796875 C 4.21875 -3.941406 4.488281 -4.179688 4.75 -4.515625 C 5.007812 -4.847656 5.222656 -5.148438 5.390625 -5.421875 C 5.554688 -5.691406 5.71875 -5.796875 5.875 -5.734375 Z M 5.875 -5.734375 "/></g></g><g transform="translate(52.770516, 46.476357)"><g/></g><g transform="translate(59.681821, 45.353797)"><g><path d="M 36.546875 -28.5625 C 36.515625 -28.457031 36.484375 -28.347656 36.453125 -28.234375 C 36.210938 -27.046875 35.9375 -25.878906 35.625 -24.734375 C 33.9375 -19.023438 32.03125 -13.453125 29.90625 -8.015625 C 29.21875 -6.265625 28.5 -4.535156 27.75 -2.828125 C 27.007812 -1.128906 26.257812 0.5625 25.5 2.25 C 25.320312 2.644531 25.140625 3.046875 24.953125 3.453125 C 24.941406 3.484375 24.9375 3.503906 24.9375 3.515625 C 24.894531 3.628906 24.84375 3.726562 24.78125 3.8125 C 24.71875 3.894531 24.628906 3.945312 24.515625 3.96875 C 24.460938 3.976562 24.398438 3.972656 24.328125 3.953125 C 24.265625 3.941406 24.210938 3.921875 24.171875 3.890625 C 24.140625 3.859375 24.109375 3.800781 24.078125 3.71875 C 24.046875 3.644531 24.039062 3.578125 24.0625 3.515625 C 24.175781 3.140625 24.300781 2.773438 24.4375 2.421875 C 24.769531 1.609375 25.109375 0.796875 25.453125 -0.015625 C 26.078125 -1.523438 26.695312 -3.035156 27.3125 -4.546875 C 28.65625 -7.921875 29.90625 -11.34375 31.0625 -14.8125 C 32.21875 -18.28125 33.328125 -21.78125 34.390625 -25.3125 C 34.828125 -26.675781 35.132812 -28.109375 35.3125 -29.609375 C 35.351562 -29.878906 35.375 -30.148438 35.375 -30.421875 C 35.382812 -30.691406 35.363281 -30.972656 35.3125 -31.265625 C 35.175781 -31.867188 34.875 -32.09375 34.40625 -31.9375 C 33.976562 -31.789062 33.597656 -31.59375 33.265625 -31.34375 C 32.441406 -30.757812 31.632812 -30.140625 30.84375 -29.484375 C 26.625 -25.890625 22.929688 -21.671875 19.765625 -16.828125 C 19.722656 -16.753906 19.675781 -16.675781 19.625 -16.59375 C 18.519531 -14.9375 17.4375 -13.265625 16.375 -11.578125 C 15.3125 -9.898438 14.285156 -8.1875 13.296875 -6.4375 C 13.097656 -6.0625 12.878906 -5.710938 12.640625 -5.390625 C 12.390625 -5.035156 12.054688 -4.859375 11.640625 -4.859375 C 11.460938 -4.859375 11.300781 -4.921875 11.15625 -5.046875 C 11.019531 -5.179688 10.945312 -5.347656 10.9375 -5.546875 C 10.925781 -6.109375 10.960938 -6.660156 11.046875 -7.203125 C 11.273438 -8.898438 11.539062 -10.585938 11.84375 -12.265625 C 11.882812 -12.503906 11.921875 -12.742188 11.953125 -12.984375 C 11.992188 -13.609375 12.109375 -14.191406 12.296875 -14.734375 C 12.296875 -14.753906 12.289062 -14.765625 12.28125 -14.765625 C 12.207031 -14.785156 12.132812 -14.796875 12.0625 -14.796875 C 12 -14.804688 11.9375 -14.773438 11.875 -14.703125 C 11.675781 -14.398438 11.484375 -14.078125 11.296875 -13.734375 C 9.859375 -10.921875 8.4375 -8.09375 7.03125 -5.25 C 5.632812 -2.40625 4.285156 0.472656 2.984375 3.390625 C 2.867188 3.679688 2.734375 3.921875 2.578125 4.109375 C 2.429688 4.296875 2.203125 4.382812 1.890625 4.375 C 1.753906 4.363281 1.640625 4.300781 1.546875 4.1875 C 1.453125 4.070312 1.414062 3.953125 1.4375 3.828125 C 1.539062 3.429688 1.660156 3.0625 1.796875 2.71875 C 2.179688 1.707031 2.5625 0.691406 2.9375 -0.328125 C 3.695312 -2.335938 4.441406 -4.347656 5.171875 -6.359375 C 6.328125 -9.460938 7.28125 -12.691406 8.03125 -16.046875 C 8.332031 -17.316406 8.523438 -18.644531 8.609375 -20.03125 C 8.660156 -20.769531 8.613281 -21.519531 8.46875 -22.28125 C 8.1875 -23.488281 7.632812 -24.300781 6.8125 -24.71875 C 5.988281 -25.132812 4.976562 -25.226562 3.78125 -25 C 2.582031 -24.78125 1.296875 -24.316406 -0.078125 -23.609375 C -1.460938 -22.910156 -2.859375 -22.054688 -4.265625 -21.046875 C -5.679688 -20.035156 -7.03125 -18.953125 -8.3125 -17.796875 C -9.59375 -16.648438 -10.710938 -15.515625 -11.671875 -14.390625 C -12.628906 -13.265625 -13.347656 -12.238281 -13.828125 -11.3125 C -14.335938 -10.289062 -14.734375 -9.191406 -15.015625 -8.015625 C -15.160156 -7.453125 -15.195312 -6.863281 -15.125 -6.25 C -15.113281 -6.125 -15.160156 -6.019531 -15.265625 -5.9375 C -15.367188 -5.851562 -15.492188 -5.816406 -15.640625 -5.828125 C -15.859375 -5.859375 -16.019531 -6.003906 -16.125 -6.265625 C -16.21875 -6.617188 -16.238281 -6.945312 -16.1875 -7.25 C -16.113281 -8.019531 -15.957031 -8.757812 -15.71875 -9.46875 C -15.289062 -10.726562 -14.546875 -12.0625 -13.484375 -13.46875 C -12.421875 -14.875 -11.144531 -16.257812 -9.65625 -17.625 C -8.175781 -19 -6.59375 -20.265625 -4.90625 -21.421875 C -3.226562 -22.578125 -1.5625 -23.535156 0.09375 -24.296875 C 1.757812 -25.054688 3.289062 -25.523438 4.6875 -25.703125 C 6.082031 -25.878906 7.238281 -25.671875 8.15625 -25.078125 C 9.070312 -24.492188 9.644531 -23.429688 9.875 -21.890625 C 10 -20.890625 10 -19.921875 9.875 -18.984375 C 9.707031 -17.597656 9.46875 -16.25 9.15625 -14.9375 C 8.84375 -13.632812 8.492188 -12.34375 8.109375 -11.0625 C 7.992188 -10.675781 7.984375 -10.492188 8.078125 -10.515625 C 8.179688 -10.546875 8.3125 -10.710938 8.46875 -11.015625 C 9.03125 -12.085938 9.601562 -13.15625 10.1875 -14.21875 C 10.570312 -14.925781 10.976562 -15.617188 11.40625 -16.296875 C 11.4375 -16.398438 11.484375 -16.492188 11.546875 -16.578125 C 11.773438 -16.992188 12.09375 -17.289062 12.5 -17.46875 C 12.789062 -17.59375 13.0625 -17.570312 13.3125 -17.40625 C 13.5625 -17.238281 13.6875 -16.9375 13.6875 -16.5 C 13.6875 -16.457031 13.679688 -16.410156 13.671875 -16.359375 C 13.648438 -15.816406 13.609375 -15.28125 13.546875 -14.75 C 13.347656 -13.4375 13.140625 -12.144531 12.921875 -10.875 C 12.828125 -10.21875 12.726562 -9.546875 12.625 -8.859375 C 12.613281 -8.765625 12.582031 -8.585938 12.53125 -8.328125 C 12.5 -8.085938 12.457031 -7.859375 12.40625 -7.640625 C 12.363281 -7.429688 12.332031 -7.265625 12.3125 -7.140625 C 12.363281 -7.203125 12.769531 -7.84375 13.53125 -9.0625 C 14.570312 -10.738281 15.800781 -12.695312 17.21875 -14.9375 C 18.644531 -17.1875 19.769531 -18.910156 20.59375 -20.109375 C 22.132812 -22.242188 23.796875 -24.234375 25.578125 -26.078125 C 27.359375 -27.929688 29.238281 -29.648438 31.21875 -31.234375 C 31.726562 -31.585938 32.242188 -31.925781 32.765625 -32.25 C 32.890625 -32.3125 33.003906 -32.382812 33.109375 -32.46875 C 33.609375 -32.757812 34.160156 -32.925781 34.765625 -32.96875 C 35.941406 -33.039062 36.59375 -32.398438 36.71875 -31.046875 C 36.78125 -30.191406 36.722656 -29.363281 36.546875 -28.5625 Z M 12.21875 -14.796875 C 12.257812 -14.785156 12.285156 -14.773438 12.296875 -14.765625 C 12.296875 -14.765625 12.296875 -14.753906 12.296875 -14.734375 C 12.304688 -14.734375 12.3125 -14.742188 12.3125 -14.765625 C 12.289062 -14.773438 12.257812 -14.785156 12.21875 -14.796875 Z M 12.21875 -14.796875 "/></g></g><g transform="translate(94.137785, 39.757331)"><g><path d="M 3 -4.4375 C 2.738281 -4 2.410156 -3.582031 2.015625 -3.1875 C 1.617188 -2.789062 1.148438 -2.488281 0.609375 -2.28125 C 0.078125 -2.070312 -0.351562 -2.039062 -0.6875 -2.1875 C -1.03125 -2.34375 -1.171875 -2.773438 -1.109375 -3.484375 C -0.972656 -4.203125 -0.742188 -4.910156 -0.421875 -5.609375 C -0.347656 -5.765625 -0.222656 -5.882812 -0.046875 -5.96875 C 0.0859375 -6.03125 0.207031 -6.03125 0.3125 -5.96875 C 0.425781 -5.90625 0.484375 -5.804688 0.484375 -5.671875 C 0.429688 -5.453125 0.367188 -5.21875 0.296875 -4.96875 C 0.222656 -4.726562 0.164062 -4.578125 0.125 -4.515625 C -0.0078125 -4.085938 -0.0859375 -3.65625 -0.109375 -3.21875 C -0.0664062 -2.976562 0.257812 -3.015625 0.875 -3.328125 C 1.488281 -3.648438 2.054688 -4.144531 2.578125 -4.8125 C 3.109375 -5.488281 3.378906 -5.703125 3.390625 -5.453125 C 3.398438 -5.210938 3.269531 -4.875 3 -4.4375 Z M 0.90625 -7.234375 C 0.882812 -7.210938 0.832031 -7.175781 0.75 -7.125 C 0.664062 -7.070312 0.566406 -7.023438 0.453125 -6.984375 C 0.347656 -6.953125 0.257812 -6.957031 0.1875 -7 C 0.125 -7.050781 0.109375 -7.148438 0.140625 -7.296875 C 0.191406 -7.578125 0.253906 -7.816406 0.328125 -8.015625 C 0.410156 -8.222656 0.515625 -8.460938 0.640625 -8.734375 C 0.734375 -8.859375 0.84375 -8.9375 0.96875 -8.96875 C 1.101562 -9 1.21875 -8.976562 1.3125 -8.90625 C 1.414062 -8.84375 1.457031 -8.742188 1.4375 -8.609375 C 1.382812 -8.109375 1.207031 -7.648438 0.90625 -7.234375 Z M 0.90625 -7.234375 "/></g></g><g transform="translate(97.703141, 39.178233)"><g><path d="M 3.71875 -5.078125 C 3.882812 -5.304688 4.035156 -5.441406 4.171875 -5.484375 C 4.304688 -5.535156 4.394531 -5.53125 4.4375 -5.46875 C 4.488281 -5.414062 4.476562 -5.320312 4.40625 -5.1875 C 3.96875 -4.457031 3.453125 -3.800781 2.859375 -3.21875 C 2.273438 -2.644531 1.640625 -2.265625 0.953125 -2.078125 C 0.265625 -1.890625 -0.21875 -2.203125 -0.5 -3.015625 C -0.75 -3.828125 -0.523438 -5.609375 0.171875 -8.359375 C 0.867188 -11.117188 1.421875 -13.367188 1.828125 -15.109375 C 1.847656 -15.265625 1.90625 -15.410156 2 -15.546875 C 2.125 -15.703125 2.296875 -15.753906 2.515625 -15.703125 C 2.578125 -15.691406 2.648438 -15.65625 2.734375 -15.59375 C 2.816406 -15.539062 2.859375 -15.429688 2.859375 -15.265625 C 1.078125 -7.960938 0.28125 -4.019531 0.46875 -3.4375 C 0.65625 -2.851562 1.0625 -2.765625 1.6875 -3.171875 C 2.320312 -3.578125 2.796875 -3.96875 3.109375 -4.34375 C 3.429688 -4.71875 3.632812 -4.960938 3.71875 -5.078125 Z M 3.71875 -5.078125 "/></g></g><g transform="translate(102.264968, 38.437284)"><g><path d="M 5.875 -5.734375 C 6.03125 -5.671875 6.070312 -5.472656 6 -5.140625 C 5.863281 -4.890625 5.710938 -4.644531 5.546875 -4.40625 C 5.378906 -4.164062 5.1875 -3.953125 4.96875 -3.765625 C 4.945312 -3.753906 4.9375 -3.742188 4.9375 -3.734375 C 4.8125 -3.597656 4.660156 -3.476562 4.484375 -3.375 C 3.117188 -2.601562 2.332031 -2.785156 2.125 -3.921875 C 1.601562 -3.328125 1.257812 -2.953125 1.09375 -2.796875 C 0.644531 -2.429688 0.140625 -2.210938 -0.421875 -2.140625 C -0.835938 -2.109375 -1.140625 -2.191406 -1.328125 -2.390625 C -1.515625 -2.597656 -1.550781 -2.910156 -1.4375 -3.328125 C -1.28125 -3.984375 -0.988281 -4.597656 -0.5625 -5.171875 C -0.0703125 -5.796875 0.492188 -6.332031 1.140625 -6.78125 C 1.492188 -7.019531 1.878906 -7.148438 2.296875 -7.171875 C 2.734375 -7.210938 3.023438 -7.019531 3.171875 -6.59375 C 3.222656 -6.457031 3.207031 -6.332031 3.125 -6.21875 C 3.007812 -6.070312 2.859375 -6.019531 2.671875 -6.0625 C 2.660156 -6.0625 2.644531 -6.0625 2.625 -6.0625 C 2.601562 -6.0625 2.585938 -6.066406 2.578125 -6.078125 C 2.347656 -6.296875 2.144531 -6.367188 1.96875 -6.296875 C 1.800781 -6.234375 1.628906 -6.125 1.453125 -5.96875 C 0.597656 -5.269531 0.0234375 -4.390625 -0.265625 -3.328125 C -0.285156 -3.273438 -0.289062 -3.222656 -0.28125 -3.171875 C -0.28125 -3.117188 -0.257812 -3.082031 -0.21875 -3.0625 C -0.101562 -3.050781 0.0078125 -3.082031 0.125 -3.15625 C 0.25 -3.226562 0.367188 -3.320312 0.484375 -3.4375 C 0.609375 -3.5625 0.710938 -3.664062 0.796875 -3.75 C 0.804688 -3.769531 0.8125 -3.78125 0.8125 -3.78125 C 1.1875 -4.226562 1.5625 -4.679688 1.9375 -5.140625 C 2.09375 -5.367188 2.3125 -5.519531 2.59375 -5.59375 C 3 -5.664062 3.191406 -5.515625 3.171875 -5.140625 C 3.160156 -4.992188 3.140625 -4.851562 3.109375 -4.71875 C 3.046875 -4.101562 3.097656 -3.757812 3.265625 -3.6875 C 3.429688 -3.613281 3.65625 -3.648438 3.9375 -3.796875 C 4.21875 -3.941406 4.488281 -4.179688 4.75 -4.515625 C 5.007812 -4.847656 5.222656 -5.148438 5.390625 -5.421875 C 5.554688 -5.691406 5.71875 -5.796875 5.875 -5.734375 Z M 5.875 -5.734375 "/></g></g><g transform="translate(108.326073, 37.452817)"><g><path d="M 6.5 -5.734375 C 6.613281 -5.628906 6.53125 -5.382812 6.25 -5 C 5.96875 -4.625 5.648438 -4.296875 5.296875 -4.015625 C 4.941406 -3.734375 4.53125 -3.441406 4.0625 -3.140625 C 3.75 -2.941406 3.398438 -2.832031 3.015625 -2.8125 C 2.640625 -2.800781 2.414062 -3 2.34375 -3.40625 C 2.28125 -3.820312 2.304688 -4.242188 2.421875 -4.671875 C 2.535156 -5.117188 2.539062 -5.34375 2.4375 -5.34375 C 2.332031 -5.34375 2.128906 -5.207031 1.828125 -4.9375 C 1.046875 -4.21875 0.34375 -3.425781 -0.28125 -2.5625 C -0.445312 -2.289062 -0.675781 -2.113281 -0.96875 -2.03125 C -1.132812 -2.007812 -1.269531 -2.039062 -1.375 -2.125 C -1.476562 -2.21875 -1.507812 -2.328125 -1.46875 -2.453125 C -1.09375 -3.546875 -0.707031 -4.613281 -0.3125 -5.65625 C -0.226562 -5.882812 -0.0664062 -6.039062 0.171875 -6.125 C 0.273438 -6.15625 0.378906 -6.132812 0.484375 -6.0625 C 0.585938 -6 0.644531 -5.914062 0.65625 -5.8125 C 0.664062 -5.71875 0.644531 -5.597656 0.59375 -5.453125 C 0.570312 -5.367188 0.550781 -5.289062 0.53125 -5.21875 C 0.519531 -5.144531 0.523438 -5.082031 0.546875 -5.03125 C 0.566406 -4.976562 0.601562 -4.96875 0.65625 -5 C 0.75 -5.0625 0.835938 -5.128906 0.921875 -5.203125 C 1.117188 -5.367188 1.316406 -5.535156 1.515625 -5.703125 C 1.679688 -5.828125 1.863281 -5.945312 2.0625 -6.0625 C 2.257812 -6.1875 2.46875 -6.285156 2.6875 -6.359375 C 3.050781 -6.429688 3.320312 -6.390625 3.5 -6.234375 C 3.675781 -6.078125 3.738281 -5.816406 3.6875 -5.453125 C 3.613281 -5.117188 3.535156 -4.796875 3.453125 -4.484375 C 3.335938 -4.179688 3.34375 -3.96875 3.46875 -3.84375 C 3.601562 -3.71875 4.082031 -3.960938 4.90625 -4.578125 L 5.53125 -5.109375 C 6.113281 -5.628906 6.4375 -5.835938 6.5 -5.734375 Z M 6.5 -5.734375 "/></g></g><g transform="translate(115.027114, 36.364409)"><g><path d="M 1.109375 -2.390625 L 1.078125 -2.390625 C 0.191406 -2.265625 -0.421875 -2.367188 -0.765625 -2.703125 C -1.109375 -3.035156 -1.175781 -3.539062 -0.96875 -4.21875 C -0.789062 -4.75 -0.546875 -5.222656 -0.234375 -5.640625 C -0.109375 -5.785156 0.015625 -5.90625 0.140625 -6 C 0.273438 -6.101562 0.429688 -6.164062 0.609375 -6.1875 C 0.710938 -6.226562 0.832031 -6.234375 0.96875 -6.203125 C 1.007812 -6.203125 1.050781 -6.191406 1.09375 -6.171875 C 1.195312 -6.210938 1.296875 -6.265625 1.390625 -6.328125 C 1.410156 -6.347656 1.441406 -6.363281 1.484375 -6.375 C 1.679688 -6.5 1.890625 -6.570312 2.109375 -6.59375 C 2.203125 -6.613281 2.296875 -6.628906 2.390625 -6.640625 C 2.765625 -6.640625 3.0625 -6.53125 3.28125 -6.3125 C 3.5 -6.09375 3.613281 -5.804688 3.625 -5.453125 C 3.625 -5.222656 3.582031 -5.007812 3.5 -4.8125 C 3.007812 -3.445312 2.234375 -2.644531 1.171875 -2.40625 Z M 2.015625 -5.90625 C 1.523438 -5.84375 1.113281 -5.632812 0.78125 -5.28125 C 0.457031 -4.925781 0.238281 -4.539062 0.125 -4.125 C 0.0078125 -3.707031 0.0078125 -3.382812 0.125 -3.15625 C 0.25 -2.925781 0.515625 -2.898438 0.921875 -3.078125 C 1.378906 -3.296875 1.757812 -3.632812 2.0625 -4.09375 C 2.375 -4.5625 2.539062 -4.984375 2.5625 -5.359375 C 2.582031 -5.734375 2.398438 -5.914062 2.015625 -5.90625 Z M 2.015625 -5.90625 "/></g></g><g transform="translate(119.881483, 35.575944)"><g><path d="M 4.578125 -8.65625 C 4.546875 -8.507812 4.5 -8.367188 4.4375 -8.234375 C 3.71875 -6.460938 2.835938 -4.78125 1.796875 -3.1875 C 1.648438 -2.96875 1.492188 -2.757812 1.328125 -2.5625 C 1.148438 -2.394531 0.960938 -2.265625 0.765625 -2.171875 C 0.179688 -1.972656 -0.207031 -2.160156 -0.40625 -2.734375 C -0.488281 -3.085938 -0.550781 -3.445312 -0.59375 -3.8125 C -0.613281 -3.976562 -0.640625 -4.140625 -0.671875 -4.296875 C -0.671875 -4.296875 -0.660156 -4.300781 -0.640625 -4.3125 C -0.648438 -4.414062 -0.664062 -4.519531 -0.6875 -4.625 C -0.726562 -4.894531 -0.769531 -5.164062 -0.8125 -5.4375 C -0.84375 -5.582031 -0.863281 -5.734375 -0.875 -5.890625 C -0.851562 -6.234375 -0.707031 -6.429688 -0.4375 -6.484375 C -0.15625 -6.523438 0.03125 -6.34375 0.125 -5.9375 C 0.144531 -5.820312 0.15625 -5.71875 0.15625 -5.625 C 0.15625 -5.539062 0.160156 -5.457031 0.171875 -5.375 C 0.242188 -4.769531 0.328125 -4.164062 0.421875 -3.5625 C 0.441406 -3.425781 0.507812 -3.359375 0.625 -3.359375 C 0.664062 -3.367188 0.703125 -3.382812 0.734375 -3.40625 C 0.765625 -3.425781 0.789062 -3.453125 0.8125 -3.484375 C 1.09375 -3.972656 1.367188 -4.445312 1.640625 -4.90625 C 1.742188 -5.09375 1.851562 -5.273438 1.96875 -5.453125 C 2.070312 -5.671875 2.1875 -5.875 2.3125 -6.0625 C 2.78125 -6.875 3.25 -7.691406 3.71875 -8.515625 C 3.769531 -8.609375 3.832031 -8.691406 3.90625 -8.765625 C 3.988281 -8.847656 4.09375 -8.90625 4.21875 -8.9375 C 4.332031 -8.9375 4.4375 -8.90625 4.53125 -8.84375 C 4.550781 -8.832031 4.5625 -8.804688 4.5625 -8.765625 C 4.570312 -8.722656 4.578125 -8.6875 4.578125 -8.65625 Z M 4.578125 -8.65625 "/></g></g><g transform="translate(124.744994, 34.785994)"><g><path d="M 3 -4.4375 C 2.738281 -4 2.410156 -3.582031 2.015625 -3.1875 C 1.617188 -2.789062 1.148438 -2.488281 0.609375 -2.28125 C 0.078125 -2.070312 -0.351562 -2.039062 -0.6875 -2.1875 C -1.03125 -2.34375 -1.171875 -2.773438 -1.109375 -3.484375 C -0.972656 -4.203125 -0.742188 -4.910156 -0.421875 -5.609375 C -0.347656 -5.765625 -0.222656 -5.882812 -0.046875 -5.96875 C 0.0859375 -6.03125 0.207031 -6.03125 0.3125 -5.96875 C 0.425781 -5.90625 0.484375 -5.804688 0.484375 -5.671875 C 0.429688 -5.453125 0.367188 -5.21875 0.296875 -4.96875 C 0.222656 -4.726562 0.164062 -4.578125 0.125 -4.515625 C -0.0078125 -4.085938 -0.0859375 -3.65625 -0.109375 -3.21875 C -0.0664062 -2.976562 0.257812 -3.015625 0.875 -3.328125 C 1.488281 -3.648438 2.054688 -4.144531 2.578125 -4.8125 C 3.109375 -5.488281 3.378906 -5.703125 3.390625 -5.453125 C 3.398438 -5.210938 3.269531 -4.875 3 -4.4375 Z M 0.90625 -7.234375 C 0.882812 -7.210938 0.832031 -7.175781 0.75 -7.125 C 0.664062 -7.070312 0.566406 -7.023438 0.453125 -6.984375 C 0.347656 -6.953125 0.257812 -6.957031 0.1875 -7 C 0.125 -7.050781 0.109375 -7.148438 0.140625 -7.296875 C 0.191406 -7.578125 0.253906 -7.816406 0.328125 -8.015625 C 0.410156 -8.222656 0.515625 -8.460938 0.640625 -8.734375 C 0.734375 -8.859375 0.84375 -8.9375 0.96875 -8.96875 C 1.101562 -9 1.21875 -8.976562 1.3125 -8.90625 C 1.414062 -8.84375 1.457031 -8.742188 1.4375 -8.609375 C 1.382812 -8.109375 1.207031 -7.648438 0.90625 -7.234375 Z M 0.90625 -7.234375 "/></g></g><g transform="translate(128.31035, 34.206896)"><g><path d="M 5.796875 -5.828125 C 5.828125 -5.835938 5.863281 -5.835938 5.90625 -5.828125 C 5.957031 -5.816406 5.992188 -5.804688 6.015625 -5.796875 C 6.128906 -5.722656 6.15625 -5.625 6.09375 -5.5 C 6.03125 -5.394531 5.960938 -5.304688 5.890625 -5.234375 C 5.492188 -4.722656 5.035156 -4.269531 4.515625 -3.875 C 3.679688 -3.28125 2.722656 -2.890625 1.640625 -2.703125 C 1.242188 -2.617188 0.816406 -2.617188 0.359375 -2.703125 C -0.460938 -2.867188 -0.867188 -3.375 -0.859375 -4.21875 C -0.796875 -5.007812 -0.46875 -5.710938 0.125 -6.328125 C 0.71875 -6.941406 1.410156 -7.28125 2.203125 -7.34375 C 2.359375 -7.34375 2.515625 -7.332031 2.671875 -7.3125 C 2.816406 -7.28125 2.929688 -7.21875 3.015625 -7.125 C 3.097656 -7.03125 3.117188 -6.941406 3.078125 -6.859375 C 2.953125 -6.679688 2.789062 -6.617188 2.59375 -6.671875 C 2.289062 -6.753906 2.023438 -6.742188 1.796875 -6.640625 C 1.578125 -6.546875 1.363281 -6.378906 1.15625 -6.140625 C 0.945312 -5.921875 0.734375 -5.625 0.515625 -5.25 C 0.304688 -4.875 0.191406 -4.507812 0.171875 -4.15625 C 0.148438 -3.8125 0.351562 -3.554688 0.78125 -3.390625 C 1.226562 -3.285156 1.664062 -3.3125 2.09375 -3.46875 C 3.164062 -3.875 4.128906 -4.460938 4.984375 -5.234375 C 5.054688 -5.285156 5.128906 -5.347656 5.203125 -5.421875 C 5.285156 -5.515625 5.375 -5.59375 5.46875 -5.65625 C 5.570312 -5.726562 5.679688 -5.785156 5.796875 -5.828125 Z M 5.796875 -5.828125 "/></g></g><g transform="translate(134.408023, 33.216489)"><g><path d="M 1.828125 -2.6875 C 2.148438 -2.800781 2.335938 -2.703125 2.390625 -2.390625 C 2.453125 -2.117188 2.46875 -1.832031 2.4375 -1.53125 C 2.394531 -1.269531 2.316406 -1.03125 2.203125 -0.8125 C 2.097656 -0.601562 1.960938 -0.398438 1.796875 -0.203125 C 1.722656 -0.0859375 1.632812 -0.0195312 1.53125 0 C 1.4375 0.0195312 1.34375 0.0078125 1.25 -0.03125 C 1.132812 -0.0820312 1.15625 -0.203125 1.3125 -0.390625 C 1.601562 -0.941406 1.65625 -1.34375 1.46875 -1.59375 C 1.28125 -1.851562 1.238281 -2.082031 1.34375 -2.28125 C 1.457031 -2.476562 1.617188 -2.613281 1.828125 -2.6875 Z M 1.828125 -2.6875 "/></g></g></g><g fill="#000000" fill-opacity="1"><g transform="translate(138.046516, 32.625512)"><g/></g></g><g fill="#000000" fill-opacity="1"><g transform="translate(61.284884, 75.519739)"><g><path d="M 7.328125 -6.125 C 7.460938 -6.113281 7.535156 -6.078125 7.546875 -6.015625 C 7.566406 -5.960938 7.578125 -5.9375 7.578125 -5.9375 C 7.472656 -5.644531 7.34375 -5.378906 7.1875 -5.140625 C 6.832031 -4.597656 6.398438 -4.140625 5.890625 -3.765625 C 5.617188 -3.546875 5.304688 -3.40625 4.953125 -3.34375 C 4.160156 -3.195312 3.722656 -3.53125 3.640625 -4.34375 C 3.640625 -4.53125 3.65625 -4.707031 3.6875 -4.875 C 3.707031 -4.945312 3.710938 -5.023438 3.703125 -5.109375 C 3.742188 -5.421875 3.742188 -5.585938 3.703125 -5.609375 C 3.660156 -5.640625 3.578125 -5.546875 3.453125 -5.328125 C 3.421875 -5.273438 3.390625 -5.222656 3.359375 -5.171875 C 3.160156 -4.847656 2.953125 -4.523438 2.734375 -4.203125 C 2.359375 -3.585938 1.898438 -3.046875 1.359375 -2.578125 C 1.023438 -2.304688 0.664062 -2.128906 0.28125 -2.046875 C -0.382812 -1.910156 -0.8125 -2.160156 -1 -2.796875 C -1.070312 -3.035156 -1.097656 -3.285156 -1.078125 -3.546875 C -0.972656 -4.628906 -0.566406 -5.503906 0.140625 -6.171875 C 0.859375 -6.847656 1.753906 -7.1875 2.828125 -7.1875 C 3.117188 -7.164062 3.3125 -7.285156 3.40625 -7.546875 C 3.457031 -7.648438 3.5 -7.753906 3.53125 -7.859375 C 3.738281 -8.378906 3.929688 -8.90625 4.109375 -9.4375 C 4.484375 -10.445312 4.84375 -11.457031 5.1875 -12.46875 C 5.5 -13.289062 5.796875 -14.109375 6.078125 -14.921875 C 6.160156 -15.160156 6.257812 -15.398438 6.375 -15.640625 C 6.425781 -15.753906 6.5 -15.828125 6.59375 -15.859375 C 6.6875 -15.898438 6.789062 -15.929688 6.90625 -15.953125 C 6.925781 -15.960938 6.953125 -15.96875 6.984375 -15.96875 C 7.109375 -15.988281 7.210938 -15.972656 7.296875 -15.921875 C 7.378906 -15.867188 7.40625 -15.789062 7.375 -15.6875 C 7.332031 -15.40625 7.28125 -15.148438 7.21875 -14.921875 C 6.832031 -13.703125 6.484375 -12.472656 6.171875 -11.234375 C 5.867188 -10.003906 5.570312 -8.773438 5.28125 -7.546875 C 5.1875 -7.109375 5.085938 -6.679688 4.984375 -6.265625 C 4.859375 -5.753906 4.773438 -5.242188 4.734375 -4.734375 C 4.710938 -4.609375 4.707031 -4.492188 4.71875 -4.390625 C 4.738281 -4.285156 4.800781 -4.203125 4.90625 -4.140625 C 4.988281 -4.109375 5.0625 -4.109375 5.125 -4.140625 C 5.195312 -4.179688 5.269531 -4.226562 5.34375 -4.28125 C 5.363281 -4.3125 5.382812 -4.332031 5.40625 -4.34375 C 5.925781 -4.769531 6.390625 -5.253906 6.796875 -5.796875 C 6.867188 -5.898438 6.941406 -5.984375 7.015625 -6.046875 C 7.097656 -6.109375 7.203125 -6.132812 7.328125 -6.125 Z M 2.734375 -5.984375 C 2.773438 -6.097656 2.773438 -6.207031 2.734375 -6.3125 C 2.691406 -6.414062 2.609375 -6.476562 2.484375 -6.5 C 2.234375 -6.582031 1.992188 -6.554688 1.765625 -6.421875 C 1.160156 -6.140625 0.691406 -5.695312 0.359375 -5.09375 C 0.0234375 -4.5 -0.109375 -3.878906 -0.046875 -3.234375 C -0.0234375 -3.203125 -0.015625 -3.175781 -0.015625 -3.15625 C -0.00390625 -3.101562 0.00390625 -3.054688 0.015625 -3.015625 C 0.117188 -2.722656 0.3125 -2.691406 0.59375 -2.921875 C 0.875 -3.148438 1.171875 -3.492188 1.484375 -3.953125 C 1.796875 -4.410156 2.070312 -4.847656 2.3125 -5.265625 C 2.550781 -5.691406 2.691406 -5.929688 2.734375 -5.984375 Z M 2.734375 -5.984375 "/></g></g><g transform="translate(68.927544, 74.278389)"><g><path d="M 3.46875 -6.328125 C 3.476562 -5.898438 3.320312 -5.59375 3 -5.40625 C 2.6875 -5.21875 2.550781 -5.363281 2.59375 -5.84375 C 2.644531 -6.332031 2.421875 -6.421875 1.921875 -6.109375 C 1.421875 -5.796875 1.023438 -5.4375 0.734375 -5.03125 C 0.285156 -4.394531 -0.09375 -3.722656 -0.40625 -3.015625 C -0.4375 -2.960938 -0.460938 -2.914062 -0.484375 -2.875 C -0.578125 -2.675781 -0.675781 -2.488281 -0.78125 -2.3125 C -0.84375 -2.1875 -0.921875 -2.101562 -1.015625 -2.0625 C -1.109375 -2.019531 -1.210938 -1.992188 -1.328125 -1.984375 C -1.429688 -1.972656 -1.519531 -2 -1.59375 -2.0625 C -1.664062 -2.125 -1.6875 -2.203125 -1.65625 -2.296875 C -1.613281 -2.472656 -1.554688 -2.65625 -1.484375 -2.84375 C -1.109375 -3.945312 -0.722656 -5.0625 -0.328125 -6.1875 C -0.316406 -6.195312 -0.3125 -6.207031 -0.3125 -6.21875 C -0.257812 -6.382812 -0.1875 -6.546875 -0.09375 -6.703125 C 0.0078125 -6.847656 0.144531 -6.921875 0.3125 -6.921875 C 0.476562 -6.929688 0.597656 -6.863281 0.671875 -6.71875 C 0.765625 -6.507812 0.835938 -6.394531 0.890625 -6.375 C 0.941406 -6.351562 1.046875 -6.390625 1.203125 -6.484375 C 1.554688 -6.679688 1.90625 -6.835938 2.25 -6.953125 C 2.59375 -7.066406 2.878906 -7.097656 3.109375 -7.046875 C 3.335938 -6.992188 3.457031 -6.753906 3.46875 -6.328125 Z M 3.46875 -6.328125 "/></g></g><g transform="translate(73.498513, 73.535955)"><g><path d="M 1.40625 -2.4375 C 1.90625 -2.519531 2.117188 -2.316406 2.046875 -1.828125 C 2.003906 -1.617188 1.957031 -1.421875 1.90625 -1.234375 C 1.84375 -1.078125 1.742188 -0.96875 1.609375 -0.90625 C 1.472656 -0.84375 1.316406 -0.828125 1.140625 -0.859375 C 0.992188 -0.890625 0.898438 -0.972656 0.859375 -1.109375 C 0.816406 -1.316406 0.789062 -1.539062 0.78125 -1.78125 C 0.757812 -2.1875 0.96875 -2.40625 1.40625 -2.4375 Z M 1.40625 -2.4375 "/></g></g><g transform="translate(76.999876, 72.967251)"><g/></g><g transform="translate(83.911181, 71.844691)"><g><path d="M 8.796875 -6.125 C 8.992188 -6.300781 9.15625 -6.363281 9.28125 -6.3125 C 9.414062 -6.257812 9.40625 -6.066406 9.25 -5.734375 C 9.039062 -5.328125 8.625 -4.859375 8 -4.328125 C 7.382812 -3.804688 6.800781 -3.53125 6.25 -3.5 C 5.707031 -3.46875 5.488281 -3.835938 5.59375 -4.609375 C 5.707031 -5.378906 5.757812 -5.804688 5.75 -5.890625 C 5.75 -5.984375 5.722656 -6.03125 5.671875 -6.03125 C 5.628906 -6.039062 5.523438 -5.960938 5.359375 -5.796875 C 4.867188 -5.316406 4.390625 -4.832031 3.921875 -4.34375 C 3.722656 -4.132812 3.535156 -3.914062 3.359375 -3.6875 C 3.242188 -3.550781 3.125 -3.410156 3 -3.265625 C 3 -3.265625 2.992188 -3.257812 2.984375 -3.25 C 2.847656 -3.0625 2.671875 -2.921875 2.453125 -2.828125 C 2.359375 -2.785156 2.25 -2.753906 2.125 -2.734375 C 2.007812 -2.722656 1.898438 -2.753906 1.796875 -2.828125 C 1.703125 -2.910156 1.65625 -3.003906 1.65625 -3.109375 C 1.664062 -3.210938 1.71875 -3.375 1.8125 -3.59375 C 1.90625 -3.8125 2.007812 -4.050781 2.125 -4.3125 C 2.238281 -4.570312 2.300781 -4.734375 2.3125 -4.796875 C 2.320312 -4.859375 2.304688 -4.910156 2.265625 -4.953125 C 2.222656 -5.003906 2.175781 -5.015625 2.125 -4.984375 C 2.070312 -4.960938 1.898438 -4.800781 1.609375 -4.5 C 1.316406 -4.207031 0.910156 -3.796875 0.390625 -3.265625 C 0.171875 -3.023438 -0.0507812 -2.773438 -0.28125 -2.515625 C -0.34375 -2.441406 -0.410156 -2.375 -0.484375 -2.3125 C -0.648438 -2.113281 -0.835938 -1.988281 -1.046875 -1.9375 C -1.210938 -1.90625 -1.34375 -1.921875 -1.4375 -1.984375 C -1.53125 -2.054688 -1.5625 -2.175781 -1.53125 -2.34375 C -1.507812 -2.457031 -1.476562 -2.566406 -1.4375 -2.671875 C -1.414062 -2.710938 -1.40625 -2.753906 -1.40625 -2.796875 C -1.082031 -3.847656 -0.757812 -4.90625 -0.4375 -5.96875 C -0.4375 -5.988281 -0.429688 -6.023438 -0.421875 -6.078125 C -0.398438 -6.179688 -0.363281 -6.289062 -0.3125 -6.40625 C -0.195312 -6.59375 -0.0351562 -6.675781 0.171875 -6.65625 C 0.421875 -6.613281 0.535156 -6.492188 0.515625 -6.296875 C 0.453125 -5.960938 0.394531 -5.640625 0.34375 -5.328125 C 0.3125 -5.179688 0.273438 -5.035156 0.234375 -4.890625 C 0.171875 -4.640625 0.164062 -4.484375 0.21875 -4.421875 C 0.269531 -4.359375 0.414062 -4.425781 0.65625 -4.625 C 0.820312 -4.78125 0.976562 -4.9375 1.125 -5.09375 C 1.320312 -5.269531 1.507812 -5.4375 1.6875 -5.59375 C 1.957031 -5.820312 2.25 -6.035156 2.5625 -6.234375 C 2.707031 -6.328125 2.859375 -6.40625 3.015625 -6.46875 C 3.179688 -6.53125 3.347656 -6.515625 3.515625 -6.421875 C 3.640625 -6.347656 3.703125 -6.25 3.703125 -6.125 C 3.710938 -6.007812 3.695312 -5.898438 3.65625 -5.796875 C 3.601562 -5.578125 3.585938 -5.441406 3.609375 -5.390625 C 3.640625 -5.335938 3.691406 -5.332031 3.765625 -5.375 C 3.835938 -5.425781 3.960938 -5.53125 4.140625 -5.6875 C 4.328125 -5.84375 4.523438 -6.015625 4.734375 -6.203125 C 4.992188 -6.429688 5.273438 -6.660156 5.578125 -6.890625 C 5.816406 -7.109375 6.082031 -7.257812 6.375 -7.34375 C 6.789062 -7.4375 6.988281 -7.296875 6.96875 -6.921875 C 6.945312 -6.546875 6.867188 -6.082031 6.734375 -5.53125 C 6.609375 -4.988281 6.644531 -4.671875 6.84375 -4.578125 C 7.039062 -4.492188 7.398438 -4.710938 7.921875 -5.234375 C 8.441406 -5.765625 8.734375 -6.0625 8.796875 -6.125 Z M 8.796875 -6.125 "/></g></g><g transform="translate(93.583351, 70.273701)"><g><path d="M 4.640625 -4.359375 C 4.347656 -3.953125 3.984375 -3.585938 3.546875 -3.265625 C 3.117188 -2.941406 2.753906 -2.710938 2.453125 -2.578125 C 2.148438 -2.453125 1.828125 -2.359375 1.484375 -2.296875 C 0.960938 -2.179688 0.460938 -2.175781 -0.015625 -2.28125 C -0.804688 -2.457031 -1.160156 -2.988281 -1.078125 -3.875 C -0.972656 -4.625 -0.628906 -5.253906 -0.046875 -5.765625 C 0.535156 -6.285156 1.175781 -6.597656 1.875 -6.703125 C 1.875 -6.703125 1.882812 -6.703125 1.90625 -6.703125 C 2.070312 -6.742188 2.238281 -6.753906 2.40625 -6.734375 C 2.6875 -6.691406 2.878906 -6.5625 2.984375 -6.34375 C 3.097656 -6.132812 3.09375 -5.882812 2.96875 -5.59375 C 2.664062 -4.945312 2.1875 -4.535156 1.53125 -4.359375 C 1.09375 -4.242188 0.660156 -4.191406 0.234375 -4.203125 C 0.148438 -4.203125 0.0820312 -4.171875 0.03125 -4.109375 C -0.0195312 -4.046875 -0.0390625 -3.972656 -0.03125 -3.890625 C -0.0703125 -3.335938 0.140625 -3.03125 0.609375 -2.96875 C 1.179688 -2.863281 1.753906 -2.957031 2.328125 -3.25 C 2.972656 -3.5625 3.550781 -4.066406 4.0625 -4.765625 C 4.582031 -5.460938 4.890625 -5.796875 4.984375 -5.765625 C 5.085938 -5.742188 5.144531 -5.628906 5.15625 -5.421875 C 5.101562 -5.117188 4.929688 -4.765625 4.640625 -4.359375 Z M 0.5 -5.203125 C 0.476562 -5.148438 0.460938 -5.097656 0.453125 -5.046875 C 0.441406 -4.992188 0.46875 -4.945312 0.53125 -4.90625 C 0.769531 -4.820312 1.007812 -4.816406 1.25 -4.890625 C 1.5 -4.960938 1.695312 -5.09375 1.84375 -5.28125 C 1.988281 -5.46875 2.035156 -5.671875 1.984375 -5.890625 C 1.941406 -5.953125 1.882812 -5.988281 1.8125 -6 C 1.75 -6.007812 1.6875 -6.003906 1.625 -5.984375 C 1.175781 -5.828125 0.800781 -5.566406 0.5 -5.203125 Z M 0.5 -5.203125 "/></g></g><g transform="translate(98.903959, 69.409508)"><g><path d="M 7.328125 -6.125 C 7.460938 -6.113281 7.535156 -6.078125 7.546875 -6.015625 C 7.566406 -5.960938 7.578125 -5.9375 7.578125 -5.9375 C 7.472656 -5.644531 7.34375 -5.378906 7.1875 -5.140625 C 6.832031 -4.597656 6.398438 -4.140625 5.890625 -3.765625 C 5.617188 -3.546875 5.304688 -3.40625 4.953125 -3.34375 C 4.160156 -3.195312 3.722656 -3.53125 3.640625 -4.34375 C 3.640625 -4.53125 3.65625 -4.707031 3.6875 -4.875 C 3.707031 -4.945312 3.710938 -5.023438 3.703125 -5.109375 C 3.742188 -5.421875 3.742188 -5.585938 3.703125 -5.609375 C 3.660156 -5.640625 3.578125 -5.546875 3.453125 -5.328125 C 3.421875 -5.273438 3.390625 -5.222656 3.359375 -5.171875 C 3.160156 -4.847656 2.953125 -4.523438 2.734375 -4.203125 C 2.359375 -3.585938 1.898438 -3.046875 1.359375 -2.578125 C 1.023438 -2.304688 0.664062 -2.128906 0.28125 -2.046875 C -0.382812 -1.910156 -0.8125 -2.160156 -1 -2.796875 C -1.070312 -3.035156 -1.097656 -3.285156 -1.078125 -3.546875 C -0.972656 -4.628906 -0.566406 -5.503906 0.140625 -6.171875 C 0.859375 -6.847656 1.753906 -7.1875 2.828125 -7.1875 C 3.117188 -7.164062 3.3125 -7.285156 3.40625 -7.546875 C 3.457031 -7.648438 3.5 -7.753906 3.53125 -7.859375 C 3.738281 -8.378906 3.929688 -8.90625 4.109375 -9.4375 C 4.484375 -10.445312 4.84375 -11.457031 5.1875 -12.46875 C 5.5 -13.289062 5.796875 -14.109375 6.078125 -14.921875 C 6.160156 -15.160156 6.257812 -15.398438 6.375 -15.640625 C 6.425781 -15.753906 6.5 -15.828125 6.59375 -15.859375 C 6.6875 -15.898438 6.789062 -15.929688 6.90625 -15.953125 C 6.925781 -15.960938 6.953125 -15.96875 6.984375 -15.96875 C 7.109375 -15.988281 7.210938 -15.972656 7.296875 -15.921875 C 7.378906 -15.867188 7.40625 -15.789062 7.375 -15.6875 C 7.332031 -15.40625 7.28125 -15.148438 7.21875 -14.921875 C 6.832031 -13.703125 6.484375 -12.472656 6.171875 -11.234375 C 5.867188 -10.003906 5.570312 -8.773438 5.28125 -7.546875 C 5.1875 -7.109375 5.085938 -6.679688 4.984375 -6.265625 C 4.859375 -5.753906 4.773438 -5.242188 4.734375 -4.734375 C 4.710938 -4.609375 4.707031 -4.492188 4.71875 -4.390625 C 4.738281 -4.285156 4.800781 -4.203125 4.90625 -4.140625 C 4.988281 -4.109375 5.0625 -4.109375 5.125 -4.140625 C 5.195312 -4.179688 5.269531 -4.226562 5.34375 -4.28125 C 5.363281 -4.3125 5.382812 -4.332031 5.40625 -4.34375 C 5.925781 -4.769531 6.390625 -5.253906 6.796875 -5.796875 C 6.867188 -5.898438 6.941406 -5.984375 7.015625 -6.046875 C 7.097656 -6.109375 7.203125 -6.132812 7.328125 -6.125 Z M 2.734375 -5.984375 C 2.773438 -6.097656 2.773438 -6.207031 2.734375 -6.3125 C 2.691406 -6.414062 2.609375 -6.476562 2.484375 -6.5 C 2.234375 -6.582031 1.992188 -6.554688 1.765625 -6.421875 C 1.160156 -6.140625 0.691406 -5.695312 0.359375 -5.09375 C 0.0234375 -4.5 -0.109375 -3.878906 -0.046875 -3.234375 C -0.0234375 -3.203125 -0.015625 -3.175781 -0.015625 -3.15625 C -0.00390625 -3.101562 0.00390625 -3.054688 0.015625 -3.015625 C 0.117188 -2.722656 0.3125 -2.691406 0.59375 -2.921875 C 0.875 -3.148438 1.171875 -3.492188 1.484375 -3.953125 C 1.796875 -4.410156 2.070312 -4.847656 2.3125 -5.265625 C 2.550781 -5.691406 2.691406 -5.929688 2.734375 -5.984375 Z M 2.734375 -5.984375 "/></g></g><g transform="translate(106.54662, 68.168159)"><g><path d="M 1.40625 -2.4375 C 1.90625 -2.519531 2.117188 -2.316406 2.046875 -1.828125 C 2.003906 -1.617188 1.957031 -1.421875 1.90625 -1.234375 C 1.84375 -1.078125 1.742188 -0.96875 1.609375 -0.90625 C 1.472656 -0.84375 1.316406 -0.828125 1.140625 -0.859375 C 0.992188 -0.890625 0.898438 -0.972656 0.859375 -1.109375 C 0.816406 -1.316406 0.789062 -1.539062 0.78125 -1.78125 C 0.757812 -2.1875 0.96875 -2.40625 1.40625 -2.4375 Z M 1.40625 -2.4375 "/></g></g></g><g clip-path="url(#16b9e5d61e)"><g clip-path="url(#eb100495d6)"><path fill="#000000" d="M 127.050781 19.273438 L 136.960938 19.273438 L 136.960938 28.5 L 127.050781 28.5 Z M 127.050781 19.273438 " fill-opacity="1" fill-rule="nonzero"/></g></g></svg>