<svg xmlns="http://www.w3.org/2000/svg" xmlns:xlink="http://www.w3.org/1999/xlink" width="60" zoomAndPan="magnify" viewBox="0 0 45 44.999999" height="60" preserveAspectRatio="xMidYMid meet" version="1.0"><defs><clipPath id="78ea7b8b8e"><path d="M 1.066406 1 L 43 1 L 43 44 L 1.066406 44 Z M 1.066406 1 " clip-rule="nonzero"/></clipPath></defs><g clip-path="url(#78ea7b8b8e)"><path fill="#ff914d" d="M 42.5 22.496094 C 42.5 21.820312 42.46875 21.144531 42.402344 20.472656 C 42.335938 19.800781 42.238281 19.132812 42.105469 18.46875 C 41.972656 17.804688 41.808594 17.148438 41.613281 16.5 C 41.417969 15.855469 41.191406 15.21875 40.929688 14.59375 C 40.671875 13.96875 40.382812 13.359375 40.066406 12.761719 C 39.746094 12.164062 39.398438 11.585938 39.023438 11.023438 C 38.648438 10.460938 38.246094 9.917969 37.816406 9.394531 C 37.386719 8.871094 36.933594 8.371094 36.457031 7.890625 C 35.976562 7.414062 35.476562 6.960938 34.953125 6.53125 C 34.429688 6.101562 33.890625 5.699219 33.328125 5.324219 C 32.765625 4.945312 32.183594 4.601562 31.589844 4.28125 C 30.992188 3.960938 30.382812 3.671875 29.757812 3.414062 C 29.132812 3.15625 28.496094 2.925781 27.847656 2.730469 C 27.199219 2.535156 26.546875 2.371094 25.882812 2.238281 C 25.21875 2.105469 24.550781 2.007812 23.875 1.941406 C 23.203125 1.875 22.527344 1.839844 21.851562 1.839844 C 21.175781 1.839844 20.5 1.875 19.828125 1.941406 C 19.15625 2.007812 18.488281 2.105469 17.824219 2.238281 C 17.160156 2.371094 16.503906 2.535156 15.855469 2.730469 C 15.210938 2.925781 14.574219 3.15625 13.949219 3.414062 C 13.324219 3.671875 12.714844 3.960938 12.117188 4.28125 C 11.519531 4.601562 10.941406 4.945312 10.378906 5.324219 C 9.816406 5.699219 9.273438 6.101562 8.75 6.53125 C 8.226562 6.960938 7.726562 7.414062 7.25 7.890625 C 6.769531 8.371094 6.316406 8.871094 5.886719 9.394531 C 5.457031 9.917969 5.054688 10.460938 4.679688 11.023438 C 4.304688 11.585938 3.957031 12.164062 3.640625 12.761719 C 3.320312 13.359375 3.03125 13.96875 2.773438 14.59375 C 2.515625 15.21875 2.285156 15.855469 2.089844 16.5 C 1.894531 17.148438 1.730469 17.804688 1.597656 18.46875 C 1.46875 19.132812 1.367188 19.800781 1.300781 20.472656 C 1.234375 21.144531 1.203125 21.820312 1.203125 22.496094 C 1.203125 23.175781 1.234375 23.847656 1.300781 24.523438 C 1.367188 25.195312 1.46875 25.863281 1.597656 26.527344 C 1.730469 27.191406 1.894531 27.847656 2.089844 28.492188 C 2.285156 29.140625 2.515625 29.777344 2.773438 30.402344 C 3.03125 31.027344 3.320312 31.636719 3.640625 32.234375 C 3.957031 32.832031 4.304688 33.410156 4.679688 33.972656 C 5.054688 34.535156 5.457031 35.078125 5.886719 35.601562 C 6.316406 36.125 6.769531 36.625 7.25 37.101562 C 7.726562 37.582031 8.226562 38.035156 8.75 38.464844 C 9.273438 38.894531 9.816406 39.296875 10.378906 39.671875 C 10.941406 40.046875 11.519531 40.394531 12.117188 40.714844 C 12.714844 41.035156 13.324219 41.320312 13.949219 41.582031 C 14.574219 41.839844 15.210938 42.066406 15.855469 42.265625 C 16.503906 42.460938 17.160156 42.625 17.824219 42.757812 C 18.488281 42.890625 19.15625 42.988281 19.828125 43.054688 C 20.5 43.121094 21.175781 43.152344 21.851562 43.152344 C 22.527344 43.152344 23.203125 43.121094 23.875 43.054688 C 24.550781 42.988281 25.21875 42.890625 25.882812 42.757812 C 26.546875 42.625 27.199219 42.460938 27.847656 42.265625 C 28.496094 42.066406 29.132812 41.839844 29.757812 41.582031 C 30.382812 41.320312 30.992188 41.035156 31.589844 40.714844 C 32.183594 40.394531 32.765625 40.046875 33.328125 39.671875 C 33.890625 39.296875 34.429688 38.894531 34.953125 38.464844 C 35.476562 38.035156 35.976562 37.582031 36.457031 37.101562 C 36.933594 36.625 37.386719 36.125 37.816406 35.601562 C 38.246094 35.078125 38.648438 34.535156 39.023438 33.972656 C 39.398438 33.410156 39.746094 32.832031 40.066406 32.234375 C 40.382812 31.636719 40.671875 31.027344 40.929688 30.402344 C 41.191406 29.777344 41.417969 29.140625 41.613281 28.492188 C 41.808594 27.847656 41.972656 27.191406 42.105469 26.527344 C 42.238281 25.863281 42.335938 25.195312 42.402344 24.523438 C 42.46875 23.847656 42.5 23.175781 42.5 22.496094 " fill-opacity="1" fill-rule="nonzero"/><path fill="#ffbd59" d="M 23.386719 1.769531 C 32.332031 2.234375 40.390625 9.203125 42.226562 17.953125 C 43.914062 25.253906 41.269531 33.335938 35.542969 38.1875 C 31.480469 41.722656 26.019531 43.585938 20.640625 43.179688 C 12.125 42.835938 4.324219 36.523438 2.03125 28.335938 C 1.089844 25.324219 1.09375 22.09375 1.472656 18.996094 C 2.765625 11.105469 8.972656 4.289062 16.757812 2.382812 C 18.90625 1.855469 21.175781 1.578125 23.386719 1.769531 Z M 26.574219 3.042969 C 30.367188 4.90625 32.714844 9.21875 32.175781 13.417969 C 31.746094 18.367188 27.242188 22.457031 22.292969 22.546875 C 18.148438 22.421875 14.0625 24.996094 12.558594 28.886719 C 10.753906 33.136719 12.3125 38.472656 16.144531 41.070312 C 19.285156 43.382812 23.484375 42.894531 27.058594 42.089844 C 35.316406 40.066406 41.703125 32.328125 42.164062 23.84375 C 42.765625 16.1875 38.550781 8.457031 31.804688 4.792969 C 30.117188 3.878906 27.714844 2.8125 26.136719 2.792969 L 26.3125 2.898438 Z M 22.535156 30.210938 C 24.625 30.613281 25.257812 33.683594 23.453125 34.847656 C 21.605469 36.289062 18.703125 34.328125 19.433594 32.046875 C 19.765625 30.734375 21.21875 29.90625 22.535156 30.210938 Z M 21.484375 9.851562 C 18.921875 10.171875 18.851562 14.28125 21.414062 14.667969 C 23.4375 15.199219 25.199219 12.667969 24.003906 10.941406 C 23.496094 10.171875 22.417969 9.5625 21.484375 9.851562 Z M 21.484375 9.851562 " fill-opacity="1" fill-rule="nonzero"/></g></svg>