<svg xmlns="http://www.w3.org/2000/svg" xmlns:xlink="http://www.w3.org/1999/xlink" width="100" zoomAndPan="magnify" viewBox="0 0 75 74.999997" height="100" preserveAspectRatio="xMidYMid meet" version="1.0"><defs><g/><clipPath id="5838234d28"><path d="M 2.101562 2.101562 L 72.898438 2.101562 L 72.898438 72.898438 L 2.101562 72.898438 Z M 2.101562 2.101562 " clip-rule="nonzero"/></clipPath><clipPath id="30f9079fbb"><path d="M 37.5 2.101562 C 17.949219 2.101562 2.101562 17.949219 2.101562 37.5 C 2.101562 57.050781 17.949219 72.898438 37.5 72.898438 C 57.050781 72.898438 72.898438 57.050781 72.898438 37.5 C 72.898438 17.949219 57.050781 2.101562 37.5 2.101562 Z M 37.5 2.101562 " clip-rule="nonzero"/></clipPath><clipPath id="c0345e5308"><path d="M 2.101562 2.101562 L 72.601562 2.101562 L 72.601562 72.601562 L 2.101562 72.601562 Z M 2.101562 2.101562 " clip-rule="nonzero"/></clipPath><clipPath id="df437ae3db"><path d="M 37.496094 2.101562 C 17.949219 2.101562 2.101562 17.949219 2.101562 37.496094 C 2.101562 57.046875 17.949219 72.894531 37.496094 72.894531 C 57.046875 72.894531 72.894531 57.046875 72.894531 37.496094 C 72.894531 17.949219 57.046875 2.101562 37.496094 2.101562 Z M 37.496094 2.101562 " clip-rule="nonzero"/></clipPath></defs><g clip-path="url(#5838234d28)"><g clip-path="url(#30f9079fbb)"><path fill="#ffffff" d="M 2.101562 2.101562 L 72.898438 2.101562 L 72.898438 72.898438 L 2.101562 72.898438 Z M 2.101562 2.101562 " fill-opacity="1" fill-rule="nonzero"/></g></g><g clip-path="url(#c0345e5308)"><g clip-path="url(#df437ae3db)"><path stroke-linecap="butt" transform="matrix(0.75, 0, 0, 0.75, 2.100001, 2.099999)" fill="none" stroke-linejoin="miter" d="M 47.194797 0.0020849 C 21.132293 0.0020849 0.00208156 21.132296 0.00208156 47.1948 C 0.00208156 73.262512 21.132293 94.392724 47.194797 94.392724 C 73.262509 94.392724 94.39272 73.262512 94.39272 47.1948 C 94.39272 21.132296 73.262509 0.0020849 47.194797 0.0020849 Z M 47.194797 0.0020849 " stroke="#000000" stroke-width="2" stroke-opacity="1" stroke-miterlimit="4"/></g></g><g fill="#000000" fill-opacity="1"><g transform="translate(6.203691, 49.419248)"><g><path d="M 12.265625 -22.890625 C 13.535156 -22.890625 14.789062 -22.742188 16.03125 -22.453125 C 17.28125 -22.160156 18.207031 -21.867188 18.8125 -21.578125 L 19.71875 -21.15625 L 17.203125 -16.125 C 15.472656 -17.050781 13.828125 -17.515625 12.265625 -17.515625 C 11.398438 -17.515625 10.785156 -17.421875 10.421875 -17.234375 C 10.054688 -17.046875 9.875 -16.691406 9.875 -16.171875 C 9.875 -16.054688 9.890625 -15.9375 9.921875 -15.8125 C 9.953125 -15.695312 10.007812 -15.585938 10.09375 -15.484375 C 10.1875 -15.390625 10.269531 -15.304688 10.34375 -15.234375 C 10.414062 -15.160156 10.535156 -15.078125 10.703125 -14.984375 C 10.878906 -14.898438 11.015625 -14.835938 11.109375 -14.796875 C 11.210938 -14.753906 11.378906 -14.691406 11.609375 -14.609375 C 11.847656 -14.523438 12.023438 -14.457031 12.140625 -14.40625 C 12.253906 -14.363281 12.445312 -14.300781 12.71875 -14.21875 C 13 -14.132812 13.207031 -14.078125 13.34375 -14.046875 C 14.238281 -13.785156 15.019531 -13.492188 15.6875 -13.171875 C 16.351562 -12.859375 17.050781 -12.425781 17.78125 -11.875 C 18.519531 -11.320312 19.09375 -10.625 19.5 -9.78125 C 19.90625 -8.945312 20.109375 -8 20.109375 -6.9375 C 20.109375 -1.875 16.597656 0.65625 9.578125 0.65625 C 7.984375 0.65625 6.472656 0.410156 5.046875 -0.078125 C 3.617188 -0.578125 2.585938 -1.070312 1.953125 -1.5625 L 1 -2.34375 L 4.125 -7.578125 C 4.351562 -7.378906 4.65625 -7.140625 5.03125 -6.859375 C 5.40625 -6.585938 6.082031 -6.210938 7.0625 -5.734375 C 8.039062 -5.265625 8.894531 -5.03125 9.625 -5.03125 C 11.207031 -5.03125 12 -5.5625 12 -6.625 C 12 -7.125 11.796875 -7.507812 11.390625 -7.78125 C 10.992188 -8.050781 10.3125 -8.359375 9.34375 -8.703125 C 8.375 -9.054688 7.613281 -9.378906 7.0625 -9.671875 C 5.675781 -10.390625 4.578125 -11.203125 3.765625 -12.109375 C 2.960938 -13.023438 2.5625 -14.234375 2.5625 -15.734375 C 2.5625 -17.984375 3.429688 -19.738281 5.171875 -21 C 6.921875 -22.257812 9.285156 -22.890625 12.265625 -22.890625 Z M 12.265625 -22.890625 "/></g></g></g><g fill="#000000" fill-opacity="1"><g transform="translate(25.361193, 49.419248)"><g><path d="M 2.59375 0 L 2.59375 -22.234375 L 10.265625 -22.234375 L 10.265625 -19.890625 L 10.359375 -19.890625 C 12.347656 -21.890625 14.472656 -22.890625 16.734375 -22.890625 C 18.347656 -22.890625 19.863281 -22.554688 21.28125 -21.890625 C 22.695312 -21.222656 23.765625 -20.195312 24.484375 -18.8125 C 26.742188 -21.53125 29.203125 -22.890625 31.859375 -22.890625 C 34.222656 -22.890625 36.257812 -22.222656 37.96875 -20.890625 C 39.675781 -19.554688 40.53125 -17.476562 40.53125 -14.65625 L 40.53125 0 L 32.859375 0 L 32.859375 -12.5625 C 32.859375 -13.75 32.53125 -14.738281 31.875 -15.53125 C 31.226562 -16.332031 30.253906 -16.734375 28.953125 -16.734375 C 27.828125 -16.734375 26.96875 -16.390625 26.375 -15.703125 C 25.78125 -15.023438 25.457031 -14.210938 25.40625 -13.265625 L 25.40625 0 L 17.734375 0 L 17.734375 -12.5625 C 17.734375 -13.75 17.40625 -14.738281 16.75 -15.53125 C 16.101562 -16.332031 15.128906 -16.734375 13.828125 -16.734375 C 12.640625 -16.734375 11.75 -16.363281 11.15625 -15.625 C 10.5625 -14.882812 10.265625 -14.007812 10.265625 -13 L 10.265625 0 Z M 2.59375 0 "/></g></g></g></svg>